<?xml version="1.0" encoding="UTF-8"?>
<!DOCTYPE svg PUBLIC "-//W3C//DTD SVG 1.1//EN" "http://www.w3.org/Graphics/SVG/1.1/DTD/svg11.dtd">
<!-- Creator: CorelDRAW 2021.5 -->
<svg xmlns="http://www.w3.org/2000/svg" xml:space="preserve" width="23.622in" height="5.51181in" version="1.1" style="shape-rendering:geometricPrecision; text-rendering:geometricPrecision; image-rendering:optimizeQuality; fill-rule:evenodd; clip-rule:evenodd"
viewBox="0 0 23622.05 5511.81"
 xmlns:xlink="http://www.w3.org/1999/xlink"
 xmlns:xodm="http://www.corel.com/coreldraw/odm/2003">
 <defs>
  <style type="text/css">
   <![CDATA[
    .fil0 {fill:#1E293B;fill-rule:nonzero}
   ]]>
  </style>
 </defs>
 <g id="Layer_x0020_1">
  <metadata id="CorelCorpID_0Corel-Layer"/>
  <g id="_1560502791280">
   <path class="fil0" d="M1314.65 2752.02l756.22 -1729.92 573.34 0 756.22 1729.92 -603 0 -558.52 -1453.13 227.36 0 -558.52 1453.13 -593.12 0zm449.78 -301.5l148.28 -420.12 795.76 0 148.28 420.12 -1092.32 0z"/>
   <path id="_1" class="fil0" d="M3441.99 2752.02l0 -1729.92 832.83 0c161.46,0 301.09,26.36 418.89,79.08 117.8,52.72 208.83,128.09 273.08,226.12 64.25,98.03 96.38,213.77 96.38,347.22 0,133.45 -32.13,248.78 -96.38,345.98 -64.26,97.2 -155.28,172.58 -273.08,226.13 -117.8,53.54 -257.43,80.31 -418.89,80.31l-509.09 0 259.49 -249.6 0 674.67 -583.23 0zm583.23 -610.41l-259.49 -264.43 472.02 0c80.73,0 140.45,-18.13 179.17,-54.37 38.72,-36.25 58.08,-85.67 58.08,-148.28 0,-62.61 -19.36,-112.03 -58.08,-148.28 -38.72,-36.24 -98.44,-54.37 -179.17,-54.37l-472.02 0 259.49 -264.43 0 934.16z"/>
   <polygon id="_2" class="fil0" points="5201.09,2752.02 5201.09,1022.11 5784.32,1022.11 5784.32,2299.78 6565.26,2299.78 6565.26,2752.02 "/>
   <polygon id="_3" class="fil0" points="6673.53,2752.02 6673.53,1022.11 7256.76,1022.11 7256.76,2752.02 "/>
   <path id="_4" class="fil0" d="M8007.57 2381.33l-32.13 -640.07 652.43 -719.15 635.13 0 -731.51 805.65 -323.74 331.16 -200.18 222.42zm-521.44 370.7l0 -1729.92 573.34 0 0 1729.92 -573.34 0zm1136.8 0l-509.09 -672.2 378.11 -400.35 805.65 1072.55 -674.67 0z"/>
   <path id="_5" class="fil0" d="M9049.99 2752.02l756.22 -1729.92 573.34 0 756.22 1729.92 -603 0 -558.52 -1453.13 227.36 0 -558.52 1453.13 -593.12 0zm449.78 -301.5l148.28 -420.12 795.76 0 148.28 420.12 -1092.32 0z"/>
   <path id="_6" class="fil0" d="M11822.34 2791.56c-144.98,0 -285.02,-16.47 -420.12,-49.43 -135.1,-32.95 -246.31,-75.79 -333.63,-128.51l187.82 -425.07c82.38,47.78 174.23,86.09 275.55,114.92 101.33,28.83 199.77,43.25 295.32,43.25 56.02,0 100.09,-3.71 132.22,-11.12 32.13,-7.41 55.6,-18.12 70.43,-32.13 14.83,-14 22.24,-30.89 22.24,-50.66 0,-31.3 -17.3,-56.02 -51.9,-74.14 -34.6,-18.13 -80.32,-33.37 -137.16,-45.72 -56.84,-12.36 -119.04,-25.54 -186.58,-39.54 -67.55,-14 -135.51,-32.54 -203.89,-55.6 -68.37,-23.07 -130.98,-53.55 -187.82,-91.44 -56.84,-37.89 -102.56,-87.73 -137.16,-149.52 -34.6,-61.78 -51.9,-138.81 -51.9,-231.07 0,-107.09 30.07,-204.71 90.2,-292.85 60.13,-88.15 149.93,-158.57 269.37,-211.3 119.45,-52.72 268.14,-79.08 446.07,-79.08 116.97,0 232.3,12.36 345.98,37.07 113.68,24.71 215.83,62.61 306.44,113.68l-175.46 422.59c-85.67,-42.83 -168.46,-74.96 -248.37,-96.38 -79.91,-21.42 -157.75,-32.13 -233.54,-32.13 -56.02,0 -100.5,4.94 -133.45,14.83 -32.95,9.89 -56.43,23.07 -70.43,39.54 -14,16.47 -21.01,34.59 -21.01,54.37 0,29.66 17.3,53.13 51.9,70.43 34.6,17.3 80.32,31.72 137.16,43.25 56.84,11.53 119.45,23.89 187.82,37.07 68.37,13.18 136.33,31.3 203.89,54.37 67.55,23.07 129.74,53.55 186.58,91.44 56.84,37.89 102.56,87.32 137.16,148.28 34.6,60.96 51.9,136.74 51.9,227.36 0,105.44 -30.07,202.24 -90.2,290.38 -60.14,88.15 -149.52,158.99 -268.14,212.54 -118.62,53.54 -267.72,80.31 -447.31,80.31z"/>
   <polygon id="_7" class="fil0" points="12748.61,2752.02 12748.61,1022.11 13331.84,1022.11 13331.84,2752.02 "/>
   <polygon id="_8" class="fil0" points="14302.6,2752.02 14302.6,1022.11 14885.83,1022.11 14885.83,2299.78 15666.76,2299.78 15666.76,2752.02 "/>
   <path id="_9" class="fil0" d="M15611.92 2752.02l756.22 -1729.92 573.34 0 756.22 1729.92 -603 0 -558.52 -1453.13 227.36 0 -558.52 1453.13 -593.12 0zm449.78 -301.5l148.28 -420.12 795.76 0 148.28 420.12 -1092.32 0z"/>
   <path id="_10" class="fil0" d="M18609.16 2791.56c-138.39,0 -266.49,-21.83 -384.29,-65.49 -117.8,-43.66 -219.94,-105.85 -306.44,-186.58 -86.5,-80.73 -153.63,-176.29 -201.41,-286.67 -47.78,-110.39 -71.67,-232.3 -71.67,-365.76 0,-133.45 23.89,-255.37 71.67,-365.75 47.78,-110.39 114.92,-205.94 201.41,-286.67 86.5,-80.73 188.64,-142.93 306.44,-186.58 117.8,-43.66 245.9,-65.49 384.29,-65.49 169.7,0 320.04,29.66 451.01,88.97 130.98,59.31 239.31,144.98 324.98,257.02l-368.23 328.69c-51.07,-64.25 -107.5,-114.09 -169.28,-149.52 -61.78,-35.42 -131.39,-53.13 -208.83,-53.13 -60.96,0 -116.15,9.89 -165.57,29.65 -49.43,19.77 -91.85,48.6 -127.28,86.5 -35.42,37.89 -63.02,83.61 -82.79,137.16 -19.77,53.55 -29.66,113.27 -29.66,179.17 0,65.9 9.89,125.63 29.66,179.17 19.77,53.54 47.37,99.26 82.79,137.16 35.43,37.89 77.85,66.72 127.28,86.5 49.43,19.77 104.62,29.65 165.57,29.65 77.44,0 147.04,-17.71 208.83,-53.13 61.78,-35.42 118.21,-85.26 169.28,-149.51l368.23 328.69c-85.67,110.38 -194,195.65 -324.98,255.78 -130.98,60.13 -281.31,90.2 -451.01,90.2z"/>
   <path id="_11" class="fil0" d="M19288.3 2752.02l756.22 -1729.92 573.34 0 756.22 1729.92 -603 0 -558.52 -1453.13 227.36 0 -558.52 1453.13 -593.12 0zm449.78 -301.5l148.28 -420.12 795.76 0 148.28 420.12 -1092.32 0z"/>
   <path id="_12" class="fil0" d="M21937.07 2381.33l-32.13 -640.07 652.43 -719.15 635.13 0 -731.51 805.65 -323.74 331.16 -200.18 222.42zm-521.44 370.7l0 -1729.92 573.34 0 0 1729.92 -573.34 0zm1136.8 0l-509.09 -672.2 378.11 -400.35 805.65 1072.55 -674.67 0z"/>
   <path class="fil0" d="M1790.06 3793.63c-92.41,0 -164.76,-25.99 -217.07,-77.97 -52.3,-51.98 -78.45,-127.06 -78.45,-225.25l0 -380.22 125.14 0 0 375.41c0,69.3 14.92,119.68 44.76,151.13 29.84,31.44 72.03,47.17 126.58,47.17 54.55,0 96.58,-15.72 126.1,-47.17 29.52,-31.44 44.28,-81.82 44.28,-151.13l0 -375.41 123.21 0 0 380.22c0,98.19 -26.15,173.27 -78.45,225.25 -52.3,51.98 -124.33,77.97 -216.1,77.97z"/>
   <path id="_1_0" class="fil0" d="M2621.71 3264.2c41.07,0 77.81,8.02 110.22,24.07 32.41,16.04 57.91,40.59 76.52,73.64 18.61,33.05 27.92,75.56 27.92,127.54l0 294.55 -120.32 0 0 -279.15c0,-45.56 -10.75,-79.57 -32.25,-102.04 -21.5,-22.46 -51.5,-33.69 -90,-33.69 -28.24,0 -53.26,5.78 -75.08,17.33 -21.82,11.55 -38.66,28.72 -50.54,51.5 -11.87,22.78 -17.81,51.5 -17.81,86.15l0 259.9 -120.32 0 0 -514.02 114.55 0 0 138.61 -20.21 -42.35c17.97,-32.73 44.12,-57.92 78.45,-75.56 34.33,-17.65 73.96,-26.47 118.88,-26.47z"/>
   <path id="_2_1" class="fil0" d="M3072.17 3784l-0.96 -514.02 119.36 0.96 0.96 513.06 -119.36 0zm59.68 -598.73c-22.46,0 -40.91,-7.06 -55.35,-21.18 -14.44,-14.12 -21.66,-31.12 -21.66,-51.02 0,-20.54 7.22,-37.7 21.66,-51.5 14.44,-13.8 32.89,-20.69 55.35,-20.69 22.46,0 40.91,6.57 55.35,19.73 14.44,13.15 21.66,29.68 21.66,49.57 0,21.18 -7.06,38.99 -21.18,53.43 -14.12,14.44 -32.73,21.66 -55.83,21.66z"/>
   <polygon id="_3_2" class="fil0" points="3567.88,3784 3347.45,3269.98 3472.58,3269.98 3662.21,3723.36 3600.61,3723.36 3796.98,3269.98 3912.49,3269.98 3692.06,3784 "/>
   <path id="_4_3" class="fil0" d="M4296.53 3790.74c-57.11,0 -107.01,-11.39 -149.69,-34.17 -42.67,-22.78 -75.72,-54.07 -99.15,-93.85 -23.42,-39.79 -35.13,-85.03 -35.13,-135.72 0,-51.34 11.39,-96.74 34.17,-136.2 22.78,-39.47 54.22,-70.43 94.33,-92.89 40.11,-22.46 85.83,-33.69 137.17,-33.69 50.06,0 94.66,10.91 133.8,32.73 39.15,21.82 69.94,52.62 92.41,92.41 22.46,39.79 33.69,86.63 33.69,140.54 0,5.13 -0.16,10.91 -0.48,17.32 -0.32,6.42 -0.8,12.52 -1.44,18.29l-428.35 0 0 -79.89 364.82 0 -47.17 25.03c0.64,-29.52 -5.46,-55.51 -18.29,-77.97 -12.83,-22.46 -30.32,-40.11 -52.46,-52.94 -22.14,-12.83 -47.65,-19.25 -76.53,-19.25 -29.52,0 -55.35,6.42 -77.49,19.25 -22.14,12.83 -39.46,30.64 -51.98,53.42 -12.51,22.78 -18.77,49.57 -18.77,80.38l0 19.25c0,30.8 7.06,58.07 21.18,81.82 14.12,23.74 34.01,42.04 59.68,54.87 25.67,12.83 55.19,19.25 88.56,19.25 28.88,0 54.87,-4.49 77.97,-13.48 23.1,-8.98 43.64,-23.1 61.61,-42.35l64.49 74.12c-23.1,26.95 -52.14,47.65 -87.11,62.09 -34.98,14.44 -74.92,21.66 -119.84,21.66z"/>
   <path id="_5_4" class="fil0" d="M4735.44 3784l0 -514.02 114.55 0 0 141.5 -13.48 -41.39c15.4,-34.65 39.63,-60.96 72.68,-78.93 33.05,-17.97 74.28,-26.95 123.69,-26.95l0 114.55c-5.13,-1.28 -9.95,-2.08 -14.44,-2.41 -4.49,-0.32 -8.98,-0.48 -13.48,-0.48 -45.56,0 -81.82,13.31 -108.77,39.95 -26.95,26.63 -40.43,66.26 -40.43,118.88l0 249.31 -120.32 0z"/>
   <path id="_6_5" class="fil0" d="M5380.35 3790.74c-43,0 -84.23,-5.61 -123.69,-16.84 -39.46,-11.23 -70.75,-24.87 -93.85,-40.91l46.2 -91.45c23.1,14.76 50.7,26.95 82.78,36.58 32.09,9.63 64.17,14.44 96.26,14.44 37.86,0 65.3,-5.13 82.3,-15.4 17,-10.27 25.51,-24.07 25.51,-41.39 0,-14.12 -5.78,-24.87 -17.33,-32.24 -11.55,-7.38 -26.63,-13 -45.24,-16.85 -18.61,-3.85 -39.3,-7.38 -62.09,-10.59 -22.78,-3.21 -45.56,-7.54 -68.34,-12.99 -22.78,-5.46 -43.48,-13.48 -62.09,-24.07 -18.61,-10.59 -33.69,-24.87 -45.24,-42.83 -11.55,-17.97 -17.33,-41.71 -17.33,-71.23 0,-32.73 9.31,-61.12 27.92,-85.19 18.61,-24.06 44.76,-42.67 78.45,-55.83 33.69,-13.15 73.64,-19.73 119.84,-19.73 34.65,0 69.63,3.85 104.93,11.55 35.3,7.7 64.49,18.61 87.59,32.73l-46.2 91.44c-24.39,-14.76 -48.93,-24.87 -73.64,-30.32 -24.7,-5.46 -49.25,-8.19 -73.64,-8.19 -36.58,0 -63.69,5.46 -81.34,16.37 -17.65,10.91 -26.47,24.7 -26.47,41.39 0,15.4 5.78,26.95 17.33,34.65 11.55,7.7 26.63,13.8 45.24,18.29 18.61,4.49 39.3,8.18 62.09,11.07 22.78,2.89 45.4,7.22 67.86,13 22.46,5.78 43.15,13.64 62.09,23.58 18.93,9.95 34.17,23.91 45.72,41.87 11.55,17.97 17.33,41.39 17.33,70.27 0,32.09 -9.47,60 -28.4,83.75 -18.93,23.74 -45.72,42.19 -80.38,55.35 -34.65,13.16 -76.04,19.73 -124.17,19.73z"/>
   <path id="_7_6" class="fil0" d="M5800.01 3784l-0.96 -514.02 119.36 0.96 0.96 513.06 -119.36 0zm59.68 -598.73c-22.46,0 -40.91,-7.06 -55.35,-21.18 -14.44,-14.12 -21.66,-31.12 -21.66,-51.02 0,-20.54 7.22,-37.7 21.66,-51.5 14.44,-13.8 32.89,-20.69 55.35,-20.69 22.46,0 40.91,6.57 55.35,19.73 14.44,13.15 21.66,29.68 21.66,49.57 0,21.18 -7.06,38.99 -21.18,53.43 -14.12,14.44 -32.73,21.66 -55.83,21.66z"/>
   <path id="_8_7" class="fil0" d="M6352.51 3790.74c-56.47,0 -100.11,-14.6 -130.91,-43.8 -30.8,-29.2 -46.2,-72.35 -46.2,-129.47l0 -461.08 120.33 0 0 458.19c0,24.39 6.26,43.32 18.77,56.8 12.52,13.48 30,20.21 52.46,20.21 26.95,0 49.41,-7.06 67.38,-21.18l33.69 85.67c-14.12,11.55 -31.44,20.21 -51.98,25.99 -20.54,5.78 -41.71,8.66 -63.53,8.66zm-261.83 -420.65l0 -96.26 342.69 0 0 96.26 -342.69 0z"/>
   <path id="_9_8" class="fil0" d="M6965.65 3784l0 -103.96 -6.74 -22.14 0 -181.93c0,-35.3 -10.59,-62.73 -31.76,-82.3 -21.18,-19.57 -53.26,-29.36 -96.26,-29.36 -28.88,0 -57.28,4.49 -85.19,13.48 -27.92,8.98 -51.5,21.5 -70.75,37.54l-47.17 -87.59c27.59,-21.18 60.48,-37.06 98.67,-47.65 38.18,-10.59 77.81,-15.88 118.88,-15.88 74.44,0 132.04,17.81 172.79,53.43 40.75,35.61 61.12,90.64 61.12,165.08l0 301.29 -113.58 0zm-161.72 6.74c-38.5,0 -72.19,-6.57 -101.07,-19.73 -28.88,-13.15 -51.18,-31.44 -66.9,-54.87 -15.72,-23.43 -23.58,-49.89 -23.58,-79.41 0,-28.88 6.9,-54.87 20.7,-77.97 13.8,-23.1 36.42,-41.39 67.86,-54.87 31.44,-13.48 73.16,-20.21 125.13,-20.21l149.2 0 0 79.89 -140.54 0c-41.07,0 -68.67,6.58 -82.78,19.73 -14.12,13.16 -21.18,29.36 -21.18,48.61 0,21.82 8.67,39.15 25.99,51.98 17.33,12.83 41.39,19.25 72.19,19.25 29.52,0 55.99,-6.74 79.41,-20.21 23.42,-13.48 40.27,-33.37 50.54,-59.68l20.22 72.19c-11.55,30.16 -32.25,53.59 -62.09,70.27 -29.84,16.69 -67.54,25.02 -113.11,25.02z"/>
   <path id="_10_9" class="fil0" d="M7473.87 3790.74c-43,0 -84.23,-5.61 -123.69,-16.84 -39.46,-11.23 -70.75,-24.87 -93.85,-40.91l46.2 -91.45c23.1,14.76 50.7,26.95 82.78,36.58 32.09,9.63 64.17,14.44 96.26,14.44 37.86,0 65.3,-5.13 82.3,-15.4 17,-10.27 25.51,-24.07 25.51,-41.39 0,-14.12 -5.78,-24.87 -17.33,-32.24 -11.55,-7.38 -26.63,-13 -45.24,-16.85 -18.61,-3.85 -39.3,-7.38 -62.09,-10.59 -22.78,-3.21 -45.56,-7.54 -68.34,-12.99 -22.78,-5.46 -43.48,-13.48 -62.09,-24.07 -18.61,-10.59 -33.69,-24.87 -45.24,-42.83 -11.55,-17.97 -17.33,-41.71 -17.33,-71.23 0,-32.73 9.31,-61.12 27.92,-85.19 18.61,-24.06 44.76,-42.67 78.45,-55.83 33.69,-13.15 73.64,-19.73 119.84,-19.73 34.65,0 69.63,3.85 104.93,11.55 35.3,7.7 64.49,18.61 87.59,32.73l-46.2 91.44c-24.39,-14.76 -48.93,-24.87 -73.64,-30.32 -24.7,-5.46 -49.25,-8.19 -73.64,-8.19 -36.58,0 -63.69,5.46 -81.34,16.37 -17.65,10.91 -26.47,24.7 -26.47,41.39 0,15.4 5.78,26.95 17.33,34.65 11.55,7.7 26.63,13.8 45.24,18.29 18.61,4.49 39.3,8.18 62.09,11.07 22.78,2.89 45.4,7.22 67.86,13 22.46,5.78 43.15,13.64 62.09,23.58 18.93,9.95 34.17,23.91 45.72,41.87 11.55,17.97 17.33,41.39 17.33,70.27 0,32.09 -9.47,60 -28.4,83.75 -18.93,23.74 -45.72,42.19 -80.38,55.35 -34.65,13.16 -76.04,19.73 -124.17,19.73z"/>
   <polygon id="_11_10" class="fil0" points="8170.75,3784 8169.79,3110.19 8272.78,3110.19 8695.36,3629.03 8645.31,3629.99 8644.34,3110.19 8767.56,3110.19 8768.52,3784 8665.52,3784 8242.94,3265.17 8293.96,3264.2 8293.96,3784 "/>
   <path id="_12_11" class="fil0" d="M9261.33 3790.74c-57.11,0 -107.01,-11.39 -149.69,-34.17 -42.67,-22.78 -75.72,-54.07 -99.15,-93.85 -23.42,-39.79 -35.13,-85.03 -35.13,-135.72 0,-51.34 11.39,-96.74 34.17,-136.2 22.78,-39.47 54.22,-70.43 94.33,-92.89 40.11,-22.46 85.83,-33.69 137.17,-33.69 50.06,0 94.66,10.91 133.8,32.73 39.15,21.82 69.94,52.62 92.41,92.41 22.46,39.79 33.69,86.63 33.69,140.54 0,5.13 -0.16,10.91 -0.48,17.32 -0.32,6.42 -0.8,12.52 -1.44,18.29l-428.35 0 0 -79.89 364.82 0 -47.17 25.03c0.64,-29.52 -5.46,-55.51 -18.29,-77.97 -12.83,-22.46 -30.32,-40.11 -52.46,-52.94 -22.14,-12.83 -47.65,-19.25 -76.53,-19.25 -29.52,0 -55.35,6.42 -77.49,19.25 -22.14,12.83 -39.46,30.64 -51.98,53.42 -12.51,22.78 -18.77,49.57 -18.77,80.38l0 19.25c0,30.8 7.06,58.07 21.18,81.82 14.12,23.74 34.01,42.04 59.68,54.87 25.67,12.83 55.19,19.25 88.56,19.25 28.88,0 54.87,-4.49 77.97,-13.48 23.1,-8.98 43.64,-23.1 61.61,-42.35l64.49 74.12c-23.1,26.95 -52.14,47.65 -87.11,62.09 -34.98,14.44 -74.92,21.66 -119.84,21.66z"/>
   <path id="_13" class="fil0" d="M9933.19 3977.48c-47.49,0 -93.85,-6.26 -139.09,-18.77 -45.24,-12.51 -82.3,-30.64 -111.18,-54.39l53.91 -90.48c22.46,18.61 50.85,33.53 85.19,44.76 34.33,11.23 69.15,16.84 104.44,16.84 56.47,0 97.86,-12.99 124.17,-38.98 26.31,-25.99 39.47,-64.97 39.47,-116.95l0 -91.45 9.63 -116.47 -3.85 -116.47 0 -125.14 114.55 0 0 436.06c0,93.05 -23.74,161.56 -71.23,205.51 -47.49,43.96 -116.15,65.94 -206,65.94zm-15.4 -216.58c-48.77,0 -92.89,-10.43 -132.35,-31.28 -39.47,-20.86 -70.59,-49.89 -93.37,-87.11 -22.78,-37.22 -34.17,-80.86 -34.17,-130.91 0,-49.41 11.39,-92.73 34.17,-129.95 22.78,-37.22 53.9,-66.1 93.37,-86.63 39.46,-20.54 83.58,-30.8 132.35,-30.8 43.64,0 82.78,8.67 117.44,25.99 34.65,17.32 62.41,44.28 83.26,80.85 20.86,36.58 31.28,83.43 31.28,140.54 0,57.11 -10.43,104.12 -31.28,141.02 -20.85,36.9 -48.61,64.17 -83.26,81.82 -34.65,17.65 -73.8,26.47 -117.44,26.47zm18.29 -102.04c30.16,0 57.11,-6.26 80.86,-18.77 23.74,-12.52 42.19,-29.84 55.35,-51.98 13.16,-22.14 19.74,-47.65 19.74,-76.53 0,-28.88 -6.58,-54.39 -19.74,-76.53 -13.15,-22.14 -31.6,-39.14 -55.35,-51.02 -23.74,-11.87 -50.7,-17.81 -80.86,-17.81 -30.16,0 -57.28,5.94 -81.34,17.81 -24.07,11.87 -42.68,28.88 -55.83,51.02 -13.16,22.14 -19.73,47.65 -19.73,76.53 0,28.88 6.57,54.39 19.73,76.53 13.15,22.14 31.76,39.46 55.83,51.98 24.06,12.51 51.18,18.77 81.34,18.77z"/>
   <path id="_14" class="fil0" d="M10691.69 3790.74c-57.11,0 -107.01,-11.39 -149.69,-34.17 -42.67,-22.78 -75.72,-54.07 -99.15,-93.85 -23.42,-39.79 -35.13,-85.03 -35.13,-135.72 0,-51.34 11.39,-96.74 34.17,-136.2 22.78,-39.47 54.22,-70.43 94.33,-92.89 40.11,-22.46 85.83,-33.69 137.17,-33.69 50.06,0 94.66,10.91 133.8,32.73 39.15,21.82 69.94,52.62 92.41,92.41 22.46,39.79 33.69,86.63 33.69,140.54 0,5.13 -0.16,10.91 -0.48,17.32 -0.32,6.42 -0.8,12.52 -1.44,18.29l-428.35 0 0 -79.89 364.82 0 -47.17 25.03c0.64,-29.52 -5.46,-55.51 -18.29,-77.97 -12.83,-22.46 -30.32,-40.11 -52.46,-52.94 -22.14,-12.83 -47.65,-19.25 -76.53,-19.25 -29.52,0 -55.35,6.42 -77.49,19.25 -22.14,12.83 -39.46,30.64 -51.98,53.42 -12.51,22.78 -18.77,49.57 -18.77,80.38l0 19.25c0,30.8 7.06,58.07 21.18,81.82 14.12,23.74 34.01,42.04 59.68,54.87 25.67,12.83 55.19,19.25 88.56,19.25 28.88,0 54.87,-4.49 77.97,-13.48 23.1,-8.98 43.64,-23.1 61.61,-42.35l64.49 74.12c-23.1,26.95 -52.14,47.65 -87.11,62.09 -34.98,14.44 -74.92,21.66 -119.84,21.66z"/>
   <path id="_15" class="fil0" d="M11130.6 3784l0 -514.02 114.55 0 0 141.5 -13.48 -41.39c15.4,-34.65 39.63,-60.96 72.68,-78.93 33.05,-17.97 74.28,-26.95 123.69,-26.95l0 114.55c-5.13,-1.28 -9.95,-2.08 -14.44,-2.41 -4.49,-0.32 -8.98,-0.48 -13.48,-0.48 -45.56,0 -81.82,13.31 -108.77,39.95 -26.95,26.63 -40.43,66.26 -40.43,118.88l0 249.31 -120.32 0z"/>
   <path id="_16" class="fil0" d="M11612.83 3784l-0.96 -514.02 119.36 0.96 0.96 513.06 -119.36 0zm59.68 -598.73c-22.46,0 -40.91,-7.06 -55.35,-21.18 -14.44,-14.12 -21.66,-31.12 -21.66,-51.02 0,-20.54 7.22,-37.7 21.66,-51.5 14.44,-13.8 32.89,-20.69 55.35,-20.69 22.46,0 40.91,6.57 55.35,19.73 14.44,13.15 21.66,29.68 21.66,49.57 0,21.18 -7.06,38.99 -21.18,53.43 -14.12,14.44 -32.73,21.66 -55.83,21.66z"/>
   <polygon id="_17" class="fil0" points="12414.64,3784 12414.64,3517.37 12442.56,3594.37 12149.93,3110.19 12283.73,3110.19 12518.6,3500.04 12443.52,3500.04 12680.31,3110.19 12803.53,3110.19 12510.9,3594.37 12539.78,3517.37 12539.78,3784 "/>
   <path id="_18" class="fil0" d="M13128.85 3790.74c-52.62,-0.64 -99.46,-12.19 -140.54,-34.65 -41.07,-22.46 -73.48,-53.43 -97.22,-92.89 -23.74,-39.47 -35.61,-84.87 -35.61,-136.21 0,-51.34 12.03,-96.74 36.1,-136.2 24.06,-39.47 56.47,-70.43 97.22,-92.89 40.75,-22.46 87.43,-33.69 140.06,-33.69 53.26,0 100.43,11.23 141.5,33.69 41.07,22.46 73.48,53.26 97.22,92.41 23.74,39.15 35.61,84.71 35.61,136.69 0,50.7 -11.71,95.94 -35.13,135.72 -23.42,39.79 -55.99,70.91 -97.7,93.37 -41.71,22.46 -88.88,34.01 -141.5,34.65zm0 -103c29.52,0 55.83,-6.42 78.93,-19.25 23.1,-12.83 41.23,-31.44 54.39,-55.83 13.16,-24.39 20.06,-52.94 20.7,-85.67 -0.64,-33.37 -7.54,-62.09 -20.7,-86.15 -13.15,-24.06 -31.28,-42.51 -54.39,-55.35 -23.1,-12.83 -49.41,-19.25 -78.93,-19.25 -28.88,0 -54.7,6.42 -77.49,19.25 -22.78,12.83 -40.91,31.28 -54.39,55.35 -13.48,24.07 -20.21,52.78 -20.21,86.15 0,32.73 6.74,61.28 20.21,85.67 13.48,24.39 31.61,43.16 54.39,56.31 22.78,13.16 48.61,19.41 77.49,18.77z"/>
   <path id="_19" class="fil0" d="M13833.44 3977.48c-47.49,0 -93.85,-6.26 -139.09,-18.77 -45.24,-12.51 -82.3,-30.64 -111.18,-54.39l53.91 -90.48c22.46,18.61 50.85,33.53 85.19,44.76 34.33,11.23 69.15,16.84 104.44,16.84 56.47,0 97.86,-12.99 124.17,-38.98 26.31,-25.99 39.47,-64.97 39.47,-116.95l0 -91.45 9.63 -116.47 -3.85 -116.47 0 -125.14 114.55 0 0 436.06c0,93.05 -23.74,161.56 -71.23,205.51 -47.49,43.96 -116.15,65.94 -206,65.94zm-15.4 -216.58c-48.77,0 -92.89,-10.43 -132.35,-31.28 -39.47,-20.86 -70.59,-49.89 -93.37,-87.11 -22.78,-37.22 -34.17,-80.86 -34.17,-130.91 0,-49.41 11.39,-92.73 34.17,-129.95 22.78,-37.22 53.9,-66.1 93.37,-86.63 39.46,-20.54 83.58,-30.8 132.35,-30.8 43.64,0 82.78,8.67 117.44,25.99 34.65,17.32 62.41,44.28 83.26,80.85 20.86,36.58 31.28,83.43 31.28,140.54 0,57.11 -10.43,104.12 -31.28,141.02 -20.85,36.9 -48.61,64.17 -83.26,81.82 -34.65,17.65 -73.8,26.47 -117.44,26.47zm18.29 -102.04c30.16,0 57.11,-6.26 80.86,-18.77 23.74,-12.52 42.19,-29.84 55.35,-51.98 13.16,-22.14 19.74,-47.65 19.74,-76.53 0,-28.88 -6.58,-54.39 -19.74,-76.53 -13.15,-22.14 -31.6,-39.14 -55.35,-51.02 -23.74,-11.87 -50.7,-17.81 -80.86,-17.81 -30.16,0 -57.28,5.94 -81.34,17.81 -24.07,11.87 -42.68,28.88 -55.83,51.02 -13.16,22.14 -19.73,47.65 -19.73,76.53 0,28.88 6.57,54.39 19.73,76.53 13.15,22.14 31.76,39.46 55.83,51.98 24.06,12.51 51.18,18.77 81.34,18.77z"/>
   <path id="_20" class="fil0" d="M14392.68 3977.48c-25.03,0 -50.06,-4.17 -75.08,-12.51 -25.03,-8.34 -45.89,-19.89 -62.57,-34.65l48.13 -88.56c12.19,10.91 25.99,19.57 41.39,25.99 15.4,6.42 31.12,9.63 47.17,9.63 21.82,0 39.47,-5.45 52.94,-16.36 13.48,-10.91 25.99,-29.2 37.54,-54.87l29.84 -67.38 9.62 -14.44 194.44 -454.34 115.51 0 -240.65 555.41c-16.04,38.5 -33.85,68.99 -53.42,91.45 -19.57,22.46 -41.39,38.18 -65.46,47.17 -24.07,8.98 -50.54,13.48 -79.41,13.48zm105.89 -175.19l-231.98 -532.31 125.13 0 188.67 443.76 -81.82 88.56z"/>
   <path id="_21" class="fil0" d="M15288.82 3784l0 -103.96 -6.74 -22.14 0 -181.93c0,-35.3 -10.59,-62.73 -31.76,-82.3 -21.18,-19.57 -53.26,-29.36 -96.26,-29.36 -28.88,0 -57.28,4.49 -85.19,13.48 -27.92,8.98 -51.5,21.5 -70.75,37.54l-47.17 -87.59c27.59,-21.18 60.48,-37.06 98.67,-47.65 38.18,-10.59 77.81,-15.88 118.88,-15.88 74.44,0 132.04,17.81 172.79,53.43 40.75,35.61 61.12,90.64 61.12,165.08l0 301.29 -113.58 0zm-161.72 6.74c-38.5,0 -72.19,-6.57 -101.07,-19.73 -28.88,-13.15 -51.18,-31.44 -66.9,-54.87 -15.72,-23.43 -23.58,-49.89 -23.58,-79.41 0,-28.88 6.9,-54.87 20.7,-77.97 13.8,-23.1 36.42,-41.39 67.86,-54.87 31.44,-13.48 73.16,-20.21 125.13,-20.21l149.2 0 0 79.89 -140.54 0c-41.07,0 -68.67,6.58 -82.78,19.73 -14.12,13.16 -21.18,29.36 -21.18,48.61 0,21.82 8.67,39.15 25.99,51.98 17.33,12.83 41.39,19.25 72.19,19.25 29.52,0 55.99,-6.74 79.41,-20.21 23.42,-13.48 40.27,-33.37 50.54,-59.68l20.22 72.19c-11.55,30.16 -32.25,53.59 -62.09,70.27 -29.84,16.69 -67.54,25.02 -113.11,25.02z"/>
   <path id="_22" class="fil0" d="M15736.39 3669.46l2.89 -151.13 268.56 -248.35 144.39 0 -228.13 229.1 -63.53 52.94 -124.17 117.44zm-98.19 114.55l0 -714.24 120.32 0 0 714.24 -120.32 0zm387.93 0l-187.71 -231.98 76.05 -96.26 257.97 328.24 -146.31 0z"/>
   <path id="_23" class="fil0" d="M16639.28 3784l0 -103.96 -6.74 -22.14 0 -181.93c0,-35.3 -10.59,-62.73 -31.76,-82.3 -21.18,-19.57 -53.26,-29.36 -96.26,-29.36 -28.88,0 -57.28,4.49 -85.19,13.48 -27.92,8.98 -51.5,21.5 -70.75,37.54l-47.17 -87.59c27.59,-21.18 60.48,-37.06 98.67,-47.65 38.18,-10.59 77.81,-15.88 118.88,-15.88 74.44,0 132.04,17.81 172.79,53.43 40.75,35.61 61.12,90.64 61.12,165.08l0 301.29 -113.58 0zm-161.72 6.74c-38.5,0 -72.19,-6.57 -101.07,-19.73 -28.88,-13.15 -51.18,-31.44 -66.9,-54.87 -15.72,-23.43 -23.58,-49.89 -23.58,-79.41 0,-28.88 6.9,-54.87 20.7,-77.97 13.8,-23.1 36.42,-41.39 67.86,-54.87 31.44,-13.48 73.16,-20.21 125.13,-20.21l149.2 0 0 79.89 -140.54 0c-41.07,0 -68.67,6.58 -82.78,19.73 -14.12,13.16 -21.18,29.36 -21.18,48.61 0,21.82 8.67,39.15 25.99,51.98 17.33,12.83 41.39,19.25 72.19,19.25 29.52,0 55.99,-6.74 79.41,-20.21 23.42,-13.48 40.27,-33.37 50.54,-59.68l20.22 72.19c-11.55,30.16 -32.25,53.59 -62.09,70.27 -29.84,16.69 -67.54,25.02 -113.11,25.02z"/>
   <path id="_24" class="fil0" d="M16988.67 3784l0 -514.02 114.55 0 0 141.5 -13.48 -41.39c15.4,-34.65 39.63,-60.96 72.68,-78.93 33.05,-17.97 74.28,-26.95 123.69,-26.95l0 114.55c-5.13,-1.28 -9.95,-2.08 -14.44,-2.41 -4.49,-0.32 -8.98,-0.48 -13.48,-0.48 -45.56,0 -81.82,13.31 -108.77,39.95 -26.95,26.63 -40.43,66.26 -40.43,118.88l0 249.31 -120.32 0z"/>
   <path id="_25" class="fil0" d="M17682.67 3790.74c-56.47,0 -100.11,-14.6 -130.91,-43.8 -30.8,-29.2 -46.2,-72.35 -46.2,-129.47l0 -461.08 120.33 0 0 458.19c0,24.39 6.26,43.32 18.77,56.8 12.52,13.48 30,20.21 52.46,20.21 26.95,0 49.41,-7.06 67.38,-21.18l33.69 85.67c-14.12,11.55 -31.44,20.21 -51.98,25.99 -20.54,5.78 -41.71,8.66 -63.53,8.66zm-261.83 -420.65l0 -96.26 342.69 0 0 96.26 -342.69 0z"/>
   <path id="_26" class="fil0" d="M18295.81 3784l0 -103.96 -6.74 -22.14 0 -181.93c0,-35.3 -10.59,-62.73 -31.76,-82.3 -21.18,-19.57 -53.26,-29.36 -96.26,-29.36 -28.88,0 -57.28,4.49 -85.19,13.48 -27.92,8.98 -51.5,21.5 -70.75,37.54l-47.17 -87.59c27.59,-21.18 60.48,-37.06 98.67,-47.65 38.18,-10.59 77.81,-15.88 118.88,-15.88 74.44,0 132.04,17.81 172.79,53.43 40.75,35.61 61.12,90.64 61.12,165.08l0 301.29 -113.58 0zm-161.72 6.74c-38.5,0 -72.19,-6.57 -101.07,-19.73 -28.88,-13.15 -51.18,-31.44 -66.9,-54.87 -15.72,-23.43 -23.58,-49.89 -23.58,-79.41 0,-28.88 6.9,-54.87 20.7,-77.97 13.8,-23.1 36.42,-41.39 67.86,-54.87 31.44,-13.48 73.16,-20.21 125.13,-20.21l149.2 0 0 79.89 -140.54 0c-41.07,0 -68.67,6.58 -82.78,19.73 -14.12,13.16 -21.18,29.36 -21.18,48.61 0,21.82 8.67,39.15 25.99,51.98 17.33,12.83 41.39,19.25 72.19,19.25 29.52,0 55.99,-6.74 79.41,-20.21 23.42,-13.48 40.27,-33.37 50.54,-59.68l20.22 72.19c-11.55,30.16 -32.25,53.59 -62.09,70.27 -29.84,16.69 -67.54,25.02 -113.11,25.02z"/>
  </g>
 </g>
</svg>
