<?xml version="1.0" encoding="UTF-8"?>
<!DOCTYPE svg PUBLIC "-//W3C//DTD SVG 1.1//EN" "http://www.w3.org/Graphics/SVG/1.1/DTD/svg11.dtd">
<!-- Creator: CorelDRAW 2021.5 -->
<svg xmlns="http://www.w3.org/2000/svg" xml:space="preserve" width="14.9606in" height="5.51181in" version="1.1" style="shape-rendering:geometricPrecision; text-rendering:geometricPrecision; image-rendering:optimizeQuality; fill-rule:evenodd; clip-rule:evenodd"
viewBox="0 0 14960.63 5511.81"
 xmlns:xlink="http://www.w3.org/1999/xlink"
 xmlns:xodm="http://www.corel.com/coreldraw/odm/2003">
 <defs>
  <style type="text/css">
   <![CDATA[
    .str0 {stroke:white;stroke-width:3;stroke-miterlimit:2.61313}
    .fil7 {fill:none}
    .fil5 {fill:#FEFEFE}
    .fil10 {fill:#332C2B}
    .fil2 {fill:#FFF000}
    .fil9 {fill:black}
    .fil1 {fill:#000094}
    .fil4 {fill:#008131}
    .fil8 {fill:#EA3313}
    .fil3 {fill:#FFF100}
    .fil6 {fill:white}
    .fil0 {fill:white;fill-rule:nonzero}
   ]]>
  </style>
 </defs>
 <g id="Layer_x0020_1">
  <metadata id="CorelCorpID_0Corel-Layer"/>
  <path class="fil0" d="M135.98 3073.71l327.32 -748.78 248.17 0 327.32 748.78 -261 0 -241.75 -628.98 98.41 0 -241.75 628.98 -256.72 0zm194.68 -130.5l64.18 -181.85 344.44 0 64.18 181.85 -472.8 0z"/>
  <path id="_1" class="fil0" d="M1041.05 3073.71l0 -748.78 360.48 0c69.89,0 130.32,11.41 181.31,34.23 50.99,22.82 90.39,55.45 118.2,97.88 27.81,42.43 41.72,92.53 41.72,150.29 0,57.76 -13.91,107.68 -41.72,149.76 -27.81,42.07 -67.21,74.7 -118.2,97.87 -50.99,23.18 -111.43,34.77 -181.31,34.77l-220.35 0 112.31 -108.04 0 292.02 -252.44 0zm252.44 -264.21l-112.31 -114.46 204.31 0c34.94,0 60.8,-7.84 77.56,-23.53 16.76,-15.69 25.13,-37.08 25.13,-64.18 0,-27.1 -8.38,-48.49 -25.13,-64.18 -16.76,-15.69 -42.61,-23.54 -77.56,-23.54l-204.31 0 112.31 -114.45 0 404.34z"/>
  <polygon id="_2" class="fil0" points="1786.74,3073.71 1786.74,2324.93 2039.19,2324.93 2039.19,2877.96 2377.21,2877.96 2377.21,3073.71 "/>
  <polygon id="_3" class="fil0" points="2408.35,3073.71 2408.35,2324.93 2660.8,2324.93 2660.8,3073.71 "/>
  <path id="_4" class="fil0" d="M2970.06 2913.26l-13.91 -277.05 282.4 -311.28 274.91 0 -316.63 348.72 -140.13 143.34 -86.64 96.27zm-225.7 160.45l0 -748.78 248.17 0 0 748.78 -248.17 0zm492.06 0l-220.35 -290.95 163.66 -173.29 348.72 464.24 -292.02 0z"/>
  <path id="_5" class="fil0" d="M3405.55 3073.71l327.32 -748.78 248.17 0 327.32 748.78 -261 0 -241.75 -628.98 98.41 0 -241.75 628.98 -256.72 0zm194.68 -130.5l64.18 -181.85 344.44 0 64.18 181.85 -472.8 0z"/>
  <path id="_6" class="fil0" d="M4589.81 3090.82c-62.76,0 -123.37,-7.13 -181.85,-21.39 -58.48,-14.26 -106.61,-32.8 -144.41,-55.62l81.3 -183.99c35.66,20.68 75.41,37.26 119.27,49.74 43.86,12.48 86.46,18.72 127.83,18.72 24.25,0 43.32,-1.6 57.23,-4.81 13.91,-3.21 24.07,-7.85 30.48,-13.91 6.42,-6.06 9.63,-13.37 9.63,-21.93 0,-13.55 -7.49,-24.25 -22.46,-32.09 -14.98,-7.85 -34.76,-14.44 -59.37,-19.79 -24.6,-5.35 -51.52,-11.05 -80.76,-17.11 -29.24,-6.06 -58.65,-14.08 -88.25,-24.07 -29.59,-9.98 -56.69,-23.18 -81.3,-39.58 -24.6,-16.4 -44.39,-37.98 -59.37,-64.72 -14.97,-26.74 -22.46,-60.08 -22.46,-100.02 0,-46.35 13.01,-88.61 39.04,-126.76 26.03,-38.15 64.89,-68.64 116.59,-91.46 51.7,-22.82 116.06,-34.23 193.08,-34.23 50.63,0 100.55,5.35 149.76,16.04 49.2,10.7 93.42,27.1 132.64,49.21l-75.95 182.91c-37.08,-18.54 -72.92,-32.44 -107.5,-41.72 -34.59,-9.27 -68.28,-13.91 -101.08,-13.91 -24.25,0 -43.5,2.14 -57.76,6.42 -14.26,4.28 -24.43,9.98 -30.49,17.11 -6.06,7.13 -9.09,14.98 -9.09,23.54 0,12.83 7.49,23 22.46,30.48 14.97,7.49 34.76,13.73 59.37,18.72 24.6,4.99 51.7,10.34 81.3,16.04 29.59,5.7 59.01,13.55 88.25,23.54 29.24,9.98 56.16,23.18 80.76,39.58 24.6,16.4 44.39,37.8 59.37,64.18 14.98,26.39 22.46,59.19 22.46,98.41 0,45.64 -13.02,87.54 -39.04,125.69 -26.03,38.15 -64.72,68.81 -116.06,91.99 -51.34,23.18 -115.88,34.76 -193.61,34.76z"/>
  <polygon id="_7" class="fil0" points="4975.02,3073.71 4975.02,2324.93 5227.46,2324.93 5227.46,3073.71 "/>
  <polygon id="_8" class="fil0" points="5631.93,3073.71 5631.93,2324.93 5884.37,2324.93 5884.37,2877.96 6222.39,2877.96 6222.39,3073.71 "/>
  <path id="_9" class="fil0" d="M6182.94 3073.71l327.32 -748.78 248.17 0 327.32 748.78 -261 0 -241.75 -628.98 98.41 0 -241.75 628.98 -256.72 0zm194.68 -130.5l64.18 -181.85 344.44 0 64.18 181.85 -472.8 0z"/>
  <path id="_10" class="fil0" d="M7464.54 3090.82c-59.9,0 -115.35,-9.45 -166.33,-28.35 -50.99,-18.9 -95.2,-45.82 -132.64,-80.76 -37.44,-34.94 -66.5,-76.3 -87.18,-124.08 -20.68,-47.78 -31.02,-100.55 -31.02,-158.31 0,-57.76 10.34,-110.54 31.02,-158.31 20.68,-47.78 49.74,-89.14 87.18,-124.08 37.44,-34.94 81.65,-61.86 132.64,-80.76 50.99,-18.9 106.43,-28.35 166.33,-28.35 73.45,0 138.52,12.83 195.22,38.51 56.69,25.67 103.58,62.76 140.66,111.25l-159.38 142.27c-22.11,-27.81 -46.53,-49.39 -73.28,-64.72 -26.74,-15.33 -56.87,-23 -90.39,-23 -26.39,0 -50.28,4.28 -71.67,12.83 -21.39,8.56 -39.76,21.04 -55.09,37.44 -15.33,16.4 -27.28,36.19 -35.83,59.37 -8.56,23.18 -12.83,49.03 -12.83,77.55 0,28.52 4.28,54.37 12.83,77.55 8.56,23.18 20.5,42.97 35.83,59.37 15.33,16.4 33.7,28.88 55.09,37.44 21.39,8.56 45.28,12.84 71.67,12.84 33.52,0 63.65,-7.67 90.39,-23 26.74,-15.33 51.17,-36.91 73.28,-64.72l159.38 142.27c-37.08,47.78 -83.97,84.69 -140.66,110.71 -56.7,26.03 -121.77,39.04 -195.22,39.04z"/>
  <path id="_11" class="fil0" d="M7742.79 3073.71l327.32 -748.78 248.17 0 327.32 748.78 -261 0 -241.75 -628.98 98.41 0 -241.75 628.98 -256.72 0zm194.68 -130.5l64.18 -181.85 344.44 0 64.18 181.85 -472.8 0z"/>
  <path id="_12" class="fil0" d="M8873.57 2913.26l-13.91 -277.05 282.4 -311.28 274.91 0 -316.63 348.72 -140.13 143.34 -86.64 96.27zm-225.7 160.45l0 -748.78 248.17 0 0 748.78 -248.17 0zm492.06 0l-220.35 -290.95 163.66 -173.29 348.72 464.24 -292.02 0z"/>
  <path class="fil0 str0" d="M4739.69 2134.46c-22.66,0 -44.08,-3.85 -64.27,-11.55 -20.19,-7.7 -35.8,-17.65 -46.84,-29.85l10.02 -16.56c10.46,10.75 24.76,19.83 42.92,27.24 18.16,7.41 37.4,11.11 57.74,11.11 20.33,0 36.96,-2.69 49.89,-8.06 12.93,-5.37 22.52,-12.56 28.76,-21.57 6.25,-9.01 9.37,-19.03 9.37,-30.07 0,-13.07 -3.49,-23.53 -10.46,-31.37 -6.97,-7.84 -16.12,-14.09 -27.45,-18.74 -11.33,-4.65 -23.68,-8.57 -37.04,-11.76 -13.36,-3.2 -26.87,-6.61 -40.52,-10.24 -13.65,-3.63 -26.15,-8.35 -37.47,-14.16 -11.33,-5.81 -20.41,-13.73 -27.24,-23.75 -6.83,-10.02 -10.24,-23.02 -10.24,-39 0,-14.52 3.78,-27.89 11.33,-40.09 7.56,-12.2 19.32,-22.08 35.3,-29.63 15.98,-7.56 36.46,-11.33 61.44,-11.33 16.85,0 33.48,2.47 49.89,7.41 16.41,4.94 30.43,11.62 42.05,20.04l-8.28 17.87c-12.78,-8.72 -26.51,-15.18 -41.18,-19.39 -14.67,-4.21 -28.83,-6.31 -42.48,-6.31 -19.46,0 -35.59,2.76 -48.37,8.28 -12.78,5.52 -22.22,12.85 -28.32,22.01 -6.1,9.15 -9.15,19.39 -9.15,30.72 0,13.07 3.41,23.53 10.24,31.37 6.83,7.84 15.91,14.09 27.23,18.74 11.33,4.65 23.82,8.57 37.48,11.77 13.65,3.19 27.16,6.61 40.52,10.24 13.36,3.63 25.71,8.35 37.04,14.16 11.33,5.81 20.48,13.65 27.45,23.53 6.97,9.88 10.46,22.66 10.46,38.35 0,14.23 -3.92,27.52 -11.76,39.87 -7.84,12.35 -19.83,22.22 -35.95,29.63 -16.12,7.41 -36.82,11.11 -62.09,11.11z"/>
  <path id="_1_0" class="fil0 str0" d="M4958.48 1967.58l165.15 0 -0.43 19.61 -164.71 0 0 -19.61zm2.61 145.1l188.24 -0.43 -0.43 20.04 -210.03 0 0 -305.02 203.93 0 0 19.61 -181.7 0.44 0 265.36z"/>
  <polygon id="_2_1" class="fil0 str0" points="5244.38,2132.29 5244.38,1827.27 5266.6,1827.27 5266.6,2112.24 5441.77,2112.68 5442.21,2132.29 "/>
  <path id="_3_2" class="fil0 str0" d="M5462.3 2132.29l140.31 -305.02 22.22 0 140.31 305.02 -23.97 0 -132.46 -291.07 9.59 0 -132.03 291.07 -23.97 0zm51.42 -85.84l7.41 -18.74 182.57 0 7.41 18.74 -197.39 0z"/>
  <polygon id="_4_3" class="fil0 str0" points="5834.47,2132.29 5834.47,1827.27 5853.21,1827.27 5994.82,2071.72 5984.8,2071.72 6125.98,1827.27 6144.28,1827.27 6144.72,2132.29 6122.93,2132.29 6122.5,1860.82 6128.59,1860.82 5994.82,2091.76 5983.93,2091.76 5849.72,1860.82 5856.26,1860.82 5856.26,2132.29 "/>
  <path id="_5_4" class="fil0 str0" d="M6214.05 2132.29l140.31 -305.02 22.22 0 140.31 305.02 -23.97 0 -132.46 -291.07 9.59 0 -132.03 291.07 -23.97 0zm51.42 -85.84l7.41 -18.74 182.57 0 7.41 18.74 -197.39 0z"/>
  <polygon id="_6_5" class="fil0 str0" points="6629.36,2132.29 6629.36,1847.31 6519.55,1846.88 6519.55,1827.27 6761.39,1827.27 6761.39,1847.31 6651.58,1846.88 6651.58,2132.29 "/>
  <path id="_7_6" class="fil0 str0" d="M6942.27 2132.29l0 -305.02 120.7 0c32.24,0 60.57,6.54 84.97,19.61 24.4,13.07 43.35,31.08 56.86,54.03 13.51,22.95 20.26,49.24 20.26,78.87 0,29.63 -6.76,55.92 -20.26,78.87 -13.51,22.95 -32.46,40.96 -56.86,54.03 -24.4,13.07 -52.72,19.61 -84.97,19.61l-120.7 0zm22.22 -20.04l96.74 0c28.76,0 53.74,-5.67 74.94,-17 21.21,-11.33 37.62,-26.94 49.24,-46.84 11.62,-19.9 17.43,-42.77 17.43,-68.63 0,-25.85 -5.81,-48.73 -17.43,-68.63 -11.62,-19.9 -28.03,-35.51 -49.24,-46.84 -21.2,-11.33 -46.19,-16.99 -74.94,-16.99l-96.74 0 0 264.93z"/>
  <path id="_8_7" class="fil0 str0" d="M7260.84 2132.29l140.31 -305.02 22.22 0 140.31 305.02 -23.97 0 -132.46 -291.07 9.59 0 -132.03 291.07 -23.97 0zm51.42 -85.84l7.41 -18.74 182.57 0 7.41 18.74 -197.39 0z"/>
  <polygon id="_9_8" class="fil0 str0" points="7676.15,2132.29 7676.15,1847.31 7566.34,1846.88 7566.34,1827.27 7808.18,1827.27 7808.18,1847.31 7698.37,1846.88 7698.37,2132.29 "/>
  <path id="_10_9" class="fil0 str0" d="M7810.84 2132.29l140.31 -305.02 22.22 0 140.31 305.02 -23.97 0 -132.46 -291.07 9.59 0 -132.03 291.07 -23.97 0zm51.42 -85.84l7.41 -18.74 182.57 0 7.41 18.74 -197.39 0z"/>
  <polygon id="_11_10" class="fil0 str0" points="8183.01,2132.29 8183.01,1827.27 8201.75,1827.27 8419.18,2104.83 8409.16,2104.83 8409.16,1827.27 8431.38,1827.27 8431.38,2132.29 8413.08,2132.29 8195.21,1854.72 8205.23,1854.72 8205.23,2132.29 "/>
  <path id="_12_11" class="fil0 str0" d="M8681.98 2134.46c-22.95,0 -44.15,-3.85 -63.62,-11.55 -19.46,-7.7 -36.38,-18.52 -50.76,-32.46 -14.38,-13.94 -25.49,-30.28 -33.33,-49.02 -7.85,-18.74 -11.77,-39.29 -11.77,-61.66 0,-22.37 3.92,-42.92 11.77,-61.66 7.84,-18.74 19.03,-35.08 33.55,-49.02 14.52,-13.94 31.44,-24.76 50.76,-32.46 19.32,-7.7 40.59,-11.55 63.83,-11.55 22.08,0 42.56,3.48 61.44,10.46 18.88,6.97 35,17.43 48.37,31.37l-13.94 14.81c-13.36,-13.07 -27.96,-22.37 -43.79,-27.89 -15.83,-5.52 -33.04,-8.28 -51.63,-8.28 -19.76,0 -38.06,3.34 -54.91,10.02 -16.85,6.69 -31.52,16.13 -44.01,28.33 -12.49,12.2 -22.15,26.43 -28.98,42.7 -6.83,16.27 -10.24,33.99 -10.24,53.16 0,19.17 3.41,36.89 10.24,53.16 6.83,16.27 16.48,30.5 28.98,42.7 12.49,12.2 27.16,21.64 44.01,28.32 16.85,6.68 35.15,10.02 54.91,10.02 18.01,0 35.07,-2.76 51.2,-8.28 16.13,-5.52 30.87,-14.67 44.23,-27.45l12.64 16.99c-13.65,13.07 -29.99,22.88 -49.02,29.41 -19.03,6.54 -39,9.8 -59.92,9.8zm87.59 -41.39l0 -111.98 21.35 0 0 114.16 -21.35 -2.18z"/>
  <path id="_13" class="fil0 str0" d="M9014.5 2132.29l0 -305.02 120.7 0c32.24,0 60.57,6.54 84.97,19.61 24.4,13.07 43.35,31.08 56.86,54.03 13.51,22.95 20.26,49.24 20.26,78.87 0,29.63 -6.76,55.92 -20.26,78.87 -13.51,22.95 -32.46,40.96 -56.86,54.03 -24.4,13.07 -52.72,19.61 -84.97,19.61l-120.7 0zm22.22 -20.04l96.74 0c28.76,0 53.74,-5.67 74.94,-17 21.21,-11.33 37.62,-26.94 49.24,-46.84 11.62,-19.9 17.43,-42.77 17.43,-68.63 0,-25.85 -5.81,-48.73 -17.43,-68.63 -11.62,-19.9 -28.03,-35.51 -49.24,-46.84 -21.2,-11.33 -46.19,-16.99 -74.94,-16.99l-96.74 0 0 264.93z"/>
  <polygon id="_14" class="fil0 str0" points="9388.41,2132.29 9388.41,1827.27 9410.63,1827.27 9410.63,2132.29 "/>
  <path class="fil0 str0" d="M2550.39 3592.2c-36.11,0 -64.58,-10.56 -85.42,-31.67 -20.83,-21.11 -31.25,-52.5 -31.25,-94.17l0 -167.92 21.25 0 0 167.08c0,36.39 8.33,63.33 25,80.83 16.67,17.5 40.28,26.25 70.83,26.25 30.28,0 53.75,-8.75 70.41,-26.25 16.67,-17.5 25,-44.44 25,-80.83l0 -167.08 21.25 0 0 167.92c0,41.67 -10.42,73.06 -31.25,94.17 -20.83,21.11 -49.44,31.67 -85.83,31.67z"/>
  <path id="_1_12" class="fil0 str0" d="M2899.19 3370.96c17.78,0 33.26,3.4 46.46,10.21 13.19,6.8 23.47,17.08 30.83,30.83 7.36,13.75 11.04,30.76 11.04,51.04l0 127.08 -20.83 0 0 -125.42c0,-24.44 -6.18,-43.06 -18.54,-55.83 -12.36,-12.78 -29.65,-19.17 -51.87,-19.17 -16.94,0 -31.67,3.47 -44.17,10.42 -12.5,6.94 -22.02,16.67 -28.54,29.17 -6.53,12.5 -9.79,27.5 -9.79,45l0 115.83 -20.83 0 0 -217.5 20 0 0 60.42 -2.92 -6.67c6.67,-17.22 17.64,-30.76 32.92,-40.63 15.28,-9.86 34.03,-14.79 56.25,-14.79z"/>
  <path id="_2_13" class="fil0 str0" d="M3106.31 3590.12l0 -217.5 20.42 0 0.42 217.5 -20.83 0zm10.42 -270.42c-4.72,0 -8.75,-1.67 -12.08,-5 -3.33,-3.33 -5,-7.22 -5,-11.67 0,-4.72 1.67,-8.75 5,-12.08 3.33,-3.33 7.36,-5 12.08,-5 5,0 9.1,1.6 12.29,4.79 3.2,3.19 4.79,7.15 4.79,11.87 0,4.72 -1.59,8.75 -4.79,12.08 -3.19,3.33 -7.29,5 -12.29,5z"/>
  <polygon id="_3_14" class="fil0 str0" points="3303.03,3590.12 3205.11,3372.62 3227.2,3372.62 3318.86,3578.46 3308.86,3578.46 3401.36,3372.62 3422.61,3372.62 3324.28,3590.12 "/>
  <path id="_4_15" class="fil0 str0" d="M3583.07 3591.79c-21.94,0 -41.32,-4.72 -58.13,-14.17 -16.8,-9.44 -30,-22.5 -39.58,-39.17 -9.58,-16.67 -14.37,-35.7 -14.37,-57.08 0,-21.67 4.51,-40.76 13.54,-57.29 9.03,-16.53 21.46,-29.52 37.29,-38.96 15.83,-9.44 33.61,-14.17 53.33,-14.17 19.72,0 37.43,4.58 53.13,13.75 15.69,9.17 28.06,22.02 37.08,38.54 9.03,16.53 13.54,35.63 13.54,57.29 0,0.83 -0.07,1.74 -0.2,2.71 -0.14,0.97 -0.21,2.01 -0.21,3.13l-192.08 0 0 -16.25 180.83 0 -8.33 7.92c0.28,-16.94 -3.26,-32.15 -10.62,-45.63 -7.36,-13.47 -17.29,-24.03 -29.79,-31.67 -12.5,-7.64 -26.94,-11.46 -43.33,-11.46 -16.11,0 -30.48,3.82 -43.13,11.46 -12.64,7.64 -22.57,18.19 -29.79,31.67 -7.22,13.47 -10.83,28.82 -10.83,46.04l0 3.75c0,17.78 3.96,33.54 11.87,47.29 7.92,13.75 18.82,24.44 32.71,32.08 13.89,7.64 29.72,11.46 47.5,11.46 13.89,0 26.87,-2.5 38.96,-7.5 12.08,-5 22.29,-12.64 30.63,-22.92l12.08 13.75c-9.44,11.67 -21.32,20.48 -35.63,26.46 -14.3,5.97 -29.79,8.96 -46.46,8.96z"/>
  <path id="_5_16" class="fil0 str0" d="M3776.45 3590.12l0 -217.5 20 0 0 59.58 -2.08 -6.67c6.11,-17.5 16.39,-30.97 30.83,-40.42 14.44,-9.44 32.5,-14.17 54.17,-14.17l0 20.42c-0.83,0 -1.67,-0.07 -2.5,-0.21 -0.83,-0.14 -1.67,-0.21 -2.5,-0.21 -24.17,0 -43.06,7.57 -56.67,22.71 -13.61,15.14 -20.42,36.18 -20.42,63.12l0 113.33 -20.83 0z"/>
  <path id="_6_17" class="fil0 str0" d="M4027.33 3591.79c-18.06,0 -34.93,-2.64 -50.62,-7.91 -15.7,-5.28 -27.85,-11.94 -36.46,-20l9.58 -16.67c8.33,7.22 19.44,13.4 33.33,18.54 13.89,5.14 28.89,7.71 45,7.71 22.78,0 39.17,-3.75 49.17,-11.25 10,-7.5 15,-17.36 15,-29.58 0,-8.89 -2.57,-15.9 -7.71,-21.04 -5.14,-5.14 -12.01,-9.09 -20.62,-11.87 -8.61,-2.78 -18.06,-5.07 -28.33,-6.87 -10.28,-1.81 -20.56,-3.82 -30.83,-6.04 -10.28,-2.22 -19.72,-5.41 -28.33,-9.58 -8.61,-4.17 -15.49,-9.93 -20.63,-17.29 -5.14,-7.36 -7.71,-17.15 -7.71,-29.37 0,-11.11 3.06,-21.11 9.17,-30 6.11,-8.89 15.28,-16.04 27.5,-21.46 12.22,-5.42 27.5,-8.13 45.83,-8.13 13.61,0 27.29,1.94 41.04,5.83 13.75,3.89 24.93,9.03 33.54,15.41l-9.58 16.67c-9.17,-6.94 -19.44,-11.94 -30.83,-15 -11.39,-3.06 -22.92,-4.59 -34.58,-4.59 -21.11,0 -36.6,3.89 -46.46,11.67 -9.86,7.78 -14.79,17.5 -14.79,29.17 0,9.17 2.57,16.46 7.71,21.87 5.14,5.42 12.01,9.59 20.62,12.5 8.61,2.92 18.06,5.28 28.33,7.09 10.28,1.8 20.56,3.82 30.83,6.04 10.28,2.22 19.72,5.35 28.33,9.37 8.61,4.03 15.49,9.58 20.63,16.67 5.14,7.08 7.71,16.59 7.71,28.54 0,11.94 -3.26,22.36 -9.79,31.25 -6.53,8.89 -16.18,15.83 -28.96,20.83 -12.78,5 -28.47,7.5 -47.08,7.5z"/>
  <path id="_7_18" class="fil0 str0" d="M4204.46 3590.12l0 -217.5 20.42 0 0.42 217.5 -20.83 0zm10.42 -270.42c-4.72,0 -8.75,-1.67 -12.08,-5 -3.33,-3.33 -5,-7.22 -5,-11.67 0,-4.72 1.67,-8.75 5,-12.08 3.33,-3.33 7.36,-5 12.08,-5 5,0 9.1,1.6 12.29,4.79 3.2,3.19 4.79,7.15 4.79,11.87 0,4.72 -1.59,8.75 -4.79,12.08 -3.19,3.33 -7.29,5 -12.29,5z"/>
  <path id="_8_19" class="fil0 str0" d="M4409.51 3591.79c-19.17,0 -33.82,-5.28 -43.96,-15.83 -10.14,-10.56 -15.21,-25 -15.21,-43.33l0 -207.5 20.83 0 0 205.42c0,13.89 3.47,24.58 10.42,32.08 6.94,7.5 16.94,11.25 30,11.25 13.61,0 24.86,-4.03 33.75,-12.09l8.75 14.59c-5.56,5.28 -12.29,9.17 -20.21,11.67 -7.92,2.5 -16.04,3.75 -24.37,3.75zm-99.17 -201.25l0 -17.92 130 0 0 17.92 -130 0z"/>
  <path id="_9_20" class="fil0 str0" d="M4682.06 3590.12l0 -49.58 -0.83 -7.5 0 -81.67c0,-20.28 -5.49,-35.7 -16.46,-46.25 -10.97,-10.56 -27.01,-15.83 -48.12,-15.83 -15,0 -28.96,2.57 -41.88,7.71 -12.91,5.14 -23.96,11.74 -33.12,19.79l-10.42 -15c10.83,-9.72 23.89,-17.29 39.17,-22.7 15.28,-5.42 31.25,-8.13 47.92,-8.13 26.94,0 47.64,6.8 62.08,20.42 14.44,13.61 21.67,33.89 21.67,60.83l0 137.92 -20 0zm-78.33 1.67c-16.11,0 -30.07,-2.57 -41.87,-7.71 -11.81,-5.14 -20.83,-12.43 -27.09,-21.87 -6.25,-9.44 -9.37,-20.28 -9.37,-32.5 0,-11.11 2.57,-21.18 7.71,-30.21 5.14,-9.03 13.68,-16.39 25.63,-22.08 11.94,-5.69 27.92,-8.54 47.92,-8.54l80 0 0 16.25 -79.59 0c-22.5,0 -38.26,4.17 -47.29,12.5 -9.03,8.33 -13.54,18.75 -13.54,31.25 0,13.89 5.28,25 15.83,33.33 10.56,8.33 25.42,12.5 44.59,12.5 18.33,0 33.82,-4.17 46.46,-12.5 12.64,-8.33 22.01,-20.42 28.13,-36.25l5.83 14.17c-5.83,15.83 -15.76,28.4 -29.79,37.71 -14.03,9.31 -31.87,13.96 -53.54,13.96z"/>
  <path id="_10_21" class="fil0 str0" d="M4875.86 3591.79c-18.06,0 -34.93,-2.64 -50.62,-7.91 -15.7,-5.28 -27.85,-11.94 -36.46,-20l9.58 -16.67c8.33,7.22 19.44,13.4 33.33,18.54 13.89,5.14 28.89,7.71 45,7.71 22.78,0 39.17,-3.75 49.17,-11.25 10,-7.5 15,-17.36 15,-29.58 0,-8.89 -2.57,-15.9 -7.71,-21.04 -5.14,-5.14 -12.01,-9.09 -20.62,-11.87 -8.61,-2.78 -18.06,-5.07 -28.33,-6.87 -10.28,-1.81 -20.56,-3.82 -30.83,-6.04 -10.28,-2.22 -19.72,-5.41 -28.33,-9.58 -8.61,-4.17 -15.49,-9.93 -20.63,-17.29 -5.14,-7.36 -7.71,-17.15 -7.71,-29.37 0,-11.11 3.06,-21.11 9.17,-30 6.11,-8.89 15.28,-16.04 27.5,-21.46 12.22,-5.42 27.5,-8.13 45.83,-8.13 13.61,0 27.29,1.94 41.04,5.83 13.75,3.89 24.93,9.03 33.54,15.41l-9.58 16.67c-9.17,-6.94 -19.44,-11.94 -30.83,-15 -11.39,-3.06 -22.92,-4.59 -34.58,-4.59 -21.11,0 -36.6,3.89 -46.46,11.67 -9.86,7.78 -14.79,17.5 -14.79,29.17 0,9.17 2.57,16.46 7.71,21.87 5.14,5.42 12.01,9.59 20.62,12.5 8.61,2.92 18.06,5.28 28.33,7.09 10.28,1.8 20.56,3.82 30.83,6.04 10.28,2.22 19.72,5.35 28.33,9.37 8.61,4.03 15.49,9.58 20.63,16.67 5.14,7.08 7.71,16.59 7.71,28.54 0,11.94 -3.26,22.36 -9.79,31.25 -6.53,8.89 -16.18,15.83 -28.96,20.83 -12.78,5 -28.47,7.5 -47.08,7.5z"/>
  <polygon id="_11_22" class="fil0 str0" points="5166.74,3590.12 5166.74,3298.46 5184.65,3298.46 5392.57,3563.87 5382.99,3563.87 5382.99,3298.46 5404.24,3298.46 5404.24,3590.12 5386.74,3590.12 5178.41,3324.7 5187.99,3324.7 5187.99,3590.12 "/>
  <path id="_12_23" class="fil0 str0" d="M5620.54 3591.79c-21.94,0 -41.32,-4.72 -58.13,-14.17 -16.8,-9.44 -30,-22.5 -39.58,-39.17 -9.58,-16.67 -14.37,-35.7 -14.37,-57.08 0,-21.67 4.51,-40.76 13.54,-57.29 9.03,-16.53 21.46,-29.52 37.29,-38.96 15.83,-9.44 33.61,-14.17 53.33,-14.17 19.72,0 37.43,4.58 53.13,13.75 15.69,9.17 28.06,22.02 37.08,38.54 9.03,16.53 13.54,35.63 13.54,57.29 0,0.83 -0.07,1.74 -0.2,2.71 -0.14,0.97 -0.21,2.01 -0.21,3.13l-192.08 0 0 -16.25 180.83 0 -8.33 7.92c0.28,-16.94 -3.26,-32.15 -10.62,-45.63 -7.36,-13.47 -17.29,-24.03 -29.79,-31.67 -12.5,-7.64 -26.94,-11.46 -43.33,-11.46 -16.11,0 -30.48,3.82 -43.13,11.46 -12.64,7.64 -22.57,18.19 -29.79,31.67 -7.22,13.47 -10.83,28.82 -10.83,46.04l0 3.75c0,17.78 3.96,33.54 11.87,47.29 7.92,13.75 18.82,24.44 32.71,32.08 13.89,7.64 29.72,11.46 47.5,11.46 13.89,0 26.87,-2.5 38.96,-7.5 12.08,-5 22.29,-12.64 30.63,-22.92l12.08 13.75c-9.44,11.67 -21.32,20.48 -35.63,26.46 -14.3,5.97 -29.79,8.96 -46.46,8.96z"/>
  <path id="_13_24" class="fil0 str0" d="M5904.33 3672.62c-19.72,0 -38.47,-3.06 -56.25,-9.17 -17.78,-6.11 -32.22,-14.59 -43.33,-25.42l11.25 -15.83c10.83,10 23.82,17.78 38.96,23.33 15.14,5.56 31.46,8.33 48.96,8.33 29.17,0 50.63,-6.8 64.37,-20.41 13.75,-13.61 20.63,-35 20.63,-64.17l0 -60.41 4.17 -32.5 -3.33 -32.5 0 -71.25 20 0 0 194.17c0,36.39 -8.82,63.13 -26.46,80.21 -17.64,17.08 -43.96,25.63 -78.96,25.63zm-5.83 -90.42c-20.56,0 -38.96,-4.51 -55.2,-13.54 -16.25,-9.03 -29.17,-21.53 -38.75,-37.5 -9.58,-15.97 -14.37,-34.24 -14.37,-54.79 0,-20.83 4.79,-39.17 14.37,-55 9.58,-15.83 22.5,-28.2 38.75,-37.09 16.25,-8.89 34.65,-13.33 55.2,-13.33 19.72,0 37.43,4.24 53.13,12.71 15.69,8.47 28.13,20.56 37.29,36.25 9.17,15.7 13.75,34.52 13.75,56.46 0,21.67 -4.59,40.41 -13.75,56.25 -9.17,15.83 -21.6,28.06 -37.29,36.67 -15.69,8.61 -33.4,12.92 -53.13,12.92zm1.67 -18.75c17.5,0 32.92,-3.68 46.25,-11.04 13.33,-7.36 23.82,-17.64 31.46,-30.83 7.64,-13.19 11.46,-28.26 11.46,-45.2 0,-17.22 -3.82,-32.36 -11.46,-45.42 -7.64,-13.06 -18.13,-23.2 -31.46,-30.42 -13.33,-7.22 -28.75,-10.83 -46.25,-10.83 -16.94,0 -32.15,3.61 -45.63,10.83 -13.47,7.22 -24.03,17.36 -31.67,30.42 -7.64,13.06 -11.46,28.19 -11.46,45.42 0,16.94 3.82,32.01 11.46,45.2 7.64,13.2 18.19,23.47 31.67,30.83 13.47,7.36 28.68,11.04 45.63,11.04z"/>
  <path id="_14_25" class="fil0 str0" d="M6219.38 3591.79c-21.94,0 -41.32,-4.72 -58.13,-14.17 -16.8,-9.44 -30,-22.5 -39.58,-39.17 -9.58,-16.67 -14.37,-35.7 -14.37,-57.08 0,-21.67 4.51,-40.76 13.54,-57.29 9.03,-16.53 21.46,-29.52 37.29,-38.96 15.83,-9.44 33.61,-14.17 53.33,-14.17 19.72,0 37.43,4.58 53.13,13.75 15.69,9.17 28.06,22.02 37.08,38.54 9.03,16.53 13.54,35.63 13.54,57.29 0,0.83 -0.07,1.74 -0.2,2.71 -0.14,0.97 -0.21,2.01 -0.21,3.13l-192.08 0 0 -16.25 180.83 0 -8.33 7.92c0.28,-16.94 -3.26,-32.15 -10.62,-45.63 -7.36,-13.47 -17.29,-24.03 -29.79,-31.67 -12.5,-7.64 -26.94,-11.46 -43.33,-11.46 -16.11,0 -30.48,3.82 -43.13,11.46 -12.64,7.64 -22.57,18.19 -29.79,31.67 -7.22,13.47 -10.83,28.82 -10.83,46.04l0 3.75c0,17.78 3.96,33.54 11.87,47.29 7.92,13.75 18.82,24.44 32.71,32.08 13.89,7.64 29.72,11.46 47.5,11.46 13.89,0 26.87,-2.5 38.96,-7.5 12.08,-5 22.29,-12.64 30.63,-22.92l12.08 13.75c-9.44,11.67 -21.32,20.48 -35.63,26.46 -14.3,5.97 -29.79,8.96 -46.46,8.96z"/>
  <path id="_15" class="fil0 str0" d="M6412.76 3590.12l0 -217.5 20 0 0 59.58 -2.08 -6.67c6.11,-17.5 16.39,-30.97 30.83,-40.42 14.44,-9.44 32.5,-14.17 54.17,-14.17l0 20.42c-0.83,0 -1.67,-0.07 -2.5,-0.21 -0.83,-0.14 -1.67,-0.21 -2.5,-0.21 -24.17,0 -43.06,7.57 -56.67,22.71 -13.61,15.14 -20.42,36.18 -20.42,63.12l0 113.33 -20.83 0z"/>
  <path id="_16" class="fil0 str0" d="M6606.14 3590.12l0 -217.5 20.42 0 0.42 217.5 -20.83 0zm10.42 -270.42c-4.72,0 -8.75,-1.67 -12.08,-5 -3.33,-3.33 -5,-7.22 -5,-11.67 0,-4.72 1.67,-8.75 5,-12.08 3.33,-3.33 7.36,-5 12.08,-5 5,0 9.1,1.6 12.29,4.79 3.2,3.19 4.79,7.15 4.79,11.87 0,4.72 -1.59,8.75 -4.79,12.08 -3.19,3.33 -7.29,5 -12.29,5z"/>
  <polygon id="_17" class="fil0 str0" points="6930.35,3590.12 6930.35,3484.29 6935.35,3498.04 6812.85,3298.46 6836.19,3298.46 6947.43,3479.7 6935.77,3479.7 7047.02,3298.46 7069.1,3298.46 6946.6,3498.04 6951.6,3484.29 6951.6,3590.12 "/>
  <path id="_18" class="fil0 str0" d="M7208.31 3591.79c-20.83,0 -39.37,-4.72 -55.62,-14.17 -16.25,-9.44 -29.1,-22.5 -38.54,-39.17 -9.44,-16.67 -14.17,-35.7 -14.17,-57.08 -0.28,-21.67 4.37,-40.76 13.96,-57.29 9.58,-16.53 22.5,-29.52 38.75,-38.96 16.25,-9.44 34.79,-14.17 55.62,-14.17 20.83,0 39.44,4.72 55.83,14.17 16.39,9.44 29.24,22.43 38.54,38.96 9.31,16.53 13.96,35.62 13.96,57.29 0.28,21.39 -4.31,40.41 -13.75,57.08 -9.44,16.67 -22.43,29.72 -38.96,39.17 -16.53,9.44 -35.07,14.17 -55.63,14.17zm0 -18.75c16.67,0 31.67,-3.82 45,-11.46 13.33,-7.64 23.75,-18.4 31.25,-32.29 7.5,-13.89 11.39,-29.86 11.67,-47.91 -0.28,-18.33 -4.17,-34.38 -11.67,-48.13 -7.5,-13.75 -17.92,-24.44 -31.25,-32.08 -13.33,-7.64 -28.33,-11.6 -45,-11.88 -16.67,0.28 -31.59,4.24 -44.79,11.88 -13.19,7.64 -23.61,18.33 -31.25,32.08 -7.64,13.75 -11.6,29.79 -11.88,48.13 0.28,18.06 4.24,34.03 11.88,47.91 7.64,13.89 17.98,24.72 31.04,32.5 13.06,7.78 28.06,11.53 45,11.25z"/>
  <path id="_19" class="fil0 str0" d="M7505.03 3672.62c-19.72,0 -38.47,-3.06 -56.25,-9.17 -17.78,-6.11 -32.22,-14.59 -43.33,-25.42l11.25 -15.83c10.83,10 23.82,17.78 38.96,23.33 15.14,5.56 31.46,8.33 48.96,8.33 29.17,0 50.63,-6.8 64.37,-20.41 13.75,-13.61 20.63,-35 20.63,-64.17l0 -60.41 4.17 -32.5 -3.33 -32.5 0 -71.25 20 0 0 194.17c0,36.39 -8.82,63.13 -26.46,80.21 -17.64,17.08 -43.96,25.63 -78.96,25.63zm-5.83 -90.42c-20.56,0 -38.96,-4.51 -55.2,-13.54 -16.25,-9.03 -29.17,-21.53 -38.75,-37.5 -9.58,-15.97 -14.37,-34.24 -14.37,-54.79 0,-20.83 4.79,-39.17 14.37,-55 9.58,-15.83 22.5,-28.2 38.75,-37.09 16.25,-8.89 34.65,-13.33 55.2,-13.33 19.72,0 37.43,4.24 53.13,12.71 15.69,8.47 28.13,20.56 37.29,36.25 9.17,15.7 13.75,34.52 13.75,56.46 0,21.67 -4.59,40.41 -13.75,56.25 -9.17,15.83 -21.6,28.06 -37.29,36.67 -15.69,8.61 -33.4,12.92 -53.13,12.92zm1.67 -18.75c17.5,0 32.92,-3.68 46.25,-11.04 13.33,-7.36 23.82,-17.64 31.46,-30.83 7.64,-13.19 11.46,-28.26 11.46,-45.2 0,-17.22 -3.82,-32.36 -11.46,-45.42 -7.64,-13.06 -18.13,-23.2 -31.46,-30.42 -13.33,-7.22 -28.75,-10.83 -46.25,-10.83 -16.94,0 -32.15,3.61 -45.63,10.83 -13.47,7.22 -24.03,17.36 -31.67,30.42 -7.64,13.06 -11.46,28.19 -11.46,45.42 0,16.94 3.82,32.01 11.46,45.2 7.64,13.2 18.19,23.47 31.67,30.83 13.47,7.36 28.68,11.04 45.63,11.04z"/>
  <path id="_20" class="fil0 str0" d="M7726.74 3672.62c-10,0 -19.37,-1.67 -28.12,-5 -8.75,-3.33 -16.18,-8.19 -22.29,-14.58l10.41 -15.83c5.56,5.83 11.6,10.14 18.13,12.92 6.53,2.78 13.96,4.17 22.29,4.17 10,0 18.82,-2.78 26.46,-8.33 7.64,-5.56 14.79,-15.7 21.46,-30.42l15 -33.33 2.92 -3.75 92.08 -205.83 21.25 0 -111.67 247.08c-5.83,13.33 -12.15,23.82 -18.96,31.46 -6.81,7.64 -14.24,13.12 -22.29,16.46 -8.06,3.33 -16.94,5 -26.67,5zm62.92 -77.08l-100.83 -222.92 22.09 0 91.67 204.58 -12.92 18.33z"/>
  <path id="_21" class="fil0 str0" d="M8115.12 3590.12l0 -49.58 -0.83 -7.5 0 -81.67c0,-20.28 -5.49,-35.7 -16.46,-46.25 -10.97,-10.56 -27.01,-15.83 -48.12,-15.83 -15,0 -28.96,2.57 -41.88,7.71 -12.91,5.14 -23.96,11.74 -33.12,19.79l-10.42 -15c10.83,-9.72 23.89,-17.29 39.17,-22.7 15.28,-5.42 31.25,-8.13 47.92,-8.13 26.94,0 47.64,6.8 62.08,20.42 14.44,13.61 21.67,33.89 21.67,60.83l0 137.92 -20 0zm-78.33 1.67c-16.11,0 -30.07,-2.57 -41.87,-7.71 -11.81,-5.14 -20.83,-12.43 -27.09,-21.87 -6.25,-9.44 -9.37,-20.28 -9.37,-32.5 0,-11.11 2.57,-21.18 7.71,-30.21 5.14,-9.03 13.68,-16.39 25.63,-22.08 11.94,-5.69 27.92,-8.54 47.92,-8.54l80 0 0 16.25 -79.59 0c-22.5,0 -38.26,4.17 -47.29,12.5 -9.03,8.33 -13.54,18.75 -13.54,31.25 0,13.89 5.28,25 15.83,33.33 10.56,8.33 25.42,12.5 44.59,12.5 18.33,0 33.82,-4.17 46.46,-12.5 12.64,-8.33 22.01,-20.42 28.13,-36.25l5.83 14.17c-5.83,15.83 -15.76,28.4 -29.79,37.71 -14.03,9.31 -31.87,13.96 -53.54,13.96z"/>
  <path id="_22" class="fil0 str0" d="M8269.75 3530.12l0.42 -26.25 143.75 -131.25 26.67 0 -95.41 89.58 -12.5 10.42 -62.92 57.5zm-15.83 60l0 -309.17 20.83 0 0 309.17 -20.83 0zm170 0l-95 -119.17 14.17 -15.42 106.67 134.58 -25.83 0z"/>
  <path id="_23" class="fil0 str0" d="M8664.8 3590.12l0 -49.58 -0.83 -7.5 0 -81.67c0,-20.28 -5.49,-35.7 -16.46,-46.25 -10.97,-10.56 -27.01,-15.83 -48.12,-15.83 -15,0 -28.96,2.57 -41.88,7.71 -12.91,5.14 -23.96,11.74 -33.12,19.79l-10.42 -15c10.83,-9.72 23.89,-17.29 39.17,-22.7 15.28,-5.42 31.25,-8.13 47.92,-8.13 26.94,0 47.64,6.8 62.08,20.42 14.44,13.61 21.67,33.89 21.67,60.83l0 137.92 -20 0zm-78.33 1.67c-16.11,0 -30.07,-2.57 -41.87,-7.71 -11.81,-5.14 -20.83,-12.43 -27.09,-21.87 -6.25,-9.44 -9.37,-20.28 -9.37,-32.5 0,-11.11 2.57,-21.18 7.71,-30.21 5.14,-9.03 13.68,-16.39 25.63,-22.08 11.94,-5.69 27.92,-8.54 47.92,-8.54l80 0 0 16.25 -79.59 0c-22.5,0 -38.26,4.17 -47.29,12.5 -9.03,8.33 -13.54,18.75 -13.54,31.25 0,13.89 5.28,25 15.83,33.33 10.56,8.33 25.42,12.5 44.59,12.5 18.33,0 33.82,-4.17 46.46,-12.5 12.64,-8.33 22.01,-20.42 28.13,-36.25l5.83 14.17c-5.83,15.83 -15.76,28.4 -29.79,37.71 -14.03,9.31 -31.87,13.96 -53.54,13.96z"/>
  <path id="_24" class="fil0 str0" d="M8803.59 3590.12l0 -217.5 20 0 0 59.58 -2.08 -6.67c6.11,-17.5 16.39,-30.97 30.83,-40.42 14.44,-9.44 32.5,-14.17 54.17,-14.17l0 20.42c-0.83,0 -1.67,-0.07 -2.5,-0.21 -0.83,-0.14 -1.67,-0.21 -2.5,-0.21 -24.17,0 -43.06,7.57 -56.67,22.71 -13.61,15.14 -20.42,36.18 -20.42,63.12l0 113.33 -20.83 0z"/>
  <path id="_25" class="fil0 str0" d="M9070.31 3591.79c-19.17,0 -33.82,-5.28 -43.96,-15.83 -10.14,-10.56 -15.21,-25 -15.21,-43.33l0 -207.5 20.83 0 0 205.42c0,13.89 3.47,24.58 10.42,32.08 6.94,7.5 16.94,11.25 30,11.25 13.61,0 24.86,-4.03 33.75,-12.09l8.75 14.59c-5.56,5.28 -12.29,9.17 -20.21,11.67 -7.92,2.5 -16.04,3.75 -24.37,3.75zm-99.17 -201.25l0 -17.92 130 0 0 17.92 -130 0z"/>
  <path id="_26" class="fil0 str0" d="M9342.86 3590.12l0 -49.58 -0.83 -7.5 0 -81.67c0,-20.28 -5.49,-35.7 -16.46,-46.25 -10.97,-10.56 -27.01,-15.83 -48.12,-15.83 -15,0 -28.96,2.57 -41.88,7.71 -12.91,5.14 -23.96,11.74 -33.12,19.79l-10.42 -15c10.83,-9.72 23.89,-17.29 39.17,-22.7 15.28,-5.42 31.25,-8.13 47.92,-8.13 26.94,0 47.64,6.8 62.08,20.42 14.44,13.61 21.67,33.89 21.67,60.83l0 137.92 -20 0zm-78.33 1.67c-16.11,0 -30.07,-2.57 -41.87,-7.71 -11.81,-5.14 -20.83,-12.43 -27.09,-21.87 -6.25,-9.44 -9.37,-20.28 -9.37,-32.5 0,-11.11 2.57,-21.18 7.71,-30.21 5.14,-9.03 13.68,-16.39 25.63,-22.08 11.94,-5.69 27.92,-8.54 47.92,-8.54l80 0 0 16.25 -79.59 0c-22.5,0 -38.26,4.17 -47.29,12.5 -9.03,8.33 -13.54,18.75 -13.54,31.25 0,13.89 5.28,25 15.83,33.33 10.56,8.33 25.42,12.5 44.59,12.5 18.33,0 33.82,-4.17 46.46,-12.5 12.64,-8.33 22.01,-20.42 28.13,-36.25l5.83 14.17c-5.83,15.83 -15.76,28.4 -29.79,37.71 -14.03,9.31 -31.87,13.96 -53.54,13.96z"/>
  <g id="UNY_x0020__x0028_Universitas_x0020_Negeri_x0020_Yogyakarta_x0029__x0020_Logo_x0020__x0028_CDR2020_x0029__x0020_-_x0020_Vector69Com.cdr">
   <path class="fil1" d="M13403.52 1020.94c188.3,-13.35 417.62,119.8 580.8,458.59 141.89,294.6 240.53,504.78 407.7,585.09 5.45,-1.81 6.67,1.87 1.23,3.7 -85.44,164.61 -38.1,391.91 25.35,712.68 73.36,370.89 -31.55,615.73 -191.58,717.14l-0.19 0.36c66.74,176.29 5.51,433.83 -270.81,687.77 -240.77,221.25 -413.3,376.61 -441.67,559.89 3.31,4.68 0.15,6.93 -3.18,2.25 -182.31,-34.02 -386.1,77.22 -674.68,231 -332.63,177.24 -596.77,148.59 -740.54,25.82 -143.78,122.77 -407.91,151.43 -740.54,-25.81 -288.58,-153.78 -492.36,-265.02 -674.68,-231 -3.33,4.69 -6.5,2.43 -3.18,-2.25 -28.37,-183.29 -200.9,-338.65 -441.67,-559.9 -276.87,-254.43 -337.79,-512.51 -270.41,-688.83 -159.41,-101.83 -263.68,-346.39 -190.49,-716.43 63.46,-320.78 110.8,-548.07 25.36,-712.68 -5.44,-1.82 -4.22,-5.51 1.23,-3.7 167.18,-80.31 265.81,-290.49 407.7,-585.09 164.06,-340.62 394.98,-473.41 583.84,-458.39l0.2 -0.09c46.48,-183.17 245.43,-359.08 619.1,-406.72 324.37,-41.35 554.96,-68.38 684.06,-201.53 0,-5.75 3.89,-5.75 3.89,0 129.1,133.15 359.7,160.18 684.06,201.53 373.59,47.63 572.53,223.47 619.07,406.6zm-38.29 50.86c182.77,-12.97 405.38,116.29 563.78,445.15 137.74,285.97 233.48,489.99 395.76,567.95 5.29,-1.76 6.48,1.82 1.19,3.59 -82.94,159.79 -36.98,380.42 24.61,691.79 71.21,360.02 -30.62,597.69 -185.96,696.13l-0.19 0.34c64.78,171.13 5.35,421.13 -262.87,667.61 -233.72,214.77 -401.2,365.58 -428.72,543.49 3.22,4.55 0.14,6.74 -3.09,2.19 -176.98,-33.02 -374.79,74.96 -654.91,224.23 -322.88,172.05 -579.28,144.24 -718.83,25.06 -139.56,119.17 -395.95,146.99 -718.83,-25.06 -280.12,-149.27 -477.93,-257.26 -654.91,-224.23 -3.23,4.55 -6.31,2.36 -3.09,-2.19 -27.54,-177.91 -195.01,-328.72 -428.73,-543.5 -268.76,-246.97 -327.89,-497.49 -262.48,-668.64 -154.74,-98.84 -255.95,-336.24 -184.91,-695.44 61.59,-311.38 107.56,-532.01 24.61,-691.8 -5.28,-1.76 -4.09,-5.35 1.2,-3.59 162.28,-77.96 258.02,-281.98 395.76,-567.95 159.26,-330.63 383.41,-459.53 566.73,-444.96l0.19 -0.08c45.12,-177.81 238.24,-348.56 600.96,-394.8 314.86,-40.13 538.7,-66.37 664.02,-195.63 0,-5.57 3.78,-5.57 3.78,0 125.31,129.26 349.15,155.5 664.02,195.63 362.64,46.24 555.75,216.92 600.93,394.69z"/>
   <path class="fil2" d="M13365.23 1071.81c182.77,-12.97 405.38,116.29 563.78,445.15 137.74,285.97 233.48,489.99 395.76,567.95 5.29,-1.76 6.48,1.82 1.19,3.59 -82.94,159.79 -36.98,380.42 24.61,691.79 71.21,360.02 -30.62,597.69 -185.96,696.13l-0.19 0.34c64.78,171.13 5.35,421.13 -262.87,667.61 -233.72,214.77 -401.2,365.58 -428.72,543.49 3.22,4.55 0.14,6.74 -3.09,2.19 -176.98,-33.02 -374.79,74.96 -654.91,224.23 -322.88,172.05 -579.28,144.24 -718.83,25.06 -139.56,119.17 -395.95,146.99 -718.83,-25.06 -280.12,-149.27 -477.93,-257.26 -654.91,-224.23 -3.23,4.55 -6.31,2.36 -3.09,-2.19 -27.54,-177.91 -195.01,-328.72 -428.73,-543.5 -268.76,-246.97 -327.89,-497.49 -262.48,-668.64 -154.74,-98.84 -255.95,-336.24 -184.91,-695.44 61.59,-311.38 107.56,-532.01 24.61,-691.8 -5.28,-1.76 -4.09,-5.35 1.2,-3.59 162.28,-77.96 258.02,-281.98 395.76,-567.95 159.26,-330.63 383.41,-459.53 566.73,-444.96l0.19 -0.08c45.12,-177.81 238.24,-348.56 600.96,-394.8 314.86,-40.13 538.7,-66.37 664.02,-195.63 0,-5.57 3.78,-5.57 3.78,0 125.31,129.26 349.15,155.5 664.02,195.63 362.64,46.24 555.75,216.92 600.93,394.69zm-55.71 74c174.75,-12.4 387.57,111.18 539.02,425.6 131.69,273.41 223.22,468.47 378.37,543 5.06,-1.69 6.2,1.74 1.15,3.43 -79.3,152.77 -35.36,363.71 23.53,661.41 68.08,344.21 -29.28,571.44 -177.8,665.56l-0.18 0.32c61.94,163.61 5.12,402.63 -251.33,638.3 -223.45,205.33 -383.57,349.52 -409.89,519.62 3.08,4.35 0.13,6.44 -2.95,2.09 -169.2,-31.57 -358.33,71.67 -626.15,214.38 -308.7,164.49 -553.83,137.9 -687.26,23.96 -133.43,113.93 -378.56,140.54 -687.26,-23.96 -267.82,-142.72 -456.94,-245.96 -626.15,-214.39 -3.08,4.35 -6.03,2.26 -2.95,-2.09 -26.33,-170.1 -186.44,-314.28 -409.9,-519.63 -256.95,-236.13 -313.49,-475.64 -250.95,-639.28 -147.94,-94.5 -244.71,-321.47 -176.79,-664.89 58.89,-297.7 102.83,-508.65 23.53,-661.41 -5.06,-1.69 -3.91,-5.11 1.14,-3.43 155.15,-74.53 246.69,-269.59 378.37,-543 152.26,-316.11 366.57,-439.35 541.84,-425.41l0.18 -0.08c43.14,-170 227.78,-333.25 574.57,-377.46 301.04,-38.37 515.04,-63.46 634.85,-187.04 0,-5.33 3.61,-5.33 3.61,0 119.81,123.58 333.82,148.67 634.85,187.04 346.71,44.2 531.35,207.39 574.54,377.35z"/>
   <path class="fil1" d="M13309.52 1145.81c174.75,-12.4 387.57,111.18 539.02,425.6 131.69,273.41 223.22,468.47 378.37,543 5.06,-1.69 6.2,1.74 1.15,3.43 -79.3,152.77 -35.36,363.71 23.53,661.41 68.08,344.21 -29.28,571.44 -177.8,665.56l-0.18 0.32c61.94,163.61 5.12,402.63 -251.33,638.3 -223.45,205.33 -383.57,349.52 -409.89,519.62 3.08,4.35 0.13,6.44 -2.95,2.09 -169.2,-31.57 -358.33,71.67 -626.15,214.38 -308.7,164.49 -553.83,137.9 -687.26,23.96 -133.43,113.93 -378.56,140.54 -687.26,-23.96 -267.82,-142.72 -456.94,-245.96 -626.15,-214.39 -3.08,4.35 -6.03,2.26 -2.95,-2.09 -26.33,-170.1 -186.44,-314.28 -409.9,-519.63 -256.95,-236.13 -313.49,-475.64 -250.95,-639.28 -147.94,-94.5 -244.71,-321.47 -176.79,-664.89 58.89,-297.7 102.83,-508.65 23.53,-661.41 -5.06,-1.69 -3.91,-5.11 1.14,-3.43 155.15,-74.53 246.69,-269.59 378.37,-543 152.26,-316.11 366.57,-439.35 541.84,-425.41l0.18 -0.08c43.14,-170 227.78,-333.25 574.57,-377.46 301.04,-38.37 515.04,-63.46 634.85,-187.04 0,-5.33 3.61,-5.33 3.61,0 119.81,123.58 333.82,148.67 634.85,187.04 346.71,44.2 531.35,207.39 574.54,377.35z"/>
   <path class="fil3" d="M12096.81 3947.39l-4.05 0.22c-278.16,-15.03 -576.91,-25.55 -820.63,-177.87 -238.31,-178.74 -350.26,-269.06 -468.92,-553.81 115.03,69.01 174.15,91.8 307.22,105.1l-8.08 -20.21c-159.12,-159 -331.48,-46.85 -331.48,-420.41l0 -52.56 12.12 24.26 8.09 24.26 12.13 24.25c62.18,103.61 219.6,113.3 323.4,194.04l0 -12.13 0 -12.13 0 -8.08 -4.04 -12.13 -8.09 -16.16 -12.12 -16.17 -8.09 -8.09c-216.37,-144.25 -369.87,-174.66 -287.01,-533.6l16.16 -52.56 16.17 60.64 12.13 24.26c46.92,140.8 243.01,241.51 367.87,307.22l-4.05 -20.21 -8.08 -16.16c-42.47,-127.49 -623.85,-346.9 -145.52,-772.11 -115.68,385.46 118.98,411.21 335.52,671.04 60.22,-180.63 -396.94,-215.42 -266.81,-671.04 110.35,-257.37 296.1,-342.74 553.82,-416.37l88.94 -24.26 -60.64 28.3 -56.59 28.3c-140.8,93.88 -250.63,276.76 -250.63,448.71l0 20.21 4.04 44.48 0 24.25c45.48,227 208.6,246.76 299.15,472.97l4.04 44.46 0 24.26c-14.85,74.31 -59.16,105.82 -137.44,129.35 -131.8,39.63 6.09,155.69 20.21,198.08l4.04 12.13 0 16.17 -4.04 16.17 -8.09 20.21c-53.81,107.68 -246.58,281.37 -246.58,396.16l4.04 20.21 4.04 20.21c42.23,253.47 554.42,296.4 747.87,311.27 193.44,-14.87 705.63,-57.8 747.86,-311.27l4.04 -20.21 4.04 -20.21c0,-114.78 -192.77,-288.48 -246.59,-396.16l-8.09 -20.21 -4.04 -16.17 0 -16.17 4.04 -12.13c15.65,-46.96 144.26,-161.78 20.21,-198.08 -78.45,-22.96 -122.59,-55.04 -137.44,-129.35l0 -24.26 4.04 -44.46c90.54,-226.21 253.67,-245.96 299.15,-472.97l0 -24.25 4.04 -44.48 0 -20.21c0,-171.96 -109.83,-354.83 -250.63,-448.71l-56.59 -28.3 -60.64 -28.3 88.94 24.26c257.72,73.63 443.46,159 553.81,416.37 130.13,455.62 -327.02,490.41 -266.81,671.04 216.54,-259.83 451.2,-285.59 335.52,-671.04 478.33,425.21 -103.06,644.62 -145.52,772.11l-8.08 16.16 -4.05 20.21c124.85,-65.71 320.95,-166.43 367.87,-307.22l12.13 -24.26 16.17 -60.64 16.17 52.56c82.86,358.94 -70.63,389.35 -287.01,533.6l-8.09 8.09 -12.12 16.17 -8.09 16.16 -4.04 12.13 0 8.08 0 12.13 0 12.13c103.8,-80.74 261.22,-90.43 323.4,-194.04l12.12 -24.25 8.09 -24.26 12.12 -24.26 0 52.56c0,373.57 -172.36,261.41 -331.48,420.41l-8.08 20.21c133.07,-13.3 192.2,-36.09 307.23,-105.1 -118.66,284.75 -230.62,375.07 -468.93,553.81 -243.72,152.32 -542.46,162.84 -820.62,177.87l-4.05 -0.22z"/>
   <path class="fil4" d="M12096.81 3785.92c-53.23,-29.57 -95.88,-60.19 -153.61,-80.85 -120.54,-43.15 -247.28,-56.45 -363.83,-109.15 -103.57,-46.82 -71.81,-94.27 -40.42,-173.83 40.26,-102.01 154.94,-249.46 210.21,-359.77 47.04,-93.91 52.34,-140.3 16.17,-242.54 -2.84,-8.02 -20.99,-15.94 -24.26,-8.09 -6.73,16.16 -4.58,40.63 -20.22,48.52 -18.6,9.39 -52.51,-6.83 -80.85,0 -125.77,30.33 21.95,114.35 40.42,169.78 12.24,24.46 -230.75,352.33 -262.76,404.25 -30.61,49.64 -27.42,103.22 12.13,149.57 104.35,122.28 457.81,227.68 667,230.36 209.2,-2.68 562.65,-108.08 667,-230.36 39.56,-46.35 42.74,-99.94 12.13,-149.57 -32,-51.93 -275,-379.79 -262.76,-404.25 18.47,-55.42 166.19,-139.45 40.42,-169.78 -28.33,-6.83 -62.25,9.39 -80.85,0 -15.64,-7.89 -13.48,-32.35 -20.22,-48.52 -3.26,-7.84 -21.41,0.08 -24.25,8.09 -36.17,102.24 -30.87,148.64 16.17,242.54 55.27,110.31 169.95,257.76 210.21,359.77 31.39,79.56 63.15,127.01 -40.42,173.83 -116.56,52.7 -243.29,66 -363.83,109.15 -57.73,20.66 -100.38,51.27 -153.61,80.85z"/>
   <path class="fil5" d="M11957.34 4351.87c0,-88.31 -18.4,-235.52 4.04,-315.31 13.66,-48.58 44.45,-65.62 88.94,-64.68 80.08,1.69 138.97,25.27 153.61,113.18l0 40.43c29.63,-23.58 18.86,-22.91 56.59,-32.33 72.63,0 105.43,41.72 80.85,97.02 -5.39,12.13 -10.78,24.26 -16.17,36.38 -13.46,30.3 -5.5,89.72 28.29,92.97 79.28,7.61 38.05,-161.99 36.38,-210.2l44.48 -8.09c3.24,58.38 25.09,363.43 -72.77,412.33 -21.74,14.5 -31.72,18.03 -56.59,24.26 -181.78,20.19 -422.46,-141.35 -505.31,24.25 -22.91,57.29 -10.48,81.67 44.47,109.14 80,32.04 208.74,35.06 295.1,24.26 119.58,-34.19 145.35,-73.56 222.33,-165.75 17.46,-20.91 58.2,-40.1 84.89,-40.42 57.26,-0.68 76.81,26.82 76.81,76.81 -34.63,-52 -49.67,-36.19 -76.81,0 -37.51,50.04 -110.4,138.48 -165.74,165.74 -86.06,42.39 -148.65,49.48 -242.56,44.48 -107.94,-5.75 -173.37,-13.18 -266.8,-68.73 -63.5,-37.76 -80.06,-94.96 -68.73,-161.7 24.78,-145.92 157.38,-181.46 287.02,-157.65 81.72,15.01 266.96,100.07 307.23,92.98 56.95,-10.02 84.89,-58.07 84.89,-117.24 -28.14,9.37 -36.33,22.53 -68.72,16.16 -49.21,-9.68 -75.36,-30.23 -84.89,-76.8 -12.31,-60.12 4.05,-121.54 4.05,-181.92l-28.3 12.13 0 218.3 -97.02 8.08c0,-90.28 0,-180.56 0,-270.84 0,-45.07 -17.61,-58.04 -52.56,-56.59 -29.81,1.23 -39.32,28.51 -40.43,52.54 -3.62,78.52 39.62,266.81 -56.59,266.81zm-145.52 28.29c-90.18,0 -141.48,-50.05 -141.48,-125.31l0 -149.57 105.1 0c0,56.6 0,113.19 0,169.79 0,54.48 76.81,84.46 76.81,28.3l0 -202.13 92.98 -4.04 4.04 165.74c-15.09,75.55 -50.57,99.56 -121.27,117.23l-16.17 0z"/>
   <polygon class="fil6" points="11288.31,1481.72 11150.87,1223 11203.43,1194.7 11397.47,1311.93 11308.53,1142.15 11357.04,1113.85 11494.49,1372.58 11441.93,1400.87 11251.93,1287.68 11340.87,1457.46 "/>
   <polygon class="fil6" points="11571.3,1348.31 11486.4,1069.39 11692.57,1004.71 11704.7,1053.22 11555.12,1097.68 11575.33,1162.37 11716.82,1117.9 11728.95,1166.41 11591.51,1206.83 11611.72,1283.64 11769.37,1235.13 11785.55,1283.64 "/>
   <polygon class="fil6" points="11979.58,1154.28 11975.54,1105.77 12104.9,1097.68 12112.99,1214.91 12100.86,1223 12088.72,1231.08 12076.6,1239.17 12060.43,1247.26 12024.05,1263.43 11987.67,1267.47 11967.45,1267.47 11947.24,1267.47 11927.03,1259.39 11906.82,1255.35 11890.65,1243.22 11878.52,1231.08 11862.35,1218.96 11854.26,1202.79 11846.18,1186.62 11838.09,1166.41 11834.05,1146.2 11830.01,1125.98 11830.01,1105.77 11834.05,1081.52 11838.09,1061.31 11846.18,1045.13 11854.26,1024.92 11866.39,1012.79 11878.52,996.62 11898.74,984.5 11910.86,980.45 11927.03,972.37 11947.24,968.33 11967.45,968.33 11991.7,964.29 12015.97,968.33 12024.05,972.37 12036.18,976.41 12044.26,980.45 12052.34,984.5 12068.51,996.62 12080.65,1008.75 12088.72,1024.92 12096.81,1045.13 12040.22,1057.26 12028.09,1041.09 12020.01,1033 12011.92,1024.92 12003.84,1020.88 11991.7,1016.83 11983.63,1016.83 11971.49,1016.83 11959.37,1016.83 11951.28,1020.88 11943.2,1020.88 11935.11,1024.92 11927.03,1028.96 11918.95,1033 11910.86,1045.13 11902.78,1053.22 11898.74,1061.31 11894.69,1069.39 11894.69,1077.47 11890.65,1097.68 11890.65,1117.9 11894.69,1142.15 11898.74,1154.28 11898.74,1166.41 11906.82,1182.58 11918.95,1194.7 11931.07,1206.83 11947.24,1214.91 11963.41,1214.91 11983.63,1218.96 11999.8,1214.91 12020.01,1206.83 12036.18,1198.75 12048.3,1186.62 12048.3,1150.24 "/>
   <polygon class="fil6" points="12189.79,1259.39 12230.22,968.33 12444.46,996.62 12440.42,1045.13 12282.76,1024.92 12274.69,1089.6 12420.21,1109.81 12412.13,1158.33 12266.59,1138.11 12254.47,1218.96 12416.17,1239.17 12412.13,1287.68 "/>
   <path class="fil6" d="M12476.8 1299.81l97.02 -274.89 117.23 40.43 36.38 12.12 24.25 16.17 8.09 8.09 8.08 8.08 4.04 8.09 4.04 12.12 0 12.13 0 12.12 0 12.13 -4.04 12.13 -8.08 16.16 -8.09 12.13 -8.08 8.08 -12.13 8.09 -12.12 8.08 -16.17 0 -16.17 4.05 -16.17 -4.05 12.13 16.17 8.08 16.17 8.09 24.25 8.08 32.35 16.17 64.67 -68.72 -20.21 -16.16 -76.81 -12.13 -32.33 -4.04 -16.17 -8.09 -12.13 -8.08 -8.08 -8.08 -4.05 -16.17 -8.08 -12.13 -4.04 -40.43 117.23 -56.59 -20.21zm113.19 -137.44l40.42 12.12 32.34 12.13 16.17 0 12.13 0 8.09 -4.04 8.08 -8.09 4.04 -12.12 4.04 -12.13 0 -12.12 -4.04 -8.09 -4.04 -4.04 -4.04 -4.04 -8.09 -4.04 -40.43 -12.13 -40.42 -16.17 -24.25 72.77z"/>
   <polygon class="fil6" points="12759.78,1408.95 12889.13,1146.2 12941.69,1174.49 12812.33,1437.25 "/>
   <polygon class="fil6" points="13034.67,1578.74 13111.48,1485.76 13135.73,1283.64 13192.32,1328.1 13168.07,1461.51 13297.43,1413 13349.98,1457.46 13159.98,1522.14 13079.13,1615.12 "/>
   <path class="fil6" d="M13305.52 1619.16l16.16 -12.12 16.17 -12.13 16.17 -8.08 16.17 -4.05 24.25 -4.04 24.25 0 24.26 4.04 20.21 8.09 12.12 8.08 12.13 8.09 12.12 12.12 12.13 12.13 12.13 12.12 4.04 12.13 8.08 12.13 4.05 16.16 4.04 12.13 4.04 12.13 0 28.3 -8.08 28.3 -4.05 12.12 -8.08 12.13 -8.08 12.12 -12.13 12.13 -12.13 12.13 -12.12 12.12 -28.3 16.17 -12.12 8.09 -16.17 8.08 -12.13 4.04 -16.17 0 -12.12 4.04 -12.13 0 -16.17 -4.04 -12.12 -4.04 -12.13 -4.04 -12.13 -4.04 -12.12 -8.09 -12.13 -8.08 -20.21 -24.25 -4.04 -4.05 -8.09 -8.08 -8.08 -12.13 -4.04 -12.12 -4.04 -16.17 -4.05 -12.13 -4.04 -12.12 0 -28.3 4.04 -12.12 4.05 -12.13 4.04 -16.17 8.08 -12.13 20.21 -24.25 8.09 -8.08 16.17 -12.13zm36.37 44.46l-16.16 16.17 -12.13 16.17 -8.08 16.17 -4.05 16.17 -4.04 16.17 4.04 16.16 4.05 16.17 12.12 12.13 12.13 12.12 12.12 8.09 16.17 8.08 16.17 0 16.17 0 16.17 -4.04 20.21 -12.13 8.08 -4.04 12.13 -8.08 16.17 -16.17 12.12 -16.17 12.13 -16.17 4.04 -16.16 0 -16.17 -4.04 -16.17 -4.04 -12.13 -12.13 -16.17 -12.13 -12.12 -12.12 -8.09 -16.17 -8.08 -16.17 0 -16.17 0 -16.17 4.04 -20.21 12.13 -8.08 4.04 -12.13 8.08z"/>
   <polygon class="fil6" points="13564.23,2055.75 13608.69,2035.53 13661.25,2148.72 13556.14,2201.28 13544.02,2193.2 13531.89,2185.11 13503.59,2164.89 13491.46,2152.76 13479.33,2136.6 13459.12,2108.3 13451.04,2088.09 13447,2067.87 13442.96,2047.66 13442.96,2027.45 13447,2007.24 13451.04,1991.07 13459.12,1974.9 13471.25,1958.73 13483.38,1942.56 13499.54,1930.43 13515.72,1918.3 13531.89,1910.22 13552.1,1898.09 13572.31,1894.05 13596.56,1890.01 13616.78,1890.01 13632.95,1894.05 13653.16,1898.09 13673.37,1906.18 13689.54,1918.3 13701.67,1926.39 13713.8,1938.52 13721.89,1954.69 13734.01,1974.9 13742.1,1999.16 13750.18,2019.37 13750.18,2039.58 13750.18,2051.7 13750.18,2059.8 13746.14,2080 13738.06,2096.18 13725.93,2108.3 13717.85,2116.39 13709.76,2124.47 13673.37,2075.96 13681.46,2067.87 13689.54,2059.8 13693.58,2047.66 13693.58,2039.58 13693.58,2019.37 13693.58,2007.24 13685.5,1995.11 13677.42,1978.94 13665.29,1966.81 13653.16,1958.73 13637,1950.64 13620.83,1946.6 13600.61,1946.6 13592.52,1950.64 13584.44,1954.69 13560.19,1962.78 13539.98,1974.9 13523.81,1987.03 13511.67,1999.16 13503.59,2015.32 13495.5,2031.49 13495.5,2047.66 13499.54,2063.83 13503.59,2084.05 13515.72,2096.18 13527.85,2112.34 13544.02,2124.47 13556.14,2132.55 13592.52,2116.39 "/>
   <polygon class="fil6" points="13564.23,2358.93 13685.5,2326.59 13822.94,2181.07 13839.12,2245.74 13746.14,2342.76 13875.5,2375.11 13891.67,2443.82 13701.67,2383.19 13580.4,2415.53 "/>
   <path class="fil6" d="M13632.95 2799.57l-4.04 -60.65 64.68 -32.33 -12.12 -113.19 -68.72 -20.21 -4.04 -60.64 303.19 84.89 4.04 64.69 -282.98 137.44zm105.11 -113.19l105.1 -52.56 -109.15 -28.29 4.05 80.85z"/>
   <polygon class="fil6" points="13624.87,2852.11 13919.96,2888.5 13911.89,2945.09 13786.56,2928.92 13895.71,3062.32 13887.62,3139.13 13786.56,3017.86 13592.52,3110.83 13604.65,3034.03 13750.18,2973.38 13705.71,2920.84 13616.78,2908.71 "/>
   <path class="fil6" d="M13495.5 3405.93l24.26 -56.59 68.72 -4.04 40.42 -109.15 -56.59 -44.46 20.21 -60.64 242.55 202.12 -20.21 60.63 -319.36 12.13zm145.54 -60.63l117.23 -4.05 -88.94 -72.76 -28.29 76.81z"/>
   <path class="fil6" d="M13471.25 3450.4l254.67 153.62 -64.68 105.1 -24.25 32.34 -8.09 12.12 -8.08 8.09c-65.74,43.81 -144.19,-13.42 -125.32,-88.94l4.04 -16.17c-61.08,24.46 -93.32,20.21 -161.7,20.21l36.39 -60.63c41.06,-2.17 102.85,0.76 141.48,-12.12l8.09 -4.04 8.08 -8.09 8.09 -16.17 8.08 -8.08 -105.1 -64.68 28.3 -52.56zm117.23 137.44l-24.26 40.43 -16.17 28.29 -8.08 16.17 0 12.13 4.04 8.08c9.75,19.52 42.61,36.15 56.59,16.17l28.29 -40.43 24.25 -40.42 -64.67 -40.43z"/>
   <polygon class="fil6" points="13261.04,3757.63 13442.96,3923.37 13503.59,3858.69 13539.98,3891.02 13382.31,4064.85 13345.94,4028.46 13406.57,3967.83 13224.66,3802.09 "/>
   <path class="fil6" d="M12937.65 4056.77l48.5 -36.38 60.64 36.38 92.98 -76.81 -24.25 -64.68 48.5 -40.42 97.02 299.14 -48.5 40.43 -274.89 -157.66zm157.65 24.25l97.02 60.64 -36.38 -109.14 -60.64 48.5z"/>
   <polygon class="fil6" points="11013.43,4246.77 10968.96,4206.34 11074.07,4085.06 11102.37,4044.64 11106.41,4028.46 11110.45,4020.39 11106.41,4012.3 11106.41,4004.21 11098.33,3996.13 11086.2,3979.96 11065.98,3967.83 11057.91,3963.79 11049.81,3963.79 11033.64,3963.79 11021.52,3971.88 11005.35,3988.04 10985.14,4008.26 10880.03,4133.57 10835.56,4097.19 10936.62,3979.96 10964.93,3943.58 10985.14,3923.37 11005.35,3911.24 11013.43,3911.24 11025.56,3907.19 11045.77,3907.19 11065.98,3911.24 11078.11,3915.28 11090.24,3923.37 11114.49,3939.54 11130.66,3951.67 11142.79,3963.79 11158.96,3988.04 11167.04,4008.26 11167.04,4020.39 11167.04,4028.46 11167.04,4048.69 11163,4056.77 11158.96,4064.85 11150.87,4076.98 11142.79,4093.15 11114.49,4125.48 "/>
   <polygon class="fil6" points="10973,3814.22 10742.58,3996.13 10706.21,3951.67 10783.01,3741.46 10629.4,3862.73 10597.06,3818.26 10823.44,3632.31 10863.87,3680.82 10787.06,3891.02 10936.62,3769.75 "/>
   <polygon class="fil6" points="10787.06,3567.63 10536.42,3721.24 10504.08,3668.69 10758.76,3519.12 "/>
   <polygon class="fil6" points="10698.12,3393.8 10463.66,3595.93 10439.4,3539.33 10613.23,3393.8 10382.81,3405.93 10358.56,3349.34 10673.87,3337.21 "/>
   <polygon class="fil6" points="10621.31,3191.69 10334.3,3252.32 10285.79,3042.11 10338.34,3034.03 10370.68,3187.63 10431.31,3171.47 10403.02,3029.98 10451.52,3021.9 10479.83,3163.38 10560.68,3147.21 10524.29,2985.52 10572.81,2977.43 "/>
   <path class="fil6" d="M10568.76 2912.75l-295.1 4.05 0 -121.28 0 -40.43 4.05 -28.29 4.04 -12.13 8.08 -8.08 8.09 -8.09 8.08 -8.08 12.13 -4.04 8.08 -4.04 28.3 -4.05 12.12 0 16.17 4.05 8.08 4.04 4.05 0 12.12 8.08 12.13 12.13 8.08 12.12 4.04 16.17 4.05 16.17 12.12 -16.17 12.13 -16.17 20.21 -12.12 28.3 -20.21 56.59 -36.38 0 68.72 -64.68 44.47 -24.25 20.21 -16.17 12.12 -8.09 8.09 -4.04 8.08 -4.04 12.13 0 20.21 0 12.12 125.31 -4.04 0 60.64zm-169.78 -56.59l0 -44.46 -4.04 -32.33 -4.05 -20.21 -4.04 -8.09 -8.08 -8.08 -8.09 -4.05 -12.12 0 -16.17 0 -4.04 4.05 -4.05 4.04 -8.08 8.08 -4.04 12.13 0 44.46 0 44.46 76.81 0z"/>
   <polygon class="fil6" points="10475.79,2597.44 10479.83,2540.84 10496,2540.84 10508.12,2536.8 10516.21,2532.76 10524.29,2528.72 10532.38,2520.63 10540.46,2512.55 10544.5,2500.42 10548.54,2488.3 10548.54,2476.17 10548.54,2464.04 10548.54,2451.91 10544.5,2443.82 10540.46,2435.74 10532.38,2431.7 10528.33,2427.66 10520.25,2423.61 10508.12,2423.61 10500.04,2427.66 10496,2431.7 10491.96,2435.74 10483.87,2447.87 10463.66,2488.3 10451.52,2508.51 10443.44,2524.68 10431.31,2536.8 10423.23,2548.93 10407.06,2557.01 10390.89,2561.06 10374.73,2565.1 10366.64,2565.1 10358.56,2561.06 10346.43,2561.06 10338.34,2557.01 10318.13,2540.84 10314.08,2532.76 10306,2524.68 10301.96,2512.55 10297.92,2500.42 10293.87,2488.3 10293.87,2472.13 10297.92,2443.82 10306,2419.57 10310.04,2407.45 10314.08,2395.31 10326.21,2379.15 10338.34,2367.02 10346.43,2362.97 10354.52,2358.93 10370.68,2350.85 10390.89,2350.85 10411.1,2350.85 10403.02,2407.45 10390.89,2411.49 10382.81,2411.49 10374.73,2415.53 10366.64,2419.57 10358.56,2423.61 10354.52,2431.7 10350.46,2451.91 10346.43,2464.04 10346.43,2476.17 10350.46,2488.3 10350.46,2496.38 10358.56,2504.46 10366.64,2508.51 10378.77,2508.51 10386.85,2504.46 10394.94,2496.38 10398.98,2484.24 10415.15,2451.91 10435.36,2419.57 10439.4,2403.4 10447.48,2395.31 10455.57,2387.22 10463.66,2379.15 10475.79,2375.11 10483.87,2367.02 10496,2367.02 10508.12,2362.97 10520.25,2362.97 10532.38,2367.02 10544.5,2371.06 10556.63,2375.11 10576.85,2387.22 10584.93,2399.36 10588.98,2407.45 10597.06,2419.57 10601.1,2431.7 10601.1,2447.87 10601.1,2464.04 10601.1,2480.2 10597.06,2496.38 10593.02,2524.68 10580.89,2544.89 10568.76,2561.06 10556.63,2577.22 10540.46,2585.31 10520.25,2593.4 10500.04,2597.44 "/>
   <polygon class="fil6" points="10633.44,2326.59 10354.52,2237.66 10374.73,2181.07 10653.65,2270 "/>
   <polygon class="fil6" points="10702.16,2148.72 10479.83,2047.66 10443.44,2124.47 10398.98,2104.26 10496,1894.05 10540.46,1918.3 10504.08,1995.11 10726.42,2096.18 "/>
   <path class="fil6" d="M10940.67 1776.81l-40.43 48.52 -68.72 -20.21 -68.73 97.02 40.43 56.59 -36.37 52.55 -173.83 -262.76 40.42 -52.56 307.23 80.85zm-157.67 16.17l-113.18 -32.34 64.68 97.02 48.5 -64.68z"/>
   <polygon class="fil6" points="10896.2,1683.84 10936.62,1639.37 10944.71,1647.46 10956.83,1651.5 10968.96,1655.54 10981.09,1655.54 10989.18,1655.54 11001.31,1651.5 11009.39,1643.41 11021.52,1635.33 11025.56,1631.29 11029.6,1627.25 11037.68,1619.16 11041.73,1607.04 11041.73,1598.95 11041.73,1590.87 11041.73,1582.78 11037.68,1574.7 11033.64,1566.61 11025.56,1562.57 11017.47,1558.52 11009.39,1558.52 10993.22,1566.61 10952.8,1586.83 10932.58,1598.95 10912.37,1607.04 10896.2,1611.08 10884.07,1611.08 10867.91,1611.08 10851.73,1607.04 10835.56,1598.95 10823.44,1586.83 10815.35,1578.74 10811.31,1566.61 10803.22,1546.39 10803.22,1534.27 10803.22,1522.14 10807.27,1514.06 10811.31,1501.93 10815.35,1489.81 10823.44,1477.68 10847.69,1453.43 10855.78,1445.33 10863.87,1437.25 10884.07,1425.12 10904.29,1417.04 10924.5,1417.04 10932.58,1417.04 10940.67,1417.04 10960.89,1425.12 10968.96,1429.16 10977.05,1433.21 10993.22,1445.33 10948.75,1485.76 10940.67,1481.72 10932.58,1477.68 10916.41,1473.64 10908.33,1473.64 10896.2,1477.68 10888.12,1485.76 10880.03,1493.85 10863.87,1510.02 10859.81,1518.1 10855.78,1526.18 10859.81,1538.31 10863.87,1546.39 10867.91,1550.44 10871.94,1550.44 10875.99,1554.48 10880.03,1554.48 10892.16,1550.44 10904.29,1546.39 10936.62,1530.23 10968.96,1514.06 10997.26,1501.93 11017.47,1497.89 11041.73,1501.93 11061.94,1510.02 11070.02,1518.1 11078.11,1526.18 11086.2,1538.31 11094.28,1546.39 11098.33,1558.52 11102.37,1570.66 11102.37,1582.78 11102.37,1598.95 11098.33,1611.08 11094.28,1623.2 11078.11,1647.46 11070.02,1659.59 11053.85,1671.72 11045.77,1683.84 11033.64,1687.89 11013.43,1700.01 11005.35,1708.1 10993.22,1708.1 10977.05,1712.14 10956.83,1712.14 10936.62,1704.06 10916.41,1695.97 10908.33,1687.89 "/>
   <polyline class="fil7" points="12667.17,3466.57 12675.26,3486.78 12675.26,3507 12675.26,3523.17 12671.22,3531.25 12667.17,3543.38 12659.08,3555.5 12646.95,3571.67 12638.87,3579.76 12626.74,3583.8 12606.53,3595.93 12582.28,3604.02 12533.77,3624.22 12481.22,3636.35 12432.7,3648.48 12384.2,3660.61 12331.64,3676.77 12246.76,3709.11 12206.33,3725.29 12161.85,3741.46 12113.35,3765.71 12089.1,3773.79 12068.89,3785.92 "/>
   <polygon class="fil6" points="12072.93,2791.48 11794,2791.48 11773.79,2645.95 11818.25,2605.53 11915.27,2694.46 12028.46,2625.74 12076.97,2629.78 12129.52,2625.74 12246.76,2694.46 12339.73,2605.53 12384.2,2645.95 12368.03,2791.48 "/>
   <path class="fil6" d="M12068.89 2597.44l-60.64 4.04 -92.98 56.59 -24.25 -56.59 105.09 -667.01 -76.8 -72.75 20.21 -64.69 44.46 8.09 24.26 36.38 12.12 -36.38 52.56 -4.05 64.68 4.05 16.17 36.38 24.26 -36.38 40.42 -8.09 20.21 64.69 -76.81 72.75 109.15 667.01 -24.25 56.59 -92.98 -56.59 -84.88 -4.04zm9.7 -676.4l15.46 32.57 15.48 32.57 -15.48 32.57 -0.92 1.94 0 142.69 0.92 1.94 15.48 32.57 -15.48 32.57 -0.92 1.94 0 181.78 0.92 1.93 15.48 32.57 -15.48 32.57 -15.46 32.57 -15.47 -32.57 -15.48 -32.57 15.48 -32.57 5.77 -12.15 0 -161.35 -5.77 -12.15 -15.48 -32.57 15.48 -32.57 5.77 -12.15 0 -122.27 -5.77 -12.15 -15.48 -32.57 15.48 -32.57 15.47 -32.57z"/>
   <path class="fil6" d="M12085.06 3405.93l0 307.22 -28.3 0 0 -307.22c-58.28,-43.72 -47.93,-137.44 16.17,-137.44 62.68,0 71.64,97.59 12.13,137.44z"/>
   <path class="fil8" d="M12194.2 1776.81l-109.14 8.09 -28.3 -169.78 8.09 -32.34 40.43 117.23 72.76 12.13 16.17 64.67zm-145.53 -291.06l-80.85 287.02 88.93 16.17 -32.34 -101.06 24.26 -202.13zm24.25 -189.99l-16.17 153.61 64.68 230.43 56.59 16.17 -84.89 -242.54 -20.21 -157.66z"/>
   <path class="fil6" d="M12072.93 2823.82l-218.29 12.12 0 303.19 -12.13 0c-38.82,0 -61.67,34.24 -36.39,60.64 22.19,23.17 68.1,0.81 86.92,-24.26l373.93 0c20.22,20.21 67.3,49.56 88.93,16.18 11.53,-17.8 -2.74,-52.56 -36.37,-52.56l-16.17 0 0 -303.19 -230.42 -12.12zm-166.56 303.18l-3.23 -16.16 0 -242.56 169.79 0 181.91 0 0 242.56 0 16.16 -348.47 0z"/>
   <polygon class="fil9" points="12068.89,1970.85 12093.14,1970.85 12093.14,2476.17 12068.89,2476.17 "/>
   <polygon class="fil10" points="12078.59,1921.04 12094.06,1953.61 12109.53,1986.18 12094.06,2018.75 12078.59,2051.32 12063.12,2018.75 12047.64,1986.18 12063.12,1953.61 "/>
   <polygon class="fil10" points="12078.59,2132.74 12094.06,2165.31 12109.53,2197.89 12094.06,2230.46 12078.59,2263.02 12063.12,2230.46 12047.64,2197.89 12063.12,2165.31 "/>
   <polygon class="fil10" points="12078.59,2383.54 12094.06,2416.1 12109.53,2448.67 12094.06,2481.24 12078.59,2513.81 12063.12,2481.24 12047.64,2448.67 12063.12,2416.1 "/>
   <path class="fil6" d="M12061.59 3749.54c-168.83,-126.59 -300.24,-134.84 -493.19,-190 -73.29,-18.31 -64.54,-141.48 16.17,-141.48 255.78,42.61 359.3,96.13 477.01,331.48zm-230.42 -428.5c-21.98,-9.98 -141.23,-51.02 -149.57,-56.59 -12.61,-16.8 -20.11,-36.45 -4.04,-52.54 52.73,-52.8 153.61,20.78 153.61,109.14zm36.38 141.49c-62.71,-15.68 -173.34,-46.2 -234.46,-60.65 -40.36,-9.53 -47.14,-66.93 -8.09,-92.97 120.94,-30.25 199.64,46.32 242.56,153.61z"/>
   <path class="fil6" d="M12076.18 3749.54c168.83,-126.59 300.24,-134.84 493.19,-190 73.29,-18.31 64.54,-141.48 -16.17,-141.48 -255.78,42.61 -359.3,96.13 -477.02,331.48zm230.42 -428.5c21.98,-9.98 141.23,-51.02 149.57,-56.59 12.61,-16.8 20.1,-36.45 4.04,-52.54 -52.73,-52.8 -153.61,20.78 -153.61,109.14zm-36.38 141.49c62.7,-15.68 173.34,-46.2 234.46,-60.65 40.36,-9.53 47.14,-66.93 8.09,-92.97 -120.94,-30.25 -199.64,46.32 -242.56,153.61z"/>
   <path class="fil7" d="M11629.91 4315.48c0,32.34 -28.29,60.63 -60.63,60.63 -36.39,0 -64.68,-28.29 -64.68,-60.63 0,-36.39 28.29,-64.68 64.68,-64.68 32.34,0 60.63,28.29 60.63,64.68z"/>
   <path class="fil7" d="M12689.03 4315.48c0,32.34 -28.3,60.63 -60.64,60.63 -36.37,0 -64.68,-28.29 -64.68,-60.63 0,-36.39 28.3,-64.68 64.68,-64.68 32.34,0 60.64,28.29 60.64,64.68z"/>
   <path class="fil6" d="M11625.87 4315.48c0,28.3 -28.3,56.59 -56.59,56.59 -32.33,0 -60.64,-28.29 -60.64,-56.59 0,-32.33 28.3,-60.64 60.64,-60.64 28.3,0 56.59,28.3 56.59,60.64z"/>
   <path class="fil6" d="M12684.99 4315.48c0,28.3 -28.29,56.59 -56.59,56.59 -32.33,0 -60.63,-28.29 -60.63,-56.59 0,-32.33 28.3,-60.64 60.63,-60.64 28.3,0 56.59,28.3 56.59,60.64z"/>
  </g>
 </g>
</svg>
