<?xml version="1.0" encoding="UTF-8"?>
<!DOCTYPE svg PUBLIC "-//W3C//DTD SVG 1.1//EN" "http://www.w3.org/Graphics/SVG/1.1/DTD/svg11.dtd">
<!-- Creator: CorelDRAW 2021.5 -->
<svg xmlns="http://www.w3.org/2000/svg" xml:space="preserve" width="19.685in" height="19.685in" version="1.1" style="shape-rendering:geometricPrecision; text-rendering:geometricPrecision; image-rendering:optimizeQuality; fill-rule:evenodd; clip-rule:evenodd"
viewBox="0 0 19685.04 19685.04"
 xmlns:xlink="http://www.w3.org/1999/xlink"
 xmlns:xodm="http://www.corel.com/coreldraw/odm/2003">
 <defs>
  <style type="text/css">
   <![CDATA[
    .fil0 {fill:#1E293B}
   ]]>
  </style>
 </defs>
 <g id="Layer_x0020_1">
  <metadata id="CorelCorpID_0Corel-Layer"/>
  <g id="_1559705824528">
   <path class="fil0" d="M2433.62 14928.7l1424.02 1337.87c235.17,203.33 493.02,415.09 769,605.16 339.92,234.1 491,331.1 846.95,541.25 540.99,319.37 1259.46,636.55 1935,828.87 767.7,218.57 1578.46,343.77 2433.12,344.06 1648.61,0.55 3189.44,-482.61 4363.08,-1163.73 971.3,-563.7 1586.17,-1081.94 2330.46,-1820.52l532.47 -501.88c58,-63.05 121.77,-131.72 182.07,-171.08 -6.16,-104.62 -367.15,-1327.25 -399.72,-1424.99 -157.17,-471.59 -328.66,-889.93 -539.9,-1287.93 -262.04,-493.7 -583.49,-959.42 -923.11,-1358.53 -74.67,-87.73 -143.81,-156.94 -212.93,-240.39 -174.38,-210.59 -735.31,-713.04 -939.27,-888.35 -168.1,-144.49 -320.88,-280.7 -510.37,-410.59 -141.78,-97.2 -159.75,-80.52 -309.68,3.83 -310.72,174.84 -533.56,365.13 -813.46,560.66 -1712.41,1196.35 -3806.73,1196.45 -5519.3,0 -279.72,-195.41 -497.46,-381.35 -804.54,-555.57 -151.75,-86.09 -171.61,-109.64 -318.6,-8.92 -246.35,168.79 -408.16,324.66 -624.09,509.31l-595.33 552.35c-69.53,71.1 -161.02,153.91 -223.81,229.51 -151.29,182.13 -255.28,282.86 -422.55,498.6 -763.92,985.29 -1132.06,1882.88 -1466,3097.18 -34.02,123.68 -188.97,646.61 -193.52,723.81z"/>
   <path class="fil0" d="M9538.4 1113.59c-905.15,74.28 -1686.41,424.14 -2336.85,946.65 -596.64,479.29 -1147.5,1126.47 -1438.68,1848.33 -233.67,579.32 -337.31,1197.72 -269.12,1897.4 61.54,631.41 217.75,1217.26 478.05,1701.19 275.52,512.19 622.3,879.67 971.62,1224.79 330.93,326.97 887.2,687.17 1332.1,850.48 1137.16,417.44 2546.85,365.1 3591.8,-235.1 373.74,-214.65 643.94,-424.84 941.51,-702.16 415.64,-387.37 885.02,-1019.94 1118.3,-1616.89 230.52,-589.87 347.33,-1159.22 293.54,-1874.78 -161.28,-2145.17 -2288.58,-4236.35 -4682.27,-4039.91z"/>
  </g>
 </g>
</svg>
