<?xml version="1.0" encoding="UTF-8"?>
<!DOCTYPE svg PUBLIC "-//W3C//DTD SVG 1.1//EN" "http://www.w3.org/Graphics/SVG/1.1/DTD/svg11.dtd">
<!-- Creator: CorelDRAW 2021.5 -->
<svg xmlns="http://www.w3.org/2000/svg" xml:space="preserve" width="31.4961in" height="5.51181in" version="1.1" style="shape-rendering:geometricPrecision; text-rendering:geometricPrecision; image-rendering:optimizeQuality; fill-rule:evenodd; clip-rule:evenodd"
viewBox="0 0 31496.06 5511.81"
 xmlns:xlink="http://www.w3.org/1999/xlink"
 xmlns:xodm="http://www.corel.com/coreldraw/odm/2003">
 <defs>
  <style type="text/css">
   <![CDATA[
    .str0 {stroke:white;stroke-width:3;stroke-miterlimit:2.61313}
    .fil1 {fill:white}
    .fil0 {fill:white;fill-rule:nonzero}
   ]]>
  </style>
 </defs>
 <g id="Layer_x0020_1">
  <metadata id="CorelCorpID_0Corel-Layer"/>
  <path class="fil0" d="M5795.52 3237.02l763.63 -1729.92 481.91 0 766.11 1729.92 -509.09 0 -598.06 -1490.2 192.76 0 -598.06 1490.2 -499.2 0zm417.65 -336.1l126.04 -360.81 845.19 0 126.04 360.81 -1097.26 0z"/>
  <path id="_1" class="fil0" d="M7943.3 3237.02l0 -1729.92 790.82 0c158.17,0 294.5,25.54 409,76.61 114.5,51.07 203.06,124.8 265.67,221.18 62.61,96.38 93.91,210.48 93.91,342.28 0,130.15 -31.3,243.01 -93.91,338.57 -62.61,95.56 -151.16,169.29 -265.67,221.19 -114.5,51.9 -250.84,77.85 -409,77.85l-518.98 0 217.48 -212.54 0 664.78 -489.32 0zm489.32 -612.89l-217.48 -224.89 489.32 0c102.15,0 178.34,-22.24 228.59,-66.72 50.25,-44.48 75.37,-106.27 75.37,-185.35 0,-80.73 -25.13,-143.34 -75.37,-187.82 -50.25,-44.48 -126.45,-66.72 -228.59,-66.72l-489.32 0 217.48 -224.89 0 956.4z"/>
  <polygon id="_2" class="fil0" points="9740.14,3237.02 9737.67,1507.11 10224.52,1507.11 10226.99,2849.03 11049.94,2851.5 11052.41,3237.02 "/>
  <polygon id="_3" class="fil0" points="11245.37,3237.02 11242.9,1507.11 11732.22,1507.11 11732.22,3237.02 "/>
  <path id="_4" class="fil0" d="M12515.83 2853.97l-27.19 -548.63 743.87 -798.23 538.74 0 -741.39 803.18 -271.84 284.2 -242.19 259.48zm-437.42 383.06l0 -1729.92 484.38 0 0 1729.92 -484.38 0zm1161.52 0l-563.46 -714.21 318.8 -341.04 813.06 1055.25 -568.4 0z"/>
  <path id="_5" class="fil0" d="M13645.43 3237.02l763.63 -1729.92 481.91 0 766.11 1729.92 -509.09 0 -598.06 -1490.2 192.76 0 -598.06 1490.2 -499.2 0zm417.65 -336.1l126.04 -360.81 845.19 0 126.04 360.81 -1097.26 0z"/>
  <path id="_6" class="fil0" d="M16401.14 3271.62c-141.69,0 -278.02,-17.71 -409,-53.13 -130.98,-35.42 -237.66,-81.14 -320.04,-137.16l160.63 -360.81c77.44,49.43 166.81,90.2 268.14,122.33 101.32,32.13 202.24,48.19 302.74,48.19 67.55,0 121.92,-6.18 163.11,-18.54 41.19,-12.35 71.26,-28.83 90.2,-49.43 18.94,-20.59 28.42,-44.89 28.42,-72.9 0,-39.54 -18.12,-70.85 -54.37,-93.91 -36.25,-23.06 -83.2,-42.01 -140.87,-56.84 -57.67,-14.83 -121.51,-29.66 -191.53,-44.48 -70.02,-14.83 -140.04,-33.78 -210.06,-56.84 -70.02,-23.07 -133.87,-53.13 -191.53,-90.2 -57.67,-37.07 -104.62,-85.67 -140.87,-145.81 -36.24,-60.13 -54.37,-136.33 -54.37,-228.59 0,-103.8 28.42,-197.7 85.26,-281.73 56.84,-84.02 142.1,-151.57 255.78,-202.65 113.68,-51.07 255.37,-76.61 425.07,-76.61 113.68,0 225.3,12.77 334.86,38.3 109.56,25.54 207.18,63.02 292.85,112.44l-150.75 363.28c-82.38,-44.48 -163.93,-77.85 -244.66,-100.09 -80.73,-22.24 -158.99,-33.36 -234.78,-33.36 -67.55,0 -121.92,7 -163.11,21 -41.19,14 -70.85,32.54 -88.97,55.61 -18.12,23.06 -27.19,49.43 -27.19,79.08 0,37.89 17.71,67.96 53.13,90.2 35.42,22.24 82.38,40.37 140.87,54.37 58.49,14 122.74,28.42 192.76,43.25 70.02,14.83 140.04,33.36 210.06,55.6 70.02,22.24 133.86,51.9 191.53,88.97 57.66,37.07 104.2,85.67 139.63,145.81 35.42,60.13 53.13,135.51 53.13,226.13 0,100.5 -28.42,193.17 -85.26,278.02 -56.84,84.85 -141.69,152.81 -254.54,203.88 -112.86,51.07 -254.96,76.61 -426.3,76.61z"/>
  <polygon id="_7" class="fil0" points="17392.34,3237.02 17389.87,1507.11 17879.19,1507.11 17879.19,3237.02 "/>
  <polygon id="_8" class="fil0" points="18947,3237.02 18944.52,1507.11 19431.37,1507.11 19433.84,2849.03 20256.79,2851.5 20259.26,3237.02 "/>
  <path id="_9" class="fil0" d="M20259.46 3237.02l763.63 -1729.92 481.91 0 766.11 1729.92 -509.09 0 -598.06 -1490.2 192.76 0 -598.06 1490.2 -499.2 0zm417.65 -336.1l126.04 -360.81 845.19 0 126.04 360.81 -1097.26 0z"/>
  <path id="_10" class="fil0" d="M23245.01 3271.62c-136.75,0 -263.2,-21.83 -379.35,-65.49 -116.15,-43.66 -216.65,-105.85 -301.5,-186.59 -84.85,-80.73 -151.16,-175.87 -198.94,-285.44 -47.78,-109.56 -71.67,-230.24 -71.67,-362.05 0,-131.8 23.89,-252.48 71.67,-362.05 47.78,-109.56 114.09,-204.7 198.94,-285.43 84.85,-80.73 185.35,-142.93 301.5,-186.59 116.15,-43.66 242.6,-65.49 379.35,-65.49 159.81,0 302.74,28.01 428.77,84.02 126.04,56.02 231.07,136.75 315.09,242.19l-311.38 281.73c-56.02,-65.9 -117.39,-116.15 -184.11,-150.75 -66.72,-34.6 -141.28,-51.9 -223.65,-51.9 -70.85,0 -135.92,11.53 -195.23,34.6 -59.31,23.06 -109.98,56.43 -151.99,100.09 -42.01,43.66 -74.96,95.97 -98.85,156.93 -23.89,60.96 -35.83,128.51 -35.83,202.65 0,74.14 11.94,141.69 35.83,202.65 23.89,60.96 56.84,113.27 98.85,156.93 42.01,43.66 92.67,77.02 151.99,100.09 59.31,23.07 124.39,34.6 195.23,34.6 82.38,0 156.93,-17.3 223.65,-51.9 66.72,-34.6 128.09,-84.85 184.11,-150.75l311.38 281.73c-84.02,103.8 -189.06,184.11 -315.09,240.95 -126.04,56.84 -268.96,85.26 -428.77,85.26z"/>
  <path id="_11" class="fil0" d="M23966.84 3237.02l763.63 -1729.92 481.91 0 766.11 1729.92 -509.09 0 -598.06 -1490.2 192.76 0 -598.06 1490.2 -499.2 0zm417.65 -336.1l126.04 -360.81 845.19 0 126.04 360.81 -1097.26 0z"/>
  <path id="_12" class="fil0" d="M26552.03 2853.97l-27.19 -548.63 743.87 -798.23 538.74 0 -741.39 803.18 -271.84 284.2 -242.19 259.48zm-437.42 383.06l0 -1729.92 484.38 0 0 1729.92 -484.38 0zm1161.52 0l-563.46 -714.21 318.8 -341.04 813.06 1055.25 -568.4 0z"/>
  <path class="fil0 str0" d="M6289.67 4483.67c-83.43,0 -149.2,-24.38 -197.33,-73.15 -48.13,-48.77 -72.19,-121.29 -72.19,-217.55l0 -387.93 49.09 0 0 386c0,84.07 19.25,146.31 57.76,186.74 38.5,40.43 93.05,60.64 163.64,60.64 69.95,0 124.17,-20.21 162.68,-60.64 38.5,-40.43 57.76,-102.68 57.76,-186.74l0 -386 49.09 0 0 387.93c0,96.26 -24.06,168.78 -72.19,217.55 -48.13,48.77 -114.23,73.15 -198.3,73.15z"/>
  <path id="_1_0" class="fil0 str0" d="M7095.48 3972.54c41.07,0 76.85,7.86 107.33,23.58 30.48,15.72 54.23,39.47 71.23,71.23 17.01,31.77 25.51,71.07 25.51,117.92l0 293.59 -48.13 0 0 -289.74c0,-56.47 -14.28,-99.47 -42.83,-128.99 -28.56,-29.52 -68.5,-44.28 -119.84,-44.28 -39.15,0 -73.16,8.02 -102.03,24.07 -28.88,16.04 -50.86,38.5 -65.94,67.38 -15.08,28.88 -22.62,63.53 -22.62,103.96l0 267.6 -48.13 0 0 -502.47 46.2 0 0 139.57 -6.74 -15.4c15.4,-39.79 40.75,-71.07 76.05,-93.85 35.29,-22.78 78.61,-34.17 129.95,-34.17z"/>
  <path id="_2_1" class="fil0 str0" d="M7574 4478.86l0 -502.47 47.17 0 0.96 502.47 -48.13 0zm24.06 -624.72c-10.91,0 -20.21,-3.85 -27.91,-11.55 -7.7,-7.7 -11.55,-16.69 -11.55,-26.95 0,-10.91 3.85,-20.22 11.55,-27.92 7.7,-7.7 17,-11.55 27.91,-11.55 11.55,0 21.02,3.69 28.4,11.07 7.38,7.38 11.07,16.52 11.07,27.43 0,10.91 -3.69,20.22 -11.07,27.92 -7.38,7.7 -16.85,11.55 -28.4,11.55z"/>
  <polygon id="_3_2" class="fil0 str0" points="8028.46,4478.86 7802.25,3976.39 7853.27,3976.39 8065.04,4451.91 8041.93,4451.91 8255.63,3976.39 8304.72,3976.39 8077.55,4478.86 "/>
  <path id="_4_3" class="fil0 str0" d="M8675.43 4482.71c-50.7,0 -95.46,-10.91 -134.28,-32.73 -38.83,-21.82 -69.31,-51.98 -91.44,-90.48 -22.14,-38.5 -33.21,-82.46 -33.21,-131.87 0,-50.06 10.43,-94.17 31.29,-132.35 20.85,-38.19 49.57,-68.19 86.15,-90 36.58,-21.82 77.65,-32.73 123.21,-32.73 45.56,0 86.47,10.59 122.73,31.76 36.26,21.18 64.81,50.86 85.67,89.04 20.85,38.18 31.28,82.3 31.28,132.35 0,1.93 -0.16,4.01 -0.48,6.26 -0.32,2.25 -0.48,4.65 -0.48,7.22l-443.75 0 0 -37.54 417.76 0 -19.25 18.29c0.64,-39.15 -7.54,-74.28 -24.55,-105.4 -17,-31.13 -39.94,-55.51 -68.82,-73.16 -28.88,-17.65 -62.25,-26.47 -100.11,-26.47 -37.22,0 -70.43,8.82 -99.63,26.47 -29.2,17.65 -52.14,42.03 -68.82,73.16 -16.69,31.12 -25.03,66.58 -25.03,106.37l0 8.66c0,41.07 9.15,77.49 27.43,109.26 18.29,31.76 43.48,56.47 75.56,74.12 32.09,17.65 68.67,26.47 109.74,26.47 32.09,0 62.09,-5.78 90,-17.33 27.92,-11.55 51.5,-29.2 70.75,-52.94l27.91 31.77c-21.81,26.95 -49.25,47.33 -82.3,61.12 -33.05,13.8 -68.83,20.7 -107.33,20.7z"/>
  <path id="_5_4" class="fil0 str0" d="M9122.19 4478.86l0 -502.47 46.2 0 0 137.65 -4.81 -15.4c14.12,-40.43 37.86,-71.55 71.23,-93.37 33.37,-21.82 75.08,-32.73 125.14,-32.73l0 47.17c-1.93,0 -3.85,-0.16 -5.78,-0.48 -1.93,-0.32 -3.85,-0.48 -5.78,-0.48 -55.83,0 -99.47,17.49 -130.91,52.46 -31.44,34.98 -47.17,83.59 -47.17,145.83l0 261.82 -48.13 0z"/>
  <path id="_6_5" class="fil0 str0" d="M9701.79 4482.71c-41.71,0 -80.7,-6.09 -116.96,-18.29 -36.26,-12.19 -64.33,-27.59 -84.23,-46.2l22.14 -38.5c19.25,16.69 44.92,30.96 77.01,42.83 32.09,11.87 66.74,17.81 103.96,17.81 52.62,0 90.48,-8.66 113.58,-25.99 23.1,-17.33 34.65,-40.11 34.65,-68.35 0,-20.54 -5.94,-36.74 -17.81,-48.61 -11.87,-11.87 -27.76,-21.02 -47.65,-27.43 -19.89,-6.42 -41.71,-11.71 -65.46,-15.88 -23.74,-4.17 -47.48,-8.83 -71.23,-13.96 -23.74,-5.13 -45.56,-12.51 -65.46,-22.14 -19.89,-9.63 -35.78,-22.94 -47.65,-39.95 -11.87,-17 -17.81,-39.63 -17.81,-67.86 0,-25.67 7.06,-48.77 21.18,-69.31 14.12,-20.54 35.3,-37.06 63.53,-49.57 28.24,-12.52 63.53,-18.77 105.89,-18.77 31.44,0 63.05,4.49 94.81,13.48 31.76,8.98 57.59,20.85 77.49,35.61l-22.14 38.5c-21.18,-16.04 -44.92,-27.59 -71.23,-34.65 -26.31,-7.06 -52.94,-10.59 -79.89,-10.59 -48.77,0 -84.55,8.98 -107.33,26.95 -22.78,17.97 -34.17,40.43 -34.17,67.38 0,21.18 5.94,38.02 17.81,50.54 11.87,12.51 27.76,22.14 47.65,28.88 19.89,6.74 41.71,12.19 65.46,16.36 23.74,4.17 47.48,8.83 71.23,13.96 23.74,5.13 45.56,12.35 65.46,21.66 19.89,9.3 35.78,22.14 47.65,38.5 11.87,16.36 17.81,38.34 17.81,65.94 0,27.59 -7.54,51.66 -22.62,72.19 -15.08,20.54 -37.38,36.58 -66.9,48.13 -29.52,11.55 -65.78,17.33 -108.77,17.33z"/>
  <path id="_7_6" class="fil0 str0" d="M10111.01 4478.86l0 -502.47 47.17 0 0.96 502.47 -48.13 0zm24.06 -624.72c-10.91,0 -20.21,-3.85 -27.91,-11.55 -7.7,-7.7 -11.55,-16.69 -11.55,-26.95 0,-10.91 3.85,-20.22 11.55,-27.92 7.7,-7.7 17,-11.55 27.91,-11.55 11.55,0 21.02,3.69 28.4,11.07 7.38,7.38 11.07,16.52 11.07,27.43 0,10.91 -3.69,20.22 -11.07,27.92 -7.38,7.7 -16.85,11.55 -28.4,11.55z"/>
  <path id="_8_7" class="fil0 str0" d="M10584.72 4482.71c-44.28,0 -78.13,-12.19 -101.55,-36.58 -23.43,-24.39 -35.13,-57.76 -35.13,-100.11l0 -479.37 48.13 0 0 474.56c0,32.09 8.02,56.79 24.06,74.12 16.04,17.33 39.15,25.99 69.31,25.99 31.44,0 57.43,-9.31 77.97,-27.92l20.22 33.69c-12.83,12.19 -28.4,21.18 -46.69,26.95 -18.29,5.77 -37.06,8.66 -56.31,8.66zm-229.09 -464.93l0 -41.39 300.33 0 0 41.39 -300.33 0z"/>
  <path id="_9_8" class="fil0 str0" d="M11214.37 4478.86l0 -114.55 -1.93 -17.33 0 -188.67c0,-46.85 -12.68,-82.46 -38.02,-106.85 -25.35,-24.39 -62.41,-36.58 -111.18,-36.58 -34.65,0 -66.9,5.94 -96.74,17.81 -29.84,11.87 -55.35,27.11 -76.52,45.72l-24.07 -34.65c25.03,-22.46 55.19,-39.95 90.48,-52.46 35.3,-12.52 72.2,-18.77 110.7,-18.77 62.25,0 110.06,15.72 143.43,47.17 33.37,31.44 50.06,78.29 50.06,140.54l0 318.62 -46.2 0zm-180.97 3.85c-37.22,0 -69.47,-5.94 -96.74,-17.81 -27.27,-11.87 -48.13,-28.72 -62.57,-50.54 -14.44,-21.82 -21.66,-46.85 -21.66,-75.08 0,-25.67 5.94,-48.93 17.81,-69.79 11.87,-20.86 31.6,-37.86 59.2,-51.02 27.59,-13.15 64.5,-19.73 110.7,-19.73l184.82 0 0 37.54 -183.85 0c-51.98,0 -88.4,9.62 -109.26,28.87 -20.85,19.25 -31.28,43.32 -31.28,72.2 0,32.09 12.19,57.76 36.58,77.01 24.39,19.25 58.72,28.88 103,28.88 42.35,0 78.13,-9.63 107.33,-28.88 29.2,-19.25 50.86,-47.17 64.98,-83.75l13.48 32.73c-13.48,36.58 -36.42,65.62 -68.83,87.11 -32.41,21.5 -73.64,32.25 -123.69,32.25z"/>
  <path id="_10_9" class="fil0 str0" d="M11662.09 4482.71c-41.71,0 -80.7,-6.09 -116.96,-18.29 -36.26,-12.19 -64.33,-27.59 -84.23,-46.2l22.14 -38.5c19.25,16.69 44.92,30.96 77.01,42.83 32.09,11.87 66.74,17.81 103.96,17.81 52.62,0 90.48,-8.66 113.58,-25.99 23.1,-17.33 34.65,-40.11 34.65,-68.35 0,-20.54 -5.94,-36.74 -17.81,-48.61 -11.87,-11.87 -27.76,-21.02 -47.65,-27.43 -19.89,-6.42 -41.71,-11.71 -65.46,-15.88 -23.74,-4.17 -47.48,-8.83 -71.23,-13.96 -23.74,-5.13 -45.56,-12.51 -65.46,-22.14 -19.89,-9.63 -35.78,-22.94 -47.65,-39.95 -11.87,-17 -17.81,-39.63 -17.81,-67.86 0,-25.67 7.06,-48.77 21.18,-69.31 14.12,-20.54 35.3,-37.06 63.53,-49.57 28.24,-12.52 63.53,-18.77 105.89,-18.77 31.44,0 63.05,4.49 94.81,13.48 31.76,8.98 57.59,20.85 77.49,35.61l-22.14 38.5c-21.18,-16.04 -44.92,-27.59 -71.23,-34.65 -26.31,-7.06 -52.94,-10.59 -79.89,-10.59 -48.77,0 -84.55,8.98 -107.33,26.95 -22.78,17.97 -34.17,40.43 -34.17,67.38 0,21.18 5.94,38.02 17.81,50.54 11.87,12.51 27.76,22.14 47.65,28.88 19.89,6.74 41.71,12.19 65.46,16.36 23.74,4.17 47.48,8.83 71.23,13.96 23.74,5.13 45.56,12.35 65.46,21.66 19.89,9.3 35.78,22.14 47.65,38.5 11.87,16.36 17.81,38.34 17.81,65.94 0,27.59 -7.54,51.66 -22.62,72.19 -15.08,20.54 -37.38,36.58 -66.9,48.13 -29.52,11.55 -65.78,17.33 -108.77,17.33z"/>
  <polygon id="_11_10" class="fil0 str0" points="12334.09,4478.86 12334.09,3805.05 12375.48,3805.05 12855.82,4418.22 12833.68,4418.22 12833.68,3805.05 12882.77,3805.05 12882.77,4478.86 12842.34,4478.86 12361.05,3865.69 12383.19,3865.69 12383.19,4478.86 "/>
  <path id="_12_11" class="fil0 str0" d="M13382.47 4482.71c-50.7,0 -95.46,-10.91 -134.28,-32.73 -38.83,-21.82 -69.31,-51.98 -91.44,-90.48 -22.14,-38.5 -33.21,-82.46 -33.21,-131.87 0,-50.06 10.43,-94.17 31.29,-132.35 20.85,-38.19 49.57,-68.19 86.15,-90 36.58,-21.82 77.65,-32.73 123.21,-32.73 45.56,0 86.47,10.59 122.73,31.76 36.26,21.18 64.81,50.86 85.67,89.04 20.85,38.18 31.28,82.3 31.28,132.35 0,1.93 -0.16,4.01 -0.48,6.26 -0.32,2.25 -0.48,4.65 -0.48,7.22l-443.75 0 0 -37.54 417.76 0 -19.25 18.29c0.64,-39.15 -7.54,-74.28 -24.55,-105.4 -17,-31.13 -39.94,-55.51 -68.82,-73.16 -28.88,-17.65 -62.25,-26.47 -100.11,-26.47 -37.22,0 -70.43,8.82 -99.63,26.47 -29.2,17.65 -52.14,42.03 -68.82,73.16 -16.69,31.12 -25.03,66.58 -25.03,106.37l0 8.66c0,41.07 9.15,77.49 27.43,109.26 18.29,31.76 43.48,56.47 75.56,74.12 32.09,17.65 68.67,26.47 109.74,26.47 32.09,0 62.09,-5.78 90,-17.33 27.92,-11.55 51.5,-29.2 70.75,-52.94l27.91 31.77c-21.81,26.95 -49.25,47.33 -82.3,61.12 -33.05,13.8 -68.83,20.7 -107.33,20.7z"/>
  <path id="_13" class="fil0 str0" d="M14038.11 4669.46c-45.56,0 -88.88,-7.06 -129.95,-21.18 -41.07,-14.12 -74.44,-33.69 -100.11,-58.72l25.99 -36.58c25.03,23.1 55.03,41.07 90,53.91 34.97,12.83 72.67,19.25 113.1,19.25 67.38,0 116.96,-15.72 148.72,-47.17 31.77,-31.44 47.65,-80.86 47.65,-148.24l0 -139.57 9.63 -75.08 -7.7 -75.08 0 -164.6 46.2 0 0 448.57c0,84.07 -20.37,145.83 -61.13,185.3 -40.75,39.46 -101.55,59.2 -182.41,59.2zm-13.48 -208.88c-47.49,0 -90,-10.43 -127.54,-31.29 -37.54,-20.85 -67.38,-49.73 -89.52,-86.63 -22.14,-36.9 -33.21,-79.09 -33.21,-126.58 0,-48.13 11.07,-90.48 33.21,-127.06 22.14,-36.58 51.98,-65.13 89.52,-85.67 37.54,-20.54 80.06,-30.8 127.54,-30.8 45.56,0 86.47,9.79 122.73,29.36 36.26,19.57 64.98,47.49 86.15,83.75 21.18,36.26 31.76,79.73 31.76,130.43 0,50.06 -10.59,93.37 -31.76,129.95 -21.18,36.58 -49.89,64.81 -86.15,84.71 -36.26,19.89 -77.17,29.84 -122.73,29.84zm3.85 -43.32c40.43,0 76.04,-8.5 106.85,-25.51 30.8,-17.01 55.03,-40.75 72.68,-71.23 17.65,-30.48 26.47,-65.3 26.47,-104.44 0,-39.79 -8.82,-74.76 -26.47,-104.92 -17.65,-30.16 -41.87,-53.59 -72.68,-70.27 -30.8,-16.69 -66.42,-25.03 -106.85,-25.03 -39.15,0 -74.28,8.34 -105.41,25.03 -31.12,16.69 -55.51,40.11 -73.16,70.27 -17.65,30.16 -26.47,65.13 -26.47,104.92 0,39.15 8.82,73.96 26.47,104.44 17.65,30.48 42.04,54.22 73.16,71.23 31.13,17 66.26,25.51 105.41,25.51z"/>
  <path id="_14" class="fil0 str0" d="M14765.94 4482.71c-50.7,0 -95.46,-10.91 -134.28,-32.73 -38.83,-21.82 -69.31,-51.98 -91.44,-90.48 -22.14,-38.5 -33.21,-82.46 -33.21,-131.87 0,-50.06 10.43,-94.17 31.29,-132.35 20.85,-38.19 49.57,-68.19 86.15,-90 36.58,-21.82 77.65,-32.73 123.21,-32.73 45.56,0 86.47,10.59 122.73,31.76 36.26,21.18 64.81,50.86 85.67,89.04 20.85,38.18 31.28,82.3 31.28,132.35 0,1.93 -0.16,4.01 -0.48,6.26 -0.32,2.25 -0.48,4.65 -0.48,7.22l-443.75 0 0 -37.54 417.76 0 -19.25 18.29c0.64,-39.15 -7.54,-74.28 -24.55,-105.4 -17,-31.13 -39.94,-55.51 -68.82,-73.16 -28.88,-17.65 -62.25,-26.47 -100.11,-26.47 -37.22,0 -70.43,8.82 -99.63,26.47 -29.2,17.65 -52.14,42.03 -68.82,73.16 -16.69,31.12 -25.03,66.58 -25.03,106.37l0 8.66c0,41.07 9.15,77.49 27.43,109.26 18.29,31.76 43.48,56.47 75.56,74.12 32.09,17.65 68.67,26.47 109.74,26.47 32.09,0 62.09,-5.78 90,-17.33 27.92,-11.55 51.5,-29.2 70.75,-52.94l27.91 31.77c-21.81,26.95 -49.25,47.33 -82.3,61.12 -33.05,13.8 -68.83,20.7 -107.33,20.7z"/>
  <path id="_15" class="fil0 str0" d="M15212.7 4478.86l0 -502.47 46.2 0 0 137.65 -4.81 -15.4c14.12,-40.43 37.86,-71.55 71.23,-93.37 33.37,-21.82 75.08,-32.73 125.14,-32.73l0 47.17c-1.93,0 -3.85,-0.16 -5.78,-0.48 -1.93,-0.32 -3.85,-0.48 -5.78,-0.48 -55.83,0 -99.47,17.49 -130.91,52.46 -31.44,34.98 -47.17,83.59 -47.17,145.83l0 261.82 -48.13 0z"/>
  <path id="_16" class="fil0 str0" d="M15659.46 4478.86l0 -502.47 47.17 0 0.96 502.47 -48.13 0zm24.06 -624.72c-10.91,0 -20.21,-3.85 -27.91,-11.55 -7.7,-7.7 -11.55,-16.69 -11.55,-26.95 0,-10.91 3.85,-20.22 11.55,-27.92 7.7,-7.7 17,-11.55 27.91,-11.55 11.55,0 21.02,3.69 28.4,11.07 7.38,7.38 11.07,16.52 11.07,27.43 0,10.91 -3.69,20.22 -11.07,27.92 -7.38,7.7 -16.85,11.55 -28.4,11.55z"/>
  <polygon id="_17" class="fil0 str0" points="16408.48,4478.86 16408.48,4234.37 16420.03,4266.13 16137.02,3805.05 16190.93,3805.05 16447.94,4223.78 16420.99,4223.78 16678,3805.05 16729.02,3805.05 16446.02,4266.13 16457.57,4234.37 16457.57,4478.86 "/>
  <path id="_18" class="fil0 str0" d="M17050.64 4482.71c-48.13,0 -90.96,-10.91 -128.5,-32.73 -37.54,-21.82 -67.22,-51.98 -89.04,-90.48 -21.82,-38.5 -32.73,-82.46 -32.73,-131.87 -0.64,-50.06 10.11,-94.17 32.25,-132.35 22.14,-38.19 51.98,-68.19 89.52,-90 37.54,-21.82 80.37,-32.73 128.5,-32.73 48.13,0 91.13,10.91 128.99,32.73 37.86,21.82 67.54,51.82 89.04,90 21.5,38.18 32.25,82.3 32.25,132.35 0.64,49.41 -9.95,93.37 -31.77,131.87 -21.82,38.5 -51.82,68.67 -90,90.48 -38.19,21.82 -81.02,32.73 -128.51,32.73zm0 -43.31c38.5,0 73.16,-8.83 103.96,-26.47 30.8,-17.65 54.87,-42.52 72.2,-74.6 17.32,-32.09 26.31,-68.98 26.95,-110.7 -0.64,-42.35 -9.63,-79.41 -26.95,-111.18 -17.33,-31.77 -41.39,-56.47 -72.2,-74.12 -30.8,-17.65 -65.46,-26.79 -103.96,-27.43 -38.5,0.64 -73,9.79 -103.48,27.43 -30.48,17.65 -54.55,42.35 -72.2,74.12 -17.65,31.76 -26.79,68.82 -27.43,111.18 0.64,41.71 9.79,78.61 27.43,110.7 17.65,32.09 41.56,57.11 71.72,75.08 30.16,17.97 64.81,26.63 103.96,25.99z"/>
  <path id="_19" class="fil0 str0" d="M17736.12 4669.46c-45.56,0 -88.88,-7.06 -129.95,-21.18 -41.07,-14.12 -74.44,-33.69 -100.11,-58.72l25.99 -36.58c25.03,23.1 55.03,41.07 90,53.91 34.97,12.83 72.67,19.25 113.1,19.25 67.38,0 116.96,-15.72 148.72,-47.17 31.77,-31.44 47.65,-80.86 47.65,-148.24l0 -139.57 9.63 -75.08 -7.7 -75.08 0 -164.6 46.2 0 0 448.57c0,84.07 -20.37,145.83 -61.13,185.3 -40.75,39.46 -101.55,59.2 -182.41,59.2zm-13.48 -208.88c-47.49,0 -90,-10.43 -127.54,-31.29 -37.54,-20.85 -67.38,-49.73 -89.52,-86.63 -22.14,-36.9 -33.21,-79.09 -33.21,-126.58 0,-48.13 11.07,-90.48 33.21,-127.06 22.14,-36.58 51.98,-65.13 89.52,-85.67 37.54,-20.54 80.06,-30.8 127.54,-30.8 45.56,0 86.47,9.79 122.73,29.36 36.26,19.57 64.98,47.49 86.15,83.75 21.18,36.26 31.76,79.73 31.76,130.43 0,50.06 -10.59,93.37 -31.76,129.95 -21.18,36.58 -49.89,64.81 -86.15,84.71 -36.26,19.89 -77.17,29.84 -122.73,29.84zm3.85 -43.32c40.43,0 76.04,-8.5 106.85,-25.51 30.8,-17.01 55.03,-40.75 72.68,-71.23 17.65,-30.48 26.47,-65.3 26.47,-104.44 0,-39.79 -8.82,-74.76 -26.47,-104.92 -17.65,-30.16 -41.87,-53.59 -72.68,-70.27 -30.8,-16.69 -66.42,-25.03 -106.85,-25.03 -39.15,0 -74.28,8.34 -105.41,25.03 -31.12,16.69 -55.51,40.11 -73.16,70.27 -17.65,30.16 -26.47,65.13 -26.47,104.92 0,39.15 8.82,73.96 26.47,104.44 17.65,30.48 42.04,54.22 73.16,71.23 31.13,17 66.26,25.51 105.41,25.51z"/>
  <path id="_20" class="fil0 str0" d="M18248.34 4669.46c-23.1,0 -44.76,-3.85 -64.98,-11.55 -20.21,-7.7 -37.38,-18.93 -51.5,-33.69l24.06 -36.58c12.83,13.48 26.79,23.43 41.87,29.84 15.08,6.42 32.24,9.63 51.5,9.63 23.1,0 43.48,-6.42 61.13,-19.25 17.65,-12.83 34.17,-36.26 49.57,-70.27l34.65 -77 6.74 -8.67 212.73 -475.52 49.09 0 -257.97 570.81c-13.48,30.8 -28.07,55.03 -43.8,72.68 -15.72,17.65 -32.89,30.32 -51.5,38.02 -18.61,7.7 -39.15,11.55 -61.61,11.55zm145.35 -178.08l-232.95 -514.98 51.02 0 211.77 472.63 -29.84 42.35z"/>
  <path id="_21" class="fil0 str0" d="M19145.59 4478.86l0 -114.55 -1.93 -17.33 0 -188.67c0,-46.85 -12.68,-82.46 -38.02,-106.85 -25.35,-24.39 -62.41,-36.58 -111.18,-36.58 -34.65,0 -66.9,5.94 -96.74,17.81 -29.84,11.87 -55.35,27.11 -76.52,45.72l-24.07 -34.65c25.03,-22.46 55.19,-39.95 90.48,-52.46 35.3,-12.52 72.2,-18.77 110.7,-18.77 62.25,0 110.06,15.72 143.43,47.17 33.37,31.44 50.06,78.29 50.06,140.54l0 318.62 -46.2 0zm-180.97 3.85c-37.22,0 -69.47,-5.94 -96.74,-17.81 -27.27,-11.87 -48.13,-28.72 -62.57,-50.54 -14.44,-21.82 -21.66,-46.85 -21.66,-75.08 0,-25.67 5.94,-48.93 17.81,-69.79 11.87,-20.86 31.6,-37.86 59.2,-51.02 27.59,-13.15 64.5,-19.73 110.7,-19.73l184.82 0 0 37.54 -183.85 0c-51.98,0 -88.4,9.62 -109.26,28.87 -20.85,19.25 -31.28,43.32 -31.28,72.2 0,32.09 12.19,57.76 36.58,77.01 24.39,19.25 58.72,28.88 103,28.88 42.35,0 78.13,-9.63 107.33,-28.88 29.2,-19.25 50.86,-47.17 64.98,-83.75l13.48 32.73c-13.48,36.58 -36.42,65.62 -68.83,87.11 -32.41,21.5 -73.64,32.25 -123.69,32.25z"/>
  <path id="_22" class="fil0 str0" d="M19502.83 4340.25l0.96 -60.64 332.09 -303.22 61.61 0 -220.43 206.96 -28.88 24.07 -145.35 132.83zm-36.58 138.61l0 -714.24 48.13 0 0 714.24 -48.13 0zm392.74 0l-219.47 -275.3 32.73 -35.62 246.43 310.92 -59.68 0z"/>
  <path id="_23" class="fil0 str0" d="M20415.48 4478.86l0 -114.55 -1.93 -17.33 0 -188.67c0,-46.85 -12.68,-82.46 -38.02,-106.85 -25.35,-24.39 -62.41,-36.58 -111.18,-36.58 -34.65,0 -66.9,5.94 -96.74,17.81 -29.84,11.87 -55.35,27.11 -76.52,45.72l-24.07 -34.65c25.03,-22.46 55.19,-39.95 90.48,-52.46 35.3,-12.52 72.2,-18.77 110.7,-18.77 62.25,0 110.06,15.72 143.43,47.17 33.37,31.44 50.06,78.29 50.06,140.54l0 318.62 -46.2 0zm-180.97 3.85c-37.22,0 -69.47,-5.94 -96.74,-17.81 -27.27,-11.87 -48.13,-28.72 -62.57,-50.54 -14.44,-21.82 -21.66,-46.85 -21.66,-75.08 0,-25.67 5.94,-48.93 17.81,-69.79 11.87,-20.86 31.6,-37.86 59.2,-51.02 27.59,-13.15 64.5,-19.73 110.7,-19.73l184.82 0 0 37.54 -183.85 0c-51.98,0 -88.4,9.62 -109.26,28.87 -20.85,19.25 -31.28,43.32 -31.28,72.2 0,32.09 12.19,57.76 36.58,77.01 24.39,19.25 58.72,28.88 103,28.88 42.35,0 78.13,-9.63 107.33,-28.88 29.2,-19.25 50.86,-47.17 64.98,-83.75l13.48 32.73c-13.48,36.58 -36.42,65.62 -68.83,87.11 -32.41,21.5 -73.64,32.25 -123.69,32.25z"/>
  <path id="_24" class="fil0 str0" d="M20736.14 4478.86l0 -502.47 46.2 0 0 137.65 -4.81 -15.4c14.12,-40.43 37.86,-71.55 71.23,-93.37 33.37,-21.82 75.08,-32.73 125.14,-32.73l0 47.17c-1.93,0 -3.85,-0.16 -5.78,-0.48 -1.93,-0.32 -3.85,-0.48 -5.78,-0.48 -55.83,0 -99.47,17.49 -130.91,52.46 -31.44,34.98 -47.17,83.59 -47.17,145.83l0 261.82 -48.13 0z"/>
  <path id="_25" class="fil0 str0" d="M21352.31 4482.71c-44.28,0 -78.13,-12.19 -101.55,-36.58 -23.43,-24.39 -35.13,-57.76 -35.13,-100.11l0 -479.37 48.13 0 0 474.56c0,32.09 8.02,56.79 24.06,74.12 16.04,17.33 39.15,25.99 69.31,25.99 31.44,0 57.43,-9.31 77.97,-27.92l20.22 33.69c-12.83,12.19 -28.4,21.18 -46.69,26.95 -18.29,5.77 -37.06,8.66 -56.31,8.66zm-229.09 -464.93l0 -41.39 300.33 0 0 41.39 -300.33 0z"/>
  <path id="_26" class="fil0 str0" d="M21981.96 4478.86l0 -114.55 -1.93 -17.33 0 -188.67c0,-46.85 -12.68,-82.46 -38.02,-106.85 -25.35,-24.39 -62.41,-36.58 -111.18,-36.58 -34.65,0 -66.9,5.94 -96.74,17.81 -29.84,11.87 -55.35,27.11 -76.52,45.72l-24.07 -34.65c25.03,-22.46 55.19,-39.95 90.48,-52.46 35.3,-12.52 72.2,-18.77 110.7,-18.77 62.25,0 110.06,15.72 143.43,47.17 33.37,31.44 50.06,78.29 50.06,140.54l0 318.62 -46.2 0zm-180.97 3.85c-37.22,0 -69.47,-5.94 -96.74,-17.81 -27.27,-11.87 -48.13,-28.72 -62.57,-50.54 -14.44,-21.82 -21.66,-46.85 -21.66,-75.08 0,-25.67 5.94,-48.93 17.81,-69.79 11.87,-20.86 31.6,-37.86 59.2,-51.02 27.59,-13.15 64.5,-19.73 110.7,-19.73l184.82 0 0 37.54 -183.85 0c-51.98,0 -88.4,9.62 -109.26,28.87 -20.85,19.25 -31.28,43.32 -31.28,72.2 0,32.09 12.19,57.76 36.58,77.01 24.39,19.25 58.72,28.88 103,28.88 42.35,0 78.13,-9.63 107.33,-28.88 29.2,-19.25 50.86,-47.17 64.98,-83.75l13.48 32.73c-13.48,36.58 -36.42,65.62 -68.83,87.11 -32.41,21.5 -73.64,32.25 -123.69,32.25z"/>
  <g id="_1272464640704">
   <path class="fil1" d="M1202.21 4683.36c-27.47,-177.5 -194.55,-327.95 -427.73,-542.23 -268.13,-246.39 -327.13,-496.33 -261.87,-667.08 -154.38,-98.61 -255.36,-335.46 -184.48,-693.81 61.45,-310.65 107.3,-530.77 24.55,-690.19 -5.27,-1.76 -4.08,-5.33 1.2,-3.57 161.89,-77.78 257.41,-281.32 394.83,-566.63 158.88,-329.86 382.51,-458.45 565.41,-443.92l0.19 -0.09c45.02,-177.39 237.69,-347.74 599.56,-393.88 314.13,-40.04 537.44,-66.22 662.46,-195.17 0,-5.56 3.78,-5.56 3.78,0 125.02,128.95 348.33,155.13 662.46,195.17 361.8,46.13 554.45,216.41 599.53,393.77 182.35,-12.94 404.43,116.02 562.46,444.11 137.41,285.31 232.94,488.85 394.83,566.63 5.28,-1.76 6.47,1.81 1.19,3.57 -82.75,159.42 -36.89,379.54 24.56,690.18 71.04,359.19 -30.55,596.3 -185.53,694.5l-0.19 0.34c64.63,170.73 5.34,420.15 -262.26,666.06 -233.17,214.26 -400.26,364.72 -427.72,542.22 3.21,4.53 0.14,6.72 -3.08,2.18 -176.56,-32.95 -373.91,74.78 -653.38,223.7 -322.13,171.65 -577.93,143.9 -717.15,25 -139.24,118.89 -395.03,146.65 -717.16,-25 -279.47,-148.93 -476.82,-256.66 -653.38,-223.71 -3.22,4.54 -6.29,2.36 -3.08,-2.18zm-510.52 -478.62c243.89,224.11 418.64,381.48 447.38,567.13 -3.37,4.74 -0.15,7.03 3.22,2.28 184.67,-34.47 391.09,78.22 683.39,233.98 336.93,179.54 604.47,150.5 750.1,26.15 145.63,124.36 413.19,153.38 750.11,-26.15 292.31,-155.76 498.72,-268.44 683.4,-233.98 3.37,4.74 6.58,2.46 3.22,-2.28 28.72,-185.65 203.49,-343.02 447.37,-567.13 279.89,-257.21 341.91,-518.09 274.31,-696.65l0.2 -0.36c162.09,-102.71 268.36,-350.72 194.05,-726.4 -64.27,-324.92 -112.23,-555.15 -25.68,-721.89 5.51,-1.84 4.27,-5.58 -1.25,-3.74 -169.34,-81.35 -269.24,-294.24 -412.97,-592.65 -165.29,-343.17 -397.58,-478.05 -588.31,-464.52 -47.14,-185.5 -248.66,-363.61 -627.07,-411.86 -328.56,-41.88 -562.13,-69.26 -692.9,-204.14 0,-5.82 -3.94,-5.81 -3.94,0 -130.76,134.88 -364.34,162.26 -692.9,204.14 -378.5,48.26 -580.02,226.43 -627.1,411.97l-0.2 0.09c-191.3,-15.2 -425.2,119.3 -591.39,464.31 -143.73,298.41 -243.63,511.31 -412.97,592.65 -5.52,-1.83 -6.76,1.91 -1.24,3.74 86.55,166.74 38.59,396.96 -25.68,721.89 -74.14,374.81 31.48,622.54 192.95,725.69 -68.26,178.6 -6.55,440.01 273.9,697.73z"/>
   <path class="fil1" d="M2464.86 4459.22c-135.28,-24.84 -273.64,12.24 -299.51,164.51 -11.82,69.65 5.46,129.33 71.72,168.73 97.5,57.96 165.77,65.72 278.4,71.72 98,5.22 163.3,-2.17 253.11,-46.41 57.75,-28.44 133.81,-120.73 172.94,-172.94 28.33,-37.76 44.02,-54.26 80.15,0 0,-52.16 -20.4,-80.87 -80.15,-80.15 -27.85,0.33 -70.35,20.35 -88.57,42.17 -80.33,96.2 -107.23,137.28 -232.01,172.96 -90.13,11.26 -224.46,8.11 -307.94,-25.32 -57.34,-28.67 -70.31,-54.11 -46.4,-113.89 86.46,-172.8 337.6,-4.24 527.29,-25.31 25.96,-6.5 36.37,-10.19 59.06,-25.32 102.11,-51.02 79.31,-369.34 75.93,-430.26l-46.41 8.44c1.74,50.3 44.76,227.28 -37.96,219.34 -35.26,-3.39 -43.57,-65.4 -29.53,-97.01 5.62,-12.65 11.25,-25.31 16.87,-37.96 25.65,-57.7 -8.57,-101.24 -84.36,-101.24 -39.37,9.83 -28.14,9.13 -59.06,33.74l0 -42.18c-15.28,-91.74 -76.73,-116.34 -160.3,-118.11 -46.42,-0.98 -78.56,16.8 -92.81,67.49 -23.41,83.27 -4.22,236.88 -4.22,329.03 100.4,0 55.28,-196.48 59.06,-278.41 1.15,-25.08 11.07,-53.55 42.19,-54.83 36.46,-1.5 54.83,12.03 54.83,59.06 0,94.21 0,188.42 0,282.62l101.24 -8.43 0 -227.79 29.53 -12.65c0,63 -17.07,127.09 -4.22,189.83 9.94,48.59 37.23,70.04 88.58,80.14 33.8,6.65 42.35,-7.09 71.71,-16.87 0,61.74 -29.15,111.87 -88.57,122.33 -42.02,7.4 -235.31,-81.36 -320.59,-97.02z"/>
   <path class="fil1" d="M3068.08 4383.3c0,29.53 29.54,59.06 63.28,59.06 29.53,0 59.06,-29.53 59.06,-59.06 0,-33.74 -29.52,-63.28 -59.06,-63.28 -33.74,0 -63.28,29.54 -63.28,63.28z"/>
   <path class="fil1" d="M2422.68 4328.45l-4.22 -172.94 -97.02 4.22 0 210.92c0,58.61 -80.15,27.33 -80.15,-29.53 0,-59.06 0,-118.12 0,-177.18l-109.67 0 0 156.08c0,78.54 53.54,130.76 147.64,130.76l16.88 0c73.77,-18.44 110.8,-43.49 126.55,-122.33z"/>
   <path class="fil1" d="M2085.22 4383.3c0,-33.74 -29.53,-63.28 -59.06,-63.28 -33.74,0 -63.28,29.54 -63.28,63.28 0,29.53 29.54,59.06 63.28,59.06 29.53,0 59.06,-29.53 59.06,-59.06z"/>
   <polygon class="fil1" points="1551.59,4185.03 1581.13,4151.29 1589.56,4134.41 1598.01,4121.76 1602.22,4113.32 1606.44,4104.89 1606.44,4083.79 1606.44,4075.35 1606.44,4062.7 1598.01,4041.61 1581.13,4016.3 1568.47,4003.65 1551.59,3990.99 1526.29,3974.12 1513.64,3965.68 1500.98,3961.46 1479.89,3957.24 1458.8,3957.24 1446.14,3961.46 1437.71,3961.46 1416.62,3974.12 1395.53,3995.21 1366,4033.17 1260.54,4155.51 1306.93,4193.47 1416.62,4062.7 1437.71,4041.61 1454.58,4024.74 1467.23,4016.3 1484.11,4016.3 1492.55,4016.3 1500.98,4020.52 1522.07,4033.17 1534.73,4050.05 1543.17,4058.48 1543.17,4066.93 1547.38,4075.35 1543.17,4083.79 1538.95,4100.67 1509.41,4142.85 1399.74,4269.41 1446.14,4311.59 "/>
   <polygon class="fil1" points="1163.52,4050.05 1403.96,3860.23 1366,3813.82 1209.92,3940.37 1290.07,3721.02 1247.89,3670.4 1011.66,3864.44 1045.41,3910.85 1205.7,3784.3 1125.56,4003.65 "/>
   <path class="fil1" d="M1226.78 3235.92c123.82,297.14 240.65,391.38 489.32,577.9 254.32,158.94 566.06,169.93 856.31,185.61l4.22 -0.24 4.22 0.24c290.26,-15.68 602,-26.67 856.32,-185.61 248.67,-186.52 365.5,-280.76 489.32,-577.9 -120.03,72.01 -181.73,95.79 -320.59,109.67l8.43 -21.09c166.04,-165.92 345.9,-48.89 345.9,-438.7l0 -54.84 -12.65 25.31 -8.44 25.31 -12.66 25.31c-64.89,108.12 -229.15,118.23 -337.46,202.48l0 -12.66 0 -12.66 0 -8.44 4.22 -12.66 8.44 -16.86 12.65 -16.88 8.44 -8.44c225.79,-150.53 385.96,-182.26 299.49,-556.81l-16.86 -54.84 -16.87 63.27 -12.66 25.31c-48.96,146.92 -253.58,252.02 -383.87,320.59l4.23 -21.09 8.43 -16.87c44.31,-133.04 650.99,-361.99 151.85,-805.7 120.7,402.22 -124.15,429.09 -350.11,700.23 -62.83,-188.5 414.2,-224.8 278.41,-700.23 -115.15,-268.57 -308.97,-357.65 -577.9,-434.49l-92.81 -25.31 63.28 29.54 59.06 29.52c146.92,97.96 261.54,288.8 261.54,468.23l0 21.09 -4.21 46.41 0 25.3c-47.46,236.88 -217.68,257.49 -312.17,493.54l-4.21 46.4 0 25.31c15.5,77.55 61.56,111.03 143.42,134.98 129.45,37.88 -4.76,157.69 -21.09,206.7l-4.22 12.66 0 16.88 4.22 16.87 8.44 21.09c56.16,112.37 257.31,293.61 257.31,413.39l-4.21 21.09 -4.22 21.09c-44.07,264.5 -578.54,309.29 -780.4,324.81 -201.86,-15.52 -736.33,-60.31 -780.39,-324.81l-4.22 -21.09 -4.21 -21.09c0,-119.78 201.15,-301.02 257.31,-413.39l8.44 -21.09 4.21 -16.87 0 -16.88 -4.21 -12.66c-14.74,-44.23 -158.62,-165.35 -21.09,-206.7 81.69,-24.56 127.92,-57.43 143.42,-134.98l0 -25.31 -4.22 -46.4c-94.48,-236.05 -264.7,-256.66 -312.16,-493.54l0 -25.3 -4.21 -46.41 0 -21.09c0,-179.44 114.61,-370.27 261.53,-468.23l59.06 -29.52 63.28 -29.54 -92.81 25.31c-268.93,76.83 -462.76,165.92 -577.91,434.49 -135.79,475.44 341.25,511.74 278.41,700.23 -225.96,-271.14 -470.82,-298.01 -350.12,-700.23 -499.13,443.71 107.54,672.66 151.85,805.7l8.43 16.87 4.22 21.09c-130.28,-68.57 -334.91,-173.67 -383.86,-320.59l-12.66 -25.31 -16.87 -63.27 -16.87 54.84c-86.47,374.56 73.7,406.28 299.49,556.81l8.44 8.44 12.65 16.88 8.44 16.86 4.22 12.66 0 8.44 0 12.66 0 12.66c-108.31,-84.25 -272.58,-94.36 -337.47,-202.48l-12.65 -25.31 -8.44 -25.31 -12.65 -25.31 0 54.84c0,389.81 179.86,272.78 345.9,438.7l8.43 21.09c-138.86,-13.88 -200.56,-37.66 -320.59,-109.67z"/>
   <path class="fil1" d="M2551.72 3290.76c-66.89,0 -77.69,97.8 -16.88,143.42l0 320.59 29.54 0 0 -320.59c62.1,-41.58 52.75,-143.42 -12.66,-143.42z"/>
   <path class="fil1" d="M2539.9 3792.73c-122.83,-245.59 -230.86,-301.43 -497.76,-345.9 -84.22,0 -93.35,128.52 -16.87,147.63 201.34,57.56 338.46,66.17 514.64,198.27z"/>
   <path class="fil1" d="M2092.76 3429.95c63.78,15.07 179.22,46.92 244.67,63.28 -44.79,-111.96 -126.9,-191.87 -253.11,-160.3 -40.75,27.17 -33.67,87.07 8.44,97.01z"/>
   <path class="fil1" d="M2143.37 3286.53c8.71,5.81 133.15,48.64 156.09,59.06 0,-92.2 -105.28,-168.99 -160.3,-113.89 -16.76,16.79 -8.94,37.3 4.21,54.83z"/>
   <path class="fil1" d="M2416.35 3746.33c-125.79,-45.02 -258.03,-58.91 -379.66,-113.9 -108.07,-48.86 -74.94,-98.37 -42.18,-181.39 42.01,-106.45 161.69,-260.31 219.36,-375.43 49.08,-97.99 54.62,-146.41 16.87,-253.09 -2.96,-8.37 -21.91,-16.63 -25.31,-8.44 -7.03,16.87 -4.78,42.39 -21.1,50.63 -19.41,9.8 -54.8,-7.13 -84.36,0 -131.24,31.64 22.91,119.33 42.18,177.16 12.77,25.52 -240.79,367.65 -274.19,421.83 -31.94,51.8 -28.61,107.71 12.66,156.08 108.89,127.6 477.72,237.58 696.02,240.38 218.3,-2.8 587.13,-112.78 696.02,-240.38 41.28,-48.37 44.6,-104.28 12.66,-156.08 -33.4,-54.19 -286.96,-396.31 -274.19,-421.83 19.28,-57.83 173.42,-145.52 42.18,-177.16 -29.57,-7.13 -64.96,9.8 -84.37,0 -16.32,-8.23 -14.07,-33.76 -21.1,-50.63 -3.41,-8.18 -22.34,0.08 -25.31,8.44 -37.74,106.69 -32.21,155.1 16.87,253.09 57.67,115.11 177.34,268.98 219.35,375.43 32.76,83.02 65.9,132.53 -42.18,181.39 -121.62,54.99 -253.87,68.87 -379.65,113.9 -60.24,21.56 -104.75,53.5 -160.3,84.36 -55.54,-30.86 -100.06,-62.8 -160.29,-84.36z"/>
   <path class="fil1" d="M3052.88 3446.83c-266.9,44.47 -374.93,100.31 -497.76,345.9 176.18,-132.1 313.3,-140.71 514.65,-198.27 76.47,-19.11 67.34,-147.63 -16.88,-147.63z"/>
   <path class="fil1" d="M2757.59 3493.24c65.44,-16.37 180.88,-48.22 244.66,-63.28 42.12,-9.94 49.19,-69.85 8.44,-97.01 -126.21,-31.57 -208.32,48.33 -253.11,160.3z"/>
   <path class="fil1" d="M2795.56 3345.59c22.94,-10.42 147.38,-53.24 156.09,-59.06 13.15,-17.53 20.98,-38.04 4.21,-54.83 -55.02,-55.1 -160.3,21.68 -160.3,113.89z"/>
   <path class="fil1" d="M2754.2 3193.73c21.09,21.09 70.23,51.72 92.8,16.88 12.04,-18.58 -2.87,-54.83 -37.96,-54.83l-16.87 0 0 -316.38 -240.44 -12.65 -227.79 12.65 0 316.38 -12.65 0c-40.51,0 -64.36,35.72 -37.98,63.28 23.16,24.17 71.07,0.85 90.7,-25.32l390.2 0zm-12.66 -50.62l-363.63 0 -3.37 -16.86 0 -253.11 177.18 0 189.82 0 0 253.11 0 16.86z"/>
   <polygon class="fil1" points="2602.34,1632.96 2661.4,1649.83 2572.81,1396.74 2551.72,1232.22 2534.85,1392.52 "/>
   <polygon class="fil1" points="2661.4,1666.7 2585.47,1654.05 2543.29,1531.72 2534.85,1565.47 2564.38,1742.64 2678.27,1734.2 "/>
   <polygon class="fil1" points="2534.85,1746.86 2501.1,1641.4 2526.42,1430.48 2442.05,1729.98 "/>
   <polygon class="fil1" points="2551.72,1759.5 2496.88,1763.73 2484.24,1801.7 2458.92,1763.73 2412.52,1755.29 2391.43,1822.79 2471.57,1898.71 2361.91,2594.73 2387.21,2653.79 2484.24,2594.73 2547.51,2590.51 2636.09,2594.73 2733.11,2653.79 2758.42,2594.73 2644.52,1898.71 2724.67,1822.79 2703.58,1755.29 2661.4,1763.73 2636.09,1801.7 2619.22,1763.73 "/>
   <polygon class="fil1" points="2733.11,2691.75 2610.78,2620.05 2555.94,2624.26 2505.33,2620.05 2387.21,2691.75 2285.97,2598.96 2239.57,2641.14 2260.67,2792.99 2551.72,2792.99 2859.66,2792.99 2876.54,2641.14 2830.13,2598.96 "/>
   <polygon class="fil1" points="1209.92,3602.91 1180.39,3552.28 914.63,3708.37 948.39,3763.21 "/>
   <polygon class="fil1" points="872.45,3632.43 1117.11,3421.52 1091.81,3362.46 762.78,3375.12 788.09,3434.18 1028.54,3421.52 847.15,3573.38 "/>
   <polygon class="fil1" points="737.46,3273.89 1036.96,3210.61 986.35,2987.04 935.73,2995.47 973.69,3164.2 889.33,3181.08 859.8,3033.44 809.18,3041.87 838.7,3189.52 775.43,3206.38 741.69,3046.1 686.85,3054.53 "/>
   <path class="fil1" d="M674.19 2923.76l307.93 -4.22 0 -63.27 -130.76 4.22 0 -12.65 0 -21.09 4.21 -12.66 4.22 -8.43 8.44 -8.44 16.87 -12.65 25.31 -21.09 67.49 -46.41 0 -71.7 -59.06 37.96 -29.53 21.09 -21.09 12.65 -12.66 16.87 -12.65 16.88 -4.23 -16.88 -4.22 -16.87 -8.43 -12.65 -12.66 -12.66 -12.65 -8.43 -4.22 0 -8.43 -4.22 -16.88 -4.22 -12.65 0 -29.53 4.22 -8.43 4.22 -12.66 4.22 -8.43 8.43 -8.44 8.44 -8.44 8.43 -4.21 12.66 -4.22 29.52 0 42.18 0 126.56zm130.77 -63.28l-80.15 0 0 -46.4 0 -46.4 4.22 -12.66 8.43 -8.43 4.22 -4.22 4.22 -4.23 16.87 0 12.65 0 8.44 4.23 8.43 8.43 4.22 8.44 4.22 21.09 4.22 33.74 0 46.4z"/>
   <polygon class="fil1" points="931.51,2586.3 952.6,2577.87 969.48,2569.42 982.13,2552.55 994.78,2535.69 1007.44,2514.59 1011.66,2485.06 1015.87,2468.18 1015.87,2451.31 1015.87,2434.44 1015.87,2417.57 1011.66,2404.91 1003.22,2392.26 999,2383.81 990.57,2371.16 969.48,2358.51 956.82,2354.3 944.17,2350.07 931.51,2345.85 918.85,2345.85 906.2,2350.07 893.54,2350.07 885.11,2358.51 872.45,2362.72 864.02,2371.16 855.57,2379.6 847.15,2388.04 842.93,2404.91 821.84,2438.66 804.96,2472.4 800.74,2485.06 792.3,2493.49 783.87,2497.72 771.21,2497.72 762.78,2493.49 754.34,2485.06 754.34,2476.62 750.12,2463.97 750.12,2451.31 754.34,2438.66 758.56,2417.57 762.78,2409.13 771.21,2404.91 779.65,2400.69 788.09,2396.48 796.52,2396.48 809.18,2392.26 817.61,2333.2 796.52,2333.2 775.43,2333.2 758.56,2341.63 750.12,2345.85 741.69,2350.07 729.03,2362.72 716.37,2379.6 712.16,2392.26 707.94,2404.91 699.51,2430.22 695.28,2459.75 695.28,2476.62 699.51,2489.27 703.72,2501.93 707.94,2514.59 716.37,2523.02 720.6,2531.46 741.69,2548.33 750.12,2552.55 762.78,2552.55 771.21,2556.78 779.65,2556.78 796.52,2552.55 813.39,2548.33 830.27,2539.9 838.7,2527.24 851.36,2514.59 859.8,2497.72 872.45,2476.62 893.54,2434.44 901.99,2421.78 906.2,2417.57 910.42,2413.35 918.85,2409.13 931.51,2409.13 939.94,2413.35 944.17,2417.57 952.6,2421.78 956.82,2430.22 961.04,2438.66 961.04,2451.31 961.04,2463.97 961.04,2476.62 956.82,2489.27 952.6,2501.93 944.17,2510.36 935.73,2518.81 927.29,2523.02 918.85,2527.24 906.2,2531.46 889.33,2531.46 885.11,2590.51 910.42,2590.51 "/>
   <polygon class="fil1" points="758.56,2215.09 1049.63,2307.89 1070.72,2248.83 779.65,2156.03 "/>
   <path class="fil1" d="M1007.44 1704.67l181.39 274.19 37.96 -54.83 -42.18 -59.06 71.72 -101.24 71.7 21.09 42.2 -50.63 -320.59 -84.37 -42.19 54.84zm147.64 113.89l-67.49 -101.24 118.11 33.75 -50.62 67.48z"/>
   <polygon class="fil1" points="1146.65,2067.45 914.63,1961.98 952.6,1881.84 906.2,1856.53 804.96,2075.88 851.36,2096.97 889.33,2016.83 1121.33,2122.28 "/>
   <polygon class="fil1" points="1387.09,1666.7 1408.18,1666.7 1425.05,1662.49 1437.71,1662.49 1446.14,1654.05 1467.23,1641.4 1479.89,1637.18 1488.32,1624.52 1505.2,1611.87 1513.64,1599.22 1530.5,1573.9 1534.73,1561.25 1538.95,1548.59 1538.95,1531.72 1538.95,1519.07 1534.73,1506.41 1530.5,1493.75 1522.07,1485.32 1513.64,1472.66 1505.2,1464.23 1496.77,1455.8 1475.67,1447.35 1450.36,1443.13 1429.27,1447.35 1399.74,1460.01 1366,1476.89 1332.25,1493.75 1319.59,1497.98 1306.93,1502.2 1302.72,1502.2 1298.5,1497.98 1294.29,1497.98 1290.07,1493.75 1285.84,1485.32 1281.63,1472.66 1285.84,1464.23 1290.07,1455.8 1306.93,1438.92 1315.38,1430.48 1323.81,1422.04 1336.47,1417.83 1344.9,1417.83 1361.78,1422.04 1370.22,1426.26 1378.65,1430.48 1425.05,1388.3 1408.18,1375.65 1399.74,1371.43 1391.31,1367.2 1370.22,1358.77 1361.78,1358.77 1353.34,1358.77 1332.25,1358.77 1311.16,1367.2 1290.07,1379.86 1281.63,1388.3 1273.2,1396.74 1247.89,1422.04 1239.44,1434.7 1235.23,1447.35 1231.01,1460.01 1226.79,1468.44 1226.79,1481.11 1226.79,1493.75 1235.23,1514.84 1239.44,1527.5 1247.89,1535.94 1260.54,1548.59 1277.41,1557.04 1294.29,1561.25 1311.16,1561.25 1323.81,1561.25 1340.69,1557.04 1361.78,1548.59 1382.87,1535.94 1425.05,1514.84 1441.93,1506.41 1450.36,1506.41 1458.8,1510.63 1467.23,1514.84 1471.45,1523.29 1475.67,1531.72 1475.67,1540.16 1475.67,1548.59 1475.67,1557.04 1471.45,1569.69 1463.02,1578.13 1458.8,1582.34 1454.58,1586.56 1441.93,1595 1433.49,1603.43 1420.83,1607.65 1412.4,1607.65 1399.74,1607.65 1387.09,1603.43 1374.43,1599.22 1366,1590.78 1323.81,1637.18 1336.47,1641.4 1344.9,1649.83 1366,1658.28 "/>
   <polygon class="fil1" points="1589.56,1156.29 1732.98,1426.26 1787.83,1400.95 1695.02,1223.78 1893.28,1341.9 1948.13,1312.38 1804.7,1042.39 1754.07,1071.93 1846.88,1249.09 1644.4,1126.76 "/>
   <polygon class="fil1" points="1939.68,996 2028.27,1287.06 2251.84,1219.57 2234.97,1168.95 2070.45,1219.57 2049.36,1139.42 2192.79,1097.24 2180.13,1046.62 2032.49,1093.02 2011.4,1025.52 2167.48,979.12 2154.82,928.51 "/>
   <polygon class="fil1" points="2348.87,1164.73 2361.52,1177.38 2378.39,1190.04 2399.48,1194.26 2420.57,1202.69 2441.67,1202.69 2462.76,1202.69 2500.72,1198.47 2538.69,1181.6 2555.56,1173.17 2568.21,1164.73 2580.87,1156.29 2593.53,1147.85 2585.09,1025.52 2450.09,1033.96 2454.32,1084.57 2526.03,1080.36 2526.03,1118.33 2513.38,1130.99 2496.5,1139.42 2475.41,1147.85 2458.54,1152.08 2437.45,1147.85 2420.57,1147.85 2403.7,1139.42 2391.05,1126.76 2378.39,1114.11 2369.96,1097.24 2369.96,1084.57 2365.73,1071.93 2361.52,1046.62 2361.52,1025.52 2365.73,1004.43 2365.73,996 2369.96,987.56 2374.17,979.12 2382.61,970.69 2391.05,958.03 2399.48,953.82 2407.91,949.6 2416.36,945.38 2424.79,945.38 2433.23,941.16 2445.88,941.16 2458.54,941.16 2466.97,941.16 2479.63,945.38 2488.06,949.6 2496.5,958.03 2504.94,966.47 2517.59,983.34 2576.65,970.69 2568.21,949.6 2559.78,932.72 2547.12,920.07 2530.25,907.42 2521.81,903.19 2513.38,898.98 2500.72,894.76 2492.29,890.54 2466.97,886.33 2441.67,890.54 2420.57,890.54 2399.48,894.76 2382.61,903.19 2369.96,907.42 2348.87,920.07 2336.2,936.94 2323.55,949.6 2315.11,970.69 2306.68,987.56 2302.46,1008.65 2298.24,1033.96 2298.24,1055.06 2302.46,1076.15 2306.68,1097.24 2315.11,1118.33 2323.55,1135.2 2331.99,1152.08 "/>
   <polygon class="fil1" points="2715.86,890.54 2673.67,1194.26 2905.68,1223.78 2909.9,1173.17 2741.17,1152.08 2753.81,1067.72 2905.68,1088.81 2914.11,1038.18 2762.26,1017.09 2770.69,949.6 2935.2,970.69 2939.42,920.07 "/>
   <path class="fil1" d="M3133.47 1190.04l12.65 33.74 16.87 80.15 71.72 21.09 -16.87 -67.49 -8.43 -33.75 -8.44 -25.31 -8.43 -16.87 -12.66 -16.87 16.88 4.22 16.87 -4.22 16.87 0 12.65 -8.44 12.65 -8.44 8.44 -8.44 8.44 -12.65 8.44 -16.87 4.22 -12.66 0 -12.66 0 -12.65 0 -12.66 -4.22 -12.65 -4.22 -8.44 -8.43 -8.43 -8.44 -8.44 -25.31 -16.87 -37.96 -12.65 -122.33 -42.19 -101.24 286.85 59.06 21.09 42.19 -122.33 12.66 4.22 16.87 8.44 8.44 4.22 8.43 8.43 8.44 12.66 4.22 16.87zm0 -84.37l-42.19 -12.65 25.31 -75.93 42.18 16.87 42.18 12.65 8.44 4.22 4.22 4.22 4.22 4.22 4.21 8.44 0 12.65 -4.21 12.66 -4.22 12.65 -8.43 8.44 -8.44 4.22 -12.66 0 -16.86 0 -33.75 -12.65z"/>
   <polygon class="fil1" points="3403.43,1076.15 3268.46,1350.33 3323.29,1379.86 3458.28,1105.67 "/>
   <polygon class="fil1" points="3660.76,1219.57 3635.45,1430.48 3555.3,1527.5 3601.7,1565.47 3686.06,1468.44 3884.33,1400.95 3829.48,1354.56 3694.51,1405.17 3719.81,1265.96 "/>
   <path class="fil1" d="M3956.04 1527.5l-25.31 0 -25.31 4.21 -16.87 4.22 -16.88 8.44 -16.87 12.66 -16.87 12.65 -16.87 12.66 -8.44 8.43 -21.09 25.31 -8.44 12.65 -4.21 16.87 -4.22 12.66 -4.22 12.65 0 29.53 4.22 12.65 4.22 12.66 4.21 16.87 4.22 12.65 8.43 12.66 8.44 8.43 4.21 4.22 21.09 25.31 12.66 8.43 12.65 8.44 12.66 4.21 12.66 4.22 12.65 4.22 16.88 4.22 12.66 0 12.65 -4.22 16.88 0 12.66 -4.22 16.88 -8.43 12.65 -8.44 29.53 -16.88 12.65 -12.65 12.66 -12.66 12.65 -12.66 8.44 -12.65 8.43 -12.66 4.22 -12.65 8.44 -29.53 0 -29.52 -4.22 -12.66 -4.22 -12.65 -4.22 -16.87 -8.43 -12.66 -4.22 -12.65 -12.66 -12.65 -12.66 -12.66 -12.65 -12.65 -12.65 -8.44 -12.65 -8.43 -21.09 -8.44 -25.31 -4.21zm29.53 67.49l12.65 8.44 12.66 12.65 12.66 16.87 4.21 12.65 4.22 16.88 0 16.87 -4.22 16.87 -12.65 16.87 -12.65 16.88 -16.88 16.87 -12.66 8.43 -8.43 4.22 -21.09 12.66 -16.87 4.21 -16.87 0 -16.88 0 -16.87 -8.43 -12.65 -8.44 -12.66 -12.65 -12.65 -12.66 -4.22 -16.87 -4.22 -16.87 4.22 -16.87 4.22 -16.88 8.44 -16.87 12.65 -16.87 16.87 -16.87 12.66 -8.44 8.43 -4.22 21.09 -12.66 16.87 -4.22 16.88 0 16.87 0 16.87 8.44z"/>
   <polygon class="fil1" points="4179.6,1856.53 4162.73,1852.31 4141.63,1852.31 4116.33,1856.53 4095.24,1860.75 4074.15,1873.4 4057.27,1881.84 4040.4,1894.49 4023.53,1907.15 4010.87,1924.03 3998.22,1940.89 3989.78,1957.77 3985.56,1974.65 3981.35,1995.74 3981.35,2016.83 3985.56,2037.92 3989.78,2059.01 3998.22,2080.1 4019.31,2109.63 4031.96,2126.5 4044.62,2139.15 4074.15,2160.25 4086.81,2168.69 4099.45,2177.12 4209.13,2122.28 4154.3,2004.17 4107.9,2025.26 4137.42,2088.54 4099.45,2105.41 4086.81,2096.97 4069.93,2084.32 4057.27,2067.45 4044.62,2054.79 4040.4,2033.7 4036.18,2016.83 4036.18,1999.95 4044.62,1983.07 4053.06,1966.21 4065.71,1953.56 4082.59,1940.89 4103.68,1928.24 4128.99,1919.8 4137.42,1915.59 4145.86,1911.37 4166.95,1911.37 4183.83,1915.59 4200.7,1924.03 4213.35,1932.46 4226.01,1945.12 4234.44,1961.98 4242.88,1974.65 4242.88,1987.3 4242.88,2008.39 4242.88,2016.83 4238.66,2029.48 4230.22,2037.92 4221.79,2046.36 4259.75,2096.97 4268.19,2088.54 4276.63,2080.1 4289.28,2067.45 4297.72,2050.57 4301.93,2029.48 4301.93,2021.04 4301.93,2008.39 4301.93,1987.3 4293.5,1966.21 4285.06,1940.89 4272.41,1919.8 4263.97,1902.94 4251.32,1890.28 4238.66,1881.84 4221.79,1869.19 4200.7,1860.75 "/>
   <polygon class="fil1" points="4234.44,2307.89 4107.9,2341.63 4124.77,2400.69 4251.32,2366.94 4449.58,2430.22 4432.7,2358.51 4297.72,2324.76 4394.74,2223.52 4377.87,2156.03 "/>
   <path class="fil1" d="M4470.67 2590.51l-316.38 -88.58 4.21 63.27 71.72 21.09 12.65 118.11 -67.49 33.74 4.22 63.29 295.29 -143.43 -4.22 -67.5zm-181.39 92.81l-4.22 -84.36 113.9 29.52 -109.67 54.84z"/>
   <polygon class="fil1" points="4479.1,2894.23 4171.17,2856.27 4162.73,2915.32 4255.54,2927.98 4301.93,2982.81 4150.08,3046.1 4137.42,3126.24 4339.9,3029.22 4445.36,3155.77 4453.8,3075.62 4339.9,2936.41 4470.67,2953.29 "/>
   <path class="fil1" d="M4390.52 3358.25l-253.11 -210.91 -21.09 63.27 59.06 46.4 -42.18 113.9 -71.71 4.22 -25.31 59.06 333.25 -12.65 21.09 -63.28zm-202.48 12.66l29.53 -80.15 92.81 75.92 -122.33 4.22z"/>
   <path class="fil1" d="M4276.63 3640.87l-265.75 -160.3 -29.52 54.84 109.67 67.49 -8.44 8.43 -8.44 16.88 -8.43 8.44 -8.44 4.22c-40.32,13.44 -104.8,10.4 -147.64,12.65l-37.97 63.27c71.35,0 104.99,4.43 168.73,-21.09l-4.22 16.88c-19.69,78.8 62.17,138.52 130.77,92.81l8.43 -8.44 8.44 -12.65 25.3 -33.75 67.49 -109.67zm-185.6 54.83l16.87 -29.52 25.31 -42.19 67.49 42.19 -25.31 42.18 -29.52 42.18c-14.59,20.85 -48.89,3.5 -59.06,-16.87l-4.22 -8.43 0 -12.66 8.44 -16.88z"/>
   <polygon class="fil1" points="3981.35,3974.12 3791.52,3801.17 3753.56,3847.57 3943.38,4020.52 3880.11,4083.79 3918.07,4121.76 4082.59,3940.37 4044.62,3906.63 "/>
   <path class="fil1" d="M3791.52 4235.65l-101.24 -312.15 -50.61 42.18 25.31 67.49 -97.02 80.15 -63.27 -37.97 -50.62 37.97 286.84 164.51 50.62 -42.18zm-109.67 -147.64l37.96 113.89 -101.24 -63.27 63.27 -50.62z"/>
  </g>
 </g>
</svg>
