<?xml version="1.0" encoding="UTF-8"?>
<!DOCTYPE svg PUBLIC "-//W3C//DTD SVG 1.1//EN" "http://www.w3.org/Graphics/SVG/1.1/DTD/svg11.dtd">
<!-- Creator: CorelDRAW 2021.5 -->
<svg xmlns="http://www.w3.org/2000/svg" xml:space="preserve" width="5.51181in" height="5.51181in" version="1.1" style="shape-rendering:geometricPrecision; text-rendering:geometricPrecision; image-rendering:optimizeQuality; fill-rule:evenodd; clip-rule:evenodd"
viewBox="0 0 5511.81 5511.81"
 xmlns:xlink="http://www.w3.org/1999/xlink"
 xmlns:xodm="http://www.corel.com/coreldraw/odm/2003">
 <defs>
  <style type="text/css">
   <![CDATA[
    .str0 {stroke:white;stroke-width:6.94;stroke-miterlimit:2.61313}
    .fil1 {fill:none}
    .fil6 {fill:#FEFEFE}
    .fil10 {fill:#332C2B}
    .fil3 {fill:#FFF000}
    .fil9 {fill:black}
    .fil2 {fill:#000094}
    .fil5 {fill:#008131}
    .fil8 {fill:#EA3313}
    .fil4 {fill:#FFF100}
    .fil7 {fill:white}
    .fil0 {fill:white}
   ]]>
  </style>
 </defs>
 <g id="Layer_x0020_1">
  <metadata id="CorelCorpID_0Corel-Layer"/>
  <g id="UNY_x0020__x0028_Universitas_x0020_Negeri_x0020_Yogyakarta_x0029__x0020_Logo_x0020__x0028_CDR2020_x0029__x0020_-_x0020_Vector69Com.cdr">
   <path class="fil0 str0" d="M4103.03 964.19c194.45,-13.79 431.28,123.72 599.79,473.59 146.53,304.23 248.39,521.28 421.04,604.22 5.63,-1.87 6.89,1.94 1.27,3.82 -88.24,169.99 -39.35,404.72 26.19,735.98 75.76,383.01 -32.58,635.86 -197.85,740.58l-0.2 0.37c68.92,182.05 5.69,448.02 -279.67,710.26 -248.64,228.48 -426.82,388.93 -456.11,578.2 3.43,4.83 0.15,7.16 -3.28,2.32 -188.28,-35.13 -398.73,79.75 -696.74,238.55 -343.5,183.04 -616.28,153.45 -764.75,26.67 -148.48,126.78 -421.24,156.38 -764.75,-26.66 -298.01,-158.81 -508.46,-273.69 -696.74,-238.56 -3.44,4.84 -6.71,2.52 -3.28,-2.32 -29.3,-189.28 -207.47,-349.72 -456.12,-578.21 -285.93,-262.75 -348.83,-529.27 -279.25,-711.35 -164.62,-105.16 -272.3,-357.72 -196.72,-739.85 65.53,-331.27 114.43,-566 26.19,-735.99 -5.62,-1.88 -4.35,-5.69 1.27,-3.82 172.64,-82.93 274.5,-299.99 421.04,-604.22 169.43,-351.76 407.9,-488.89 602.93,-473.38l0.2 -0.09c48,-189.17 253.45,-370.82 639.34,-420.02 334.98,-42.7 573.11,-70.61 706.43,-208.12 0,-5.94 4.02,-5.94 4.02,0 133.32,137.51 371.46,165.42 706.43,208.12 385.8,49.19 591.25,230.77 639.31,419.9zm-39.54 52.52c188.75,-13.39 418.63,120.09 582.22,459.71 142.24,295.32 241.11,506.01 408.7,586.52 5.46,-1.82 6.69,1.88 1.23,3.7 -85.65,165.01 -38.19,392.86 25.42,714.42 73.54,371.79 -31.63,617.24 -192.04,718.89l-0.2 0.35c66.9,176.72 5.53,434.9 -271.47,689.44 -241.36,221.79 -414.31,377.53 -442.74,561.26 3.33,4.7 0.15,6.96 -3.19,2.26 -182.76,-34.11 -387.04,77.41 -676.33,231.56 -333.44,177.67 -598.22,148.95 -742.34,25.88 -144.13,123.07 -408.9,151.8 -742.34,-25.88 -289.28,-154.15 -493.56,-265.67 -676.33,-231.56 -3.33,4.7 -6.51,2.44 -3.19,-2.26 -28.44,-183.73 -201.39,-339.47 -442.75,-561.27 -277.55,-255.05 -338.61,-513.76 -271.06,-690.51 -159.8,-102.07 -264.32,-347.24 -190.96,-718.17 63.61,-321.56 111.07,-549.41 25.42,-714.42 -5.46,-1.82 -4.23,-5.52 1.23,-3.7 167.59,-80.5 266.46,-291.2 408.7,-586.52 164.46,-341.44 395.94,-474.56 585.26,-459.51l0.19 -0.09c46.6,-183.62 246.03,-359.96 620.61,-407.71 325.16,-41.44 556.31,-68.54 685.72,-202.02 0,-5.76 3.91,-5.76 3.91,0 129.41,133.48 360.57,160.58 685.73,202.02 374.5,47.75 573.93,224.02 620.58,407.6z"/>
   <path class="fil0 str0" d="M4063.49 1016.72c188.75,-13.39 418.63,120.09 582.22,459.71 142.24,295.32 241.11,506.01 408.7,586.52 5.46,-1.82 6.69,1.88 1.23,3.7 -85.65,165.01 -38.19,392.86 25.42,714.42 73.54,371.79 -31.63,617.24 -192.04,718.89l-0.2 0.35c66.9,176.72 5.53,434.9 -271.47,689.44 -241.36,221.79 -414.31,377.53 -442.74,561.26 3.33,4.7 0.15,6.96 -3.19,2.26 -182.76,-34.11 -387.04,77.41 -676.33,231.56 -333.44,177.67 -598.22,148.95 -742.34,25.88 -144.13,123.07 -408.9,151.8 -742.34,-25.88 -289.28,-154.15 -493.56,-265.67 -676.33,-231.56 -3.33,4.7 -6.51,2.44 -3.19,-2.26 -28.44,-183.73 -201.39,-339.47 -442.75,-561.27 -277.55,-255.05 -338.61,-513.76 -271.06,-690.51 -159.8,-102.07 -264.32,-347.24 -190.96,-718.17 63.61,-321.56 111.07,-549.41 25.42,-714.42 -5.46,-1.82 -4.23,-5.52 1.23,-3.7 167.59,-80.5 266.46,-291.2 408.7,-586.52 164.46,-341.44 395.94,-474.56 585.26,-459.51l0.19 -0.09c46.6,-183.62 246.03,-359.96 620.61,-407.71 325.16,-41.44 556.31,-68.54 685.72,-202.02 0,-5.76 3.91,-5.76 3.91,0 129.41,133.48 360.57,160.58 685.73,202.02 374.5,47.75 573.93,224.02 620.58,407.6zm-57.54 76.42c180.46,-12.8 400.25,114.81 556.65,439.52 135.99,282.35 230.53,483.79 390.75,560.76 5.22,-1.74 6.4,1.8 1.18,3.54 -81.89,157.76 -36.52,375.61 24.3,683.04 70.3,355.46 -30.24,590.13 -183.61,687.32l-0.19 0.33c63.96,168.96 5.29,415.8 -259.54,659.17 -230.76,212.05 -396.11,360.95 -423.3,536.61 3.18,4.49 0.14,6.65 -3.05,2.16 -174.73,-32.61 -370.04,74.01 -646.62,221.39 -318.79,169.87 -571.94,142.41 -709.74,24.74 -137.8,117.66 -390.94,145.13 -709.74,-24.74 -276.57,-147.38 -471.88,-254 -646.62,-221.39 -3.19,4.49 -6.23,2.33 -3.04,-2.16 -27.19,-175.66 -192.54,-324.56 -423.3,-536.61 -265.35,-243.85 -323.74,-491.19 -259.16,-660.18 -152.78,-97.59 -252.71,-331.98 -182.57,-686.63 60.81,-307.44 106.19,-525.28 24.3,-683.04 -5.22,-1.74 -4.04,-5.28 1.18,-3.54 160.22,-76.97 254.75,-278.41 390.75,-560.76 157.24,-326.45 378.56,-453.71 559.56,-439.33l0.19 -0.08c44.55,-175.56 235.22,-344.15 593.35,-389.8 310.88,-39.63 531.88,-65.54 655.61,-193.15 0,-5.5 3.73,-5.51 3.73,0 123.73,127.62 344.73,153.53 655.61,193.15 358.05,45.65 548.72,214.17 593.32,389.69z"/>
   <path class="fil0 str0" d="M4005.96 1093.14c180.46,-12.8 400.25,114.81 556.65,439.52 135.99,282.35 230.53,483.79 390.75,560.76 5.22,-1.74 6.4,1.8 1.18,3.54 -81.89,157.76 -36.52,375.61 24.3,683.04 70.3,355.46 -30.24,590.13 -183.61,687.32l-0.19 0.33c63.96,168.96 5.29,415.8 -259.54,659.17 -230.76,212.05 -396.11,360.95 -423.3,536.61 3.18,4.49 0.14,6.65 -3.05,2.16 -174.73,-32.61 -370.04,74.01 -646.62,221.39 -318.79,169.87 -571.94,142.41 -709.74,24.74 -137.8,117.66 -390.94,145.13 -709.74,-24.74 -276.57,-147.38 -471.88,-254 -646.62,-221.39 -3.19,4.49 -6.23,2.33 -3.04,-2.16 -27.19,-175.66 -192.54,-324.56 -423.3,-536.61 -265.35,-243.85 -323.74,-491.19 -259.16,-660.18 -152.78,-97.59 -252.71,-331.98 -182.57,-686.63 60.81,-307.44 106.19,-525.28 24.3,-683.04 -5.22,-1.74 -4.04,-5.28 1.18,-3.54 160.22,-76.97 254.75,-278.41 390.75,-560.76 157.24,-326.45 378.56,-453.71 559.56,-439.33l0.19 -0.08c44.55,-175.56 235.22,-344.15 593.35,-389.8 310.88,-39.63 531.88,-65.54 655.61,-193.15 0,-5.5 3.73,-5.51 3.73,0 123.73,127.62 344.73,153.53 655.61,193.15 358.05,45.65 548.72,214.17 593.32,389.69z"/>
   <path class="fil0 str0" d="M2753.59 3986.33l-4.18 0.23c-287.26,-15.52 -595.77,-26.39 -847.46,-183.69 -246.1,-184.59 -361.72,-277.86 -484.26,-571.92 118.79,71.26 179.85,94.8 317.27,108.53l-8.35 -20.87c-164.32,-164.2 -342.32,-48.38 -342.32,-434.16l0 -54.27 12.52 25.04 8.35 25.06 12.52 25.05c64.22,107 226.78,117 333.97,200.38l0 -12.52 0 -12.53 0 -8.34 -4.17 -12.53 -8.35 -16.69 -12.52 -16.7 -8.35 -8.35c-223.45,-148.97 -381.97,-180.37 -296.4,-551.05l16.69 -54.27 16.7 62.62 12.53 25.06c48.45,145.4 250.96,249.41 379.89,317.26l-4.18 -20.87 -8.35 -16.69c-43.85,-131.66 -644.25,-358.24 -150.28,-797.36 -119.46,398.06 122.87,424.66 346.49,692.99 62.19,-186.54 -409.91,-222.46 -275.53,-692.99 113.96,-265.78 305.78,-353.95 571.93,-429.98l91.85 -25.06 -62.62 29.22 -58.44 29.22c-145.4,96.95 -258.83,285.81 -258.83,463.39l0 20.87 4.17 45.93 0 25.05c46.96,234.43 215.43,254.83 308.93,488.43l4.17 45.92 0 25.06c-15.34,76.74 -61.09,109.28 -141.94,133.58 -136.11,40.92 6.29,160.78 20.87,204.56l4.17 12.53 0 16.7 -4.17 16.7 -8.35 20.87c-55.58,111.2 -254.65,290.57 -254.65,409.11l4.17 20.87 4.17 20.87c43.61,261.76 572.55,306.09 772.32,321.44 199.77,-15.36 728.7,-59.69 772.31,-321.44l4.17 -20.87 4.17 -20.87c0,-118.54 -199.07,-297.91 -254.65,-409.11l-8.36 -20.87 -4.17 -16.7 0 -16.7 4.17 -12.53c16.17,-48.5 148.98,-167.06 20.87,-204.56 -81.02,-23.71 -126.6,-56.84 -141.94,-133.58l0 -25.06 4.17 -45.92c93.5,-233.6 261.96,-254 308.93,-488.43l0 -25.05 4.17 -45.93 0 -20.87c0,-177.58 -113.43,-366.44 -258.83,-463.39l-58.44 -29.22 -62.62 -29.22 91.85 25.06c266.15,76.04 457.96,164.2 571.92,429.98 134.39,470.52 -337.71,506.44 -275.53,692.99 223.62,-268.33 465.95,-294.93 346.49,-692.99 493.97,439.12 -106.43,665.7 -150.28,797.36l-8.34 16.69 -4.19 20.87c128.94,-67.86 331.44,-171.87 379.89,-317.26l12.53 -25.06 16.7 -62.62 16.69 54.27c85.57,370.68 -72.94,402.08 -296.39,551.05l-8.35 8.35 -12.52 16.7 -8.35 16.69 -4.17 12.53 0 8.34 0 12.53 0 12.52c107.19,-83.38 269.76,-93.39 333.98,-200.38l12.52 -25.05 8.35 -25.06 12.52 -25.04 0 54.27c0,385.78 -178,269.96 -342.32,434.16l-8.35 20.87c137.43,-13.73 198.48,-37.27 317.28,-108.53 -122.54,294.06 -238.16,387.33 -484.26,571.92 -251.69,157.3 -560.2,168.17 -847.46,183.69l-4.18 -0.23z"/>
   <path class="fil0 str0" d="M2753.59 3819.58c-54.97,-30.54 -99.02,-62.16 -158.64,-83.49 -124.48,-44.56 -255.36,-58.3 -375.72,-112.72 -106.95,-48.35 -74.16,-97.35 -41.74,-179.51 41.57,-105.35 160.01,-257.62 217.08,-371.54 48.58,-96.98 54.06,-144.89 16.7,-250.48 -2.93,-8.28 -21.68,-16.46 -25.05,-8.36 -6.96,16.69 -4.73,41.96 -20.88,50.1 -19.21,9.7 -54.23,-7.05 -83.49,0 -129.88,31.32 22.67,118.09 41.74,175.33 12.64,25.26 -238.3,363.85 -271.35,417.47 -31.61,51.26 -28.32,106.59 12.53,154.46 107.76,126.28 472.78,235.12 688.81,237.89 216.04,-2.77 581.05,-111.61 688.81,-237.89 40.85,-47.87 44.14,-103.2 12.53,-154.46 -33.05,-53.63 -283.99,-392.21 -271.35,-417.47 19.07,-57.23 171.63,-144.01 41.74,-175.33 -29.26,-7.05 -64.28,9.7 -83.49,0 -16.15,-8.15 -13.93,-33.41 -20.88,-50.1 -3.37,-8.1 -22.11,0.08 -25.05,8.36 -37.35,105.58 -31.87,153.5 16.7,250.48 57.07,113.92 175.51,266.19 217.08,371.54 32.42,82.16 65.21,131.16 -41.74,179.51 -120.36,54.43 -251.24,68.16 -375.72,112.72 -59.62,21.33 -103.67,52.95 -158.63,83.49z"/>
   <path class="fil0 str0" d="M2609.56 4404.04c0,-91.2 -19,-243.22 4.17,-325.62 14.11,-50.17 45.91,-67.77 91.85,-66.8 82.7,1.75 143.51,26.09 158.64,116.89l0 41.74c30.59,-24.35 19.48,-23.66 58.44,-33.39 75,0 108.87,43.09 83.49,100.19 -5.57,12.52 -11.14,25.05 -16.7,37.57 -13.91,31.29 -5.68,92.66 29.22,96.01 81.87,7.86 39.3,-167.29 37.57,-217.07l45.93 -8.35c3.35,60.29 25.91,375.31 -75.15,425.81 -22.46,14.97 -32.76,18.62 -58.45,25.06 -187.72,20.85 -436.27,-145.96 -521.83,25.05 -23.65,59.16 -10.82,84.33 45.92,112.71 82.62,33.08 215.56,36.2 304.76,25.06 123.49,-35.31 150.11,-75.96 229.61,-171.17 18.04,-21.6 60.09,-41.41 87.66,-41.74 59.13,-0.7 79.32,27.7 79.32,79.32 -35.76,-53.7 -51.29,-37.37 -79.32,0 -38.74,51.68 -114.01,143.01 -171.15,171.16 -88.88,43.78 -153.51,51.09 -250.49,45.93 -111.46,-5.93 -179.04,-13.61 -275.52,-70.97 -65.58,-38.99 -82.68,-98.06 -70.98,-166.98 25.6,-150.69 162.53,-187.39 296.41,-162.81 84.39,15.5 275.69,103.34 317.27,96.02 58.81,-10.35 87.67,-59.97 87.67,-121.07 -29.06,9.68 -37.52,23.27 -70.97,16.69 -50.82,-10 -77.82,-31.22 -87.67,-79.31 -12.71,-62.08 4.17,-125.51 4.17,-187.86l-29.22 12.52 0 225.43 -100.19 8.34c0,-93.23 0,-186.46 0,-279.69 0,-46.54 -18.19,-59.94 -54.28,-58.44 -30.79,1.27 -40.6,29.44 -41.75,54.26 -3.74,81.09 40.92,275.53 -58.44,275.53zm-150.28 29.21c-93.13,0 -146.11,-51.68 -146.11,-129.41l0 -154.47 108.54 0c0,58.45 0,116.9 0,175.34 0,56.27 79.32,87.22 79.32,29.22l0 -208.74 96.02 -4.17 4.17 171.15c-15.59,78.02 -52.23,102.81 -125.24,121.06l-16.7 0z"/>
   <polygon class="fil0 str0" points="1918.66,1440.03 1776.72,1172.86 1831,1143.63 2031.38,1264.69 1939.54,1089.37 1989.64,1060.14 2131.57,1327.32 2077.3,1356.54 1881.09,1239.65 1972.94,1414.99 "/>
   <polygon class="fil0 str0" points="2210.89,1302.27 2123.22,1014.22 2336.13,947.43 2348.66,997.52 2194.19,1043.44 2215.07,1110.24 2361.18,1064.32 2373.7,1114.41 2231.77,1156.16 2252.64,1235.48 2415.45,1185.39 2432.15,1235.48 "/>
   <polygon class="fil0 str0" points="2632.54,1101.88 2628.35,1051.79 2761.94,1043.44 2770.3,1164.5 2757.77,1172.86 2745.24,1181.2 2732.73,1189.56 2716.03,1197.9 2678.45,1214.6 2640.88,1218.78 2620.01,1218.78 2599.13,1218.78 2578.26,1210.43 2557.39,1206.26 2540.69,1193.73 2528.17,1181.2 2511.47,1168.69 2503.11,1151.98 2494.77,1135.28 2486.41,1114.41 2482.24,1093.54 2478.07,1072.67 2478.07,1051.79 2482.24,1026.75 2486.41,1005.87 2494.77,989.17 2503.11,968.3 2515.64,955.77 2528.17,939.07 2549.04,926.56 2561.56,922.37 2578.26,914.03 2599.13,909.85 2620.01,909.85 2645.05,905.68 2670.11,909.85 2678.45,914.03 2690.98,918.2 2699.33,922.37 2707.67,926.56 2724.37,939.07 2736.9,951.6 2745.24,968.3 2753.6,989.17 2695.15,1001.69 2682.63,985 2674.28,976.65 2665.93,968.3 2657.58,964.13 2645.05,959.94 2636.71,959.94 2624.18,959.94 2611.66,959.94 2603.31,964.13 2594.96,964.13 2586.61,968.3 2578.26,972.47 2569.92,976.65 2561.56,989.17 2553.22,997.52 2549.04,1005.87 2544.86,1014.22 2544.86,1022.56 2540.69,1043.44 2540.69,1064.32 2544.86,1089.37 2549.04,1101.88 2549.04,1114.41 2557.39,1131.11 2569.92,1143.63 2582.43,1156.16 2599.13,1164.5 2615.83,1164.5 2636.71,1168.69 2653.41,1164.5 2674.28,1156.16 2690.98,1147.81 2703.5,1135.28 2703.5,1097.71 "/>
   <polygon class="fil0 str0" points="2849.61,1210.43 2891.37,909.85 3112.61,939.07 3108.44,989.17 2945.63,968.3 2937.28,1035.09 3087.57,1055.96 3079.22,1106.07 2928.93,1085.19 2916.41,1168.69 3083.39,1189.56 3079.22,1239.65 "/>
   <path class="fil0 str0" d="M3146.01 1252.18l100.19 -283.88 121.06 41.75 37.57 12.52 25.05 16.7 8.35 8.35 8.34 8.35 4.17 8.35 4.17 12.52 0 12.53 0 12.52 0 12.53 -4.17 12.53 -8.34 16.69 -8.36 12.53 -8.34 8.35 -12.53 8.35 -12.52 8.34 -16.7 0 -16.7 4.19 -16.7 -4.19 12.53 16.7 8.34 16.7 8.35 25.05 8.35 33.4 16.7 66.79 -70.97 -20.87 -16.69 -79.32 -12.53 -33.39 -4.17 -16.7 -8.35 -12.53 -8.35 -8.35 -8.34 -4.18 -16.7 -8.35 -12.53 -4.17 -41.75 121.06 -58.44 -20.87zm116.89 -141.94l41.74 12.52 33.4 12.53 16.69 0 12.53 0 8.36 -4.17 8.34 -8.35 4.17 -12.52 4.17 -12.53 0 -12.52 -4.17 -8.35 -4.17 -4.17 -4.17 -4.17 -8.35 -4.17 -41.74 -12.53 -41.75 -16.7 -25.04 75.15z"/>
   <polygon class="fil0 str0" points="3438.24,1364.89 3571.83,1093.54 3626.1,1122.76 3492.51,1394.11 "/>
   <polygon class="fil0 str0" points="3722.12,1540.22 3801.44,1444.2 3826.48,1235.48 3884.93,1281.39 3859.88,1419.16 3993.47,1369.07 4047.74,1414.99 3851.53,1481.78 3768.04,1577.8 "/>
   <path class="fil0 str0" d="M4001.82 1581.97l16.69 -12.52 16.7 -12.53 16.7 -8.35 16.7 -4.18 25.04 -4.17 25.05 0 25.06 4.17 20.87 8.35 12.52 8.35 12.53 8.35 12.52 12.52 12.53 12.53 12.53 12.52 4.17 12.53 8.34 12.53 4.19 16.69 4.17 12.53 4.17 12.53 0 29.22 -8.34 29.23 -4.19 12.52 -8.34 12.53 -8.35 12.52 -12.53 12.53 -12.53 12.53 -12.52 12.52 -29.23 16.7 -12.52 8.35 -16.7 8.35 -12.53 4.17 -16.7 0 -12.52 4.17 -12.53 0 -16.7 -4.17 -12.52 -4.17 -12.53 -4.17 -12.53 -4.17 -12.52 -8.35 -12.53 -8.34 -20.87 -25.05 -4.17 -4.18 -8.35 -8.35 -8.35 -12.53 -4.17 -12.52 -4.17 -16.7 -4.18 -12.53 -4.17 -12.52 0 -29.23 4.17 -12.52 4.18 -12.53 4.17 -16.7 8.35 -12.53 20.87 -25.05 8.35 -8.35 16.7 -12.53zm37.56 45.92l-16.69 16.7 -12.53 16.7 -8.34 16.7 -4.19 16.7 -4.17 16.7 4.17 16.69 4.19 16.7 12.52 12.53 12.53 12.52 12.52 8.35 16.7 8.35 16.7 0 16.7 0 16.7 -4.17 20.87 -12.53 8.35 -4.17 12.53 -8.35 16.7 -16.7 12.52 -16.7 12.53 -16.7 4.17 -16.69 0 -16.7 -4.17 -16.7 -4.17 -12.53 -12.53 -16.7 -12.53 -12.52 -12.52 -8.35 -16.7 -8.35 -16.7 0 -16.7 0 -16.7 4.17 -20.87 12.53 -8.35 4.17 -12.53 8.35z"/>
   <polygon class="fil0 str0" points="4269,2032.84 4314.92,2011.96 4369.19,2128.85 4260.64,2183.12 4248.12,2174.78 4235.59,2166.42 4206.38,2145.55 4193.85,2133.02 4181.32,2116.33 4160.45,2087.1 4152.11,2066.23 4147.93,2045.35 4143.76,2024.48 4143.76,2003.61 4147.93,1982.74 4152.11,1966.04 4160.45,1949.34 4172.98,1932.65 4185.5,1915.94 4202.2,1903.42 4218.9,1890.89 4235.59,1882.55 4256.47,1870.02 4277.34,1865.85 4302.39,1861.67 4323.26,1861.67 4339.96,1865.85 4360.83,1870.02 4381.71,1878.37 4398.41,1890.89 4410.93,1899.24 4423.45,1911.77 4431.81,1928.46 4444.33,1949.34 4452.68,1974.39 4461.03,1995.26 4461.03,2016.14 4461.03,2028.66 4461.03,2037.01 4456.85,2057.88 4448.51,2074.58 4435.98,2087.1 4427.63,2095.46 4419.28,2103.8 4381.71,2053.71 4390.06,2045.35 4398.41,2037.01 4402.58,2024.48 4402.58,2016.14 4402.58,1995.26 4402.58,1982.74 4394.24,1970.21 4385.89,1953.52 4373.36,1940.99 4360.83,1932.65 4344.14,1924.29 4327.44,1920.12 4306.57,1920.12 4298.22,1924.29 4289.87,1928.46 4264.82,1936.82 4243.95,1949.34 4227.25,1961.87 4214.72,1974.39 4206.38,1991.08 4198.02,2007.78 4198.02,2024.48 4202.2,2041.19 4206.38,2062.06 4218.9,2074.58 4231.43,2091.28 4248.12,2103.8 4260.64,2112.15 4298.22,2095.46 "/>
   <polygon class="fil0 str0" points="4269,2345.93 4394.24,2312.53 4536.17,2162.25 4552.87,2229.04 4456.85,2329.23 4590.44,2362.63 4607.15,2433.59 4410.93,2370.98 4285.7,2404.38 "/>
   <path class="fil0 str0" d="M4339.96 2800.97l-4.17 -62.63 66.79 -33.39 -12.52 -116.89 -70.98 -20.87 -4.17 -62.62 313.1 87.66 4.17 66.8 -292.23 141.94zm108.55 -116.89l108.54 -54.27 -112.72 -29.22 4.18 83.49z"/>
   <polygon class="fil0 str0" points="4331.61,2855.24 4636.37,2892.81 4628.02,2951.26 4498.6,2934.56 4611.32,3072.32 4602.96,3151.64 4498.6,3026.4 4298.22,3122.42 4310.74,3043.1 4461.03,2980.47 4415.11,2926.21 4323.26,2913.68 "/>
   <path class="fil0 str0" d="M4198.02 3427.17l25.06 -58.44 70.96 -4.17 41.74 -112.72 -58.44 -45.92 20.87 -62.62 250.48 208.73 -20.87 62.62 -329.8 12.53zm150.29 -62.62l121.07 -4.18 -91.85 -75.14 -29.22 79.32z"/>
   <path class="fil0 str0" d="M4172.98 3473.09l263 158.64 -66.79 108.54 -25.05 33.4 -8.35 12.52 -8.34 8.35c-67.89,45.24 -148.91,-13.86 -129.42,-91.85l4.17 -16.7c-63.08,25.26 -96.37,20.87 -166.98,20.87l37.57 -62.62c42.4,-2.23 106.21,0.78 146.11,-12.52l8.35 -4.17 8.34 -8.35 8.36 -16.7 8.34 -8.35 -108.54 -66.79 29.22 -54.28zm121.07 141.94l-25.05 41.75 -16.7 29.22 -8.34 16.7 0 12.53 4.17 8.35c10.07,20.16 44.01,37.33 58.45,16.7l29.22 -41.75 25.05 -41.74 -66.79 -41.75z"/>
   <polygon class="fil0 str0" points="3955.89,3790.36 4143.76,3961.52 4206.38,3894.73 4243.95,3928.12 4081.13,4107.63 4043.57,4070.06 4106.19,4007.44 3918.32,3836.28 "/>
   <path class="fil0 str0" d="M3621.93 4099.28l50.09 -37.57 62.62 37.57 96.02 -79.32 -25.05 -66.79 50.09 -41.74 100.19 308.92 -50.09 41.74 -283.88 -162.81zm162.81 25.05l100.19 62.62 -37.57 -112.71 -62.62 50.09z"/>
   <polygon class="fil0 str0" points="1634.79,4295.5 1588.87,4253.75 1697.41,4128.5 1726.63,4086.76 1730.81,4070.06 1734.98,4061.71 1730.81,4053.37 1730.81,4045.01 1722.46,4036.67 1709.93,4019.96 1689.06,4007.44 1680.72,4003.26 1672.36,4003.26 1655.66,4003.26 1643.14,4011.62 1626.44,4028.31 1605.57,4049.19 1497.02,4178.6 1451.1,4141.03 1555.47,4019.96 1584.7,3982.39 1605.57,3961.52 1626.44,3948.99 1634.79,3948.99 1647.31,3944.82 1668.19,3944.82 1689.06,3948.99 1701.59,3953.17 1714.11,3961.52 1739.15,3978.22 1755.85,3990.75 1768.38,4003.26 1785.08,4028.31 1793.43,4049.19 1793.43,4061.71 1793.43,4070.06 1793.43,4090.94 1789.25,4099.28 1785.08,4107.63 1776.72,4120.16 1768.38,4136.86 1739.15,4170.25 "/>
   <polygon class="fil0 str0" points="1593.04,3848.81 1355.09,4036.67 1317.52,3990.75 1396.83,3773.67 1238.2,3898.9 1204.8,3852.98 1438.59,3660.94 1480.33,3711.04 1401.01,3928.12 1555.47,3802.88 "/>
   <polygon class="fil0 str0" points="1401.01,3594.15 1142.18,3752.79 1108.78,3698.52 1371.78,3544.05 "/>
   <polygon class="fil0 str0" points="1309.17,3414.64 1067.04,3623.37 1041.99,3564.93 1221.5,3414.64 983.54,3427.17 958.5,3368.72 1284.12,3356.2 "/>
   <polygon class="fil0 str0" points="1229.85,3205.91 933.44,3268.53 883.35,3051.45 937.63,3043.1 971.02,3201.73 1033.64,3185.04 1004.42,3038.92 1054.51,3030.57 1083.74,3176.69 1167.23,3159.98 1129.65,2993 1179.76,2984.66 "/>
   <path class="fil0 str0" d="M1175.57 2917.85l-304.75 4.18 0 -125.24 0 -41.75 4.18 -29.22 4.17 -12.53 8.34 -8.35 8.36 -8.35 8.34 -8.35 12.53 -4.17 8.35 -4.17 29.23 -4.19 12.52 0 16.7 4.19 8.35 4.17 4.18 0 12.52 8.35 12.53 12.53 8.35 12.52 4.17 16.7 4.18 16.7 12.52 -16.7 12.53 -16.7 20.87 -12.52 29.22 -20.87 58.44 -37.57 0 70.96 -66.79 45.93 -25.05 20.87 -16.7 12.52 -8.35 8.35 -4.17 8.35 -4.17 12.53 0 20.87 0 12.52 129.41 -4.17 0 62.62zm-175.33 -58.44l0 -45.92 -4.17 -33.39 -4.18 -20.87 -4.17 -8.36 -8.35 -8.34 -8.35 -4.19 -12.52 0 -16.7 0 -4.17 4.19 -4.18 4.17 -8.35 8.34 -4.17 12.53 0 45.92 0 45.92 79.32 0z"/>
   <polygon class="fil0 str0" points="1079.56,2592.23 1083.74,2533.79 1100.44,2533.79 1112.96,2529.61 1121.31,2525.44 1129.65,2521.27 1138.01,2512.91 1146.35,2504.57 1150.53,2492.04 1154.7,2479.52 1154.7,2467 1154.7,2454.47 1154.7,2441.95 1150.53,2433.59 1146.35,2425.25 1138.01,2421.08 1133.83,2416.91 1125.48,2412.72 1112.96,2412.72 1104.61,2416.91 1100.44,2421.08 1096.26,2425.25 1087.91,2437.78 1067.04,2479.52 1054.51,2500.4 1046.17,2517.1 1033.64,2529.61 1025.29,2542.14 1008.59,2550.49 991.89,2554.66 975.2,2558.84 966.84,2558.84 958.5,2554.66 945.97,2554.66 937.63,2550.49 916.75,2533.79 912.57,2525.44 904.22,2517.1 900.05,2504.57 895.88,2492.04 891.7,2479.52 891.7,2462.82 895.88,2433.59 904.22,2408.55 908.4,2396.03 912.57,2383.5 925.1,2366.8 937.63,2354.28 945.97,2350.11 954.33,2345.93 971.02,2337.59 991.89,2337.59 1012.76,2337.59 1004.42,2396.03 991.89,2400.2 983.54,2400.2 975.2,2404.38 966.84,2408.55 958.5,2412.72 954.33,2421.08 950.15,2441.95 945.97,2454.47 945.97,2467 950.15,2479.52 950.15,2487.87 958.5,2496.22 966.84,2500.4 979.37,2500.4 987.72,2496.22 996.07,2487.87 1000.24,2475.34 1016.94,2441.95 1037.82,2408.55 1041.99,2391.85 1050.33,2383.5 1058.69,2375.15 1067.04,2366.8 1079.56,2362.63 1087.91,2354.28 1100.44,2354.28 1112.96,2350.11 1125.48,2350.11 1138.01,2354.28 1150.53,2358.46 1163.06,2362.63 1183.93,2375.15 1192.28,2387.68 1196.46,2396.03 1204.8,2408.55 1208.97,2421.08 1208.97,2437.78 1208.97,2454.47 1208.97,2471.17 1204.8,2487.87 1200.63,2517.1 1188.1,2537.97 1175.57,2554.66 1163.06,2571.36 1146.35,2579.72 1125.48,2588.06 1104.61,2592.23 "/>
   <polygon class="fil0 str0" points="1242.37,2312.53 954.33,2220.69 975.2,2162.25 1263.25,2254.09 "/>
   <polygon class="fil0 str0" points="1313.34,2128.85 1083.74,2024.48 1046.17,2103.8 1000.24,2082.93 1100.44,1865.85 1146.35,1890.89 1108.78,1970.21 1338.39,2074.58 "/>
   <path class="fil0 str0" d="M1559.65 1744.78l-41.76 50.1 -70.96 -20.87 -70.98 100.19 41.75 58.44 -37.56 54.26 -179.51 -271.35 41.74 -54.28 317.28 83.49zm-162.82 16.7l-116.88 -33.4 66.79 100.19 50.09 -66.79z"/>
   <polygon class="fil0 str0" points="1513.72,1648.76 1555.47,1602.84 1563.82,1611.2 1576.34,1615.37 1588.87,1619.54 1601.4,1619.54 1609.74,1619.54 1622.27,1615.37 1630.61,1607.02 1643.14,1598.67 1647.31,1594.5 1651.49,1590.33 1659.83,1581.97 1664.02,1569.45 1664.02,1561.1 1664.02,1552.75 1664.02,1544.4 1659.83,1536.05 1655.66,1527.7 1647.31,1523.52 1638.96,1519.35 1630.61,1519.35 1613.91,1527.7 1572.17,1548.58 1551.3,1561.1 1530.42,1569.45 1513.72,1573.63 1501.2,1573.63 1484.5,1573.63 1467.8,1569.45 1451.1,1561.1 1438.59,1548.58 1430.23,1540.22 1426.06,1527.7 1417.7,1506.82 1417.7,1494.31 1417.7,1481.78 1421.89,1473.43 1426.06,1460.91 1430.23,1448.39 1438.59,1435.86 1463.63,1410.81 1471.98,1402.46 1480.33,1394.11 1501.2,1381.59 1522.08,1373.24 1542.95,1373.24 1551.3,1373.24 1559.65,1373.24 1580.52,1381.59 1588.87,1385.76 1597.21,1389.94 1613.91,1402.46 1568,1444.2 1559.65,1440.03 1551.3,1435.86 1534.59,1431.69 1526.25,1431.69 1513.72,1435.86 1505.38,1444.2 1497.02,1452.56 1480.33,1469.26 1476.15,1477.61 1471.98,1485.95 1476.15,1498.48 1480.33,1506.82 1484.5,1511 1488.68,1511 1492.85,1515.18 1497.02,1515.18 1509.55,1511 1522.08,1506.82 1555.47,1490.13 1588.87,1473.43 1618.09,1460.91 1638.96,1456.73 1664.02,1460.91 1684.89,1469.26 1693.23,1477.61 1701.59,1485.95 1709.93,1498.48 1718.28,1506.82 1722.46,1519.35 1726.63,1531.88 1726.63,1544.4 1726.63,1561.1 1722.46,1573.63 1718.28,1586.14 1701.59,1611.2 1693.23,1623.72 1676.54,1636.24 1668.19,1648.76 1655.66,1652.94 1634.79,1665.46 1626.44,1673.81 1613.91,1673.81 1597.21,1677.99 1576.34,1677.99 1555.47,1669.65 1534.59,1661.29 1526.25,1652.94 "/>
   <polyline class="fil1 str0" points="3342.6,3489.79 3350.95,3510.66 3350.95,3531.54 3350.95,3548.23 3346.78,3556.58 3342.6,3569.11 3334.26,3581.63 3321.73,3598.33 3313.38,3606.68 3300.85,3610.85 3279.98,3623.37 3254.93,3631.72 3204.84,3652.6 3150.57,3665.12 3100.47,3677.65 3050.38,3690.17 2996.11,3706.86 2908.44,3740.26 2866.69,3756.96 2820.77,3773.67 2770.68,3798.71 2745.63,3807.06 2724.76,3819.58 "/>
   <polygon class="fil0 str0" points="2728.93,2792.62 2440.88,2792.62 2420.01,2642.33 2465.93,2600.59 2566.12,2692.43 2683.01,2621.46 2733.1,2625.63 2787.37,2621.46 2908.44,2692.43 3004.46,2600.59 3050.38,2642.33 3033.68,2792.62 "/>
   <path class="fil0 str0" d="M2724.76 2592.23l-62.62 4.18 -96.02 58.44 -25.04 -58.44 108.53 -688.82 -79.32 -75.13 20.87 -66.8 45.92 8.36 25.06 37.57 12.52 -37.57 54.28 -4.19 66.79 4.19 16.7 37.57 25.05 -37.57 41.74 -8.36 20.87 66.8 -79.32 75.13 112.72 688.82 -25.04 58.44 -96.02 -58.44 -87.66 -4.18zm10.02 -698.52l15.97 33.64 15.98 33.63 -15.98 33.64 -0.95 2 0 147.36 0.95 2 15.98 33.63 -15.98 33.64 -0.95 2 0 187.72 0.95 2 15.98 33.64 -15.98 33.64 -15.97 33.63 -15.98 -33.63 -15.98 -33.64 15.98 -33.64 5.96 -12.54 0 -166.63 -5.96 -12.54 -15.98 -33.64 15.98 -33.63 5.96 -12.54 0 -126.27 -5.96 -12.54 -15.98 -33.64 15.98 -33.63 15.98 -33.64z"/>
   <path class="fil0 str0" d="M2741.46 3427.17l0 317.27 -29.23 0 0 -317.27c-60.19,-45.15 -49.5,-141.94 16.7,-141.94 64.73,0 73.98,100.79 12.53,141.94z"/>
   <path class="fil0 str0" d="M2854.17 1744.78l-112.71 8.35 -29.23 -175.33 8.35 -33.4 41.75 121.06 75.14 12.53 16.7 66.79zm-150.28 -300.57l-83.49 296.4 91.83 16.7 -33.4 -104.36 25.06 -208.74zm25.04 -196.2l-16.7 158.63 66.79 237.96 58.45 16.7 -87.67 -250.47 -20.87 -162.81z"/>
   <path class="fil0 str0" d="M2728.93 2826.02l-225.43 12.52 0 313.11 -12.53 0c-40.09,0 -63.69,35.35 -37.58,62.62 22.91,23.93 70.33,0.84 89.76,-25.06l386.16 0c20.87,20.87 69.5,51.18 91.83,16.7 11.91,-18.39 -2.83,-54.27 -37.56,-54.27l-16.7 0 0 -313.11 -237.96 -12.52zm-172 313.09l-3.34 -16.69 0 -250.49 175.34 0 187.86 0 0 250.49 0 16.69 -359.86 0z"/>
   <polygon class="fil0 str0" points="2724.76,1945.17 2749.8,1945.17 2749.8,2467 2724.76,2467 "/>
   <polygon class="fil0 str0" points="2734.78,1893.72 2750.75,1927.35 2766.73,1960.99 2750.75,1994.62 2734.78,2028.26 2718.8,1994.62 2702.82,1960.99 2718.8,1927.35 "/>
   <polygon class="fil0 str0" points="2734.78,2112.35 2750.75,2145.98 2766.73,2179.62 2750.75,2213.25 2734.78,2246.89 2718.8,2213.25 2702.82,2179.62 2718.8,2145.98 "/>
   <polygon class="fil0 str0" points="2734.78,2371.34 2750.75,2404.97 2766.73,2438.61 2750.75,2472.24 2734.78,2505.87 2718.8,2472.24 2702.82,2438.61 2718.8,2404.97 "/>
   <path class="fil0 str0" d="M2717.23 3782.01c-174.35,-130.74 -310.06,-139.25 -509.31,-196.22 -75.69,-18.91 -66.65,-146.11 16.7,-146.11 264.14,44.01 371.05,99.28 492.61,342.33zm-237.95 -442.52c-22.7,-10.31 -145.85,-52.69 -154.47,-58.44 -13.02,-17.34 -20.76,-37.65 -4.17,-54.26 54.45,-54.53 158.64,21.46 158.64,112.7zm37.57 146.12c-64.76,-16.2 -179.01,-47.72 -242.13,-62.63 -41.68,-9.84 -48.68,-69.12 -8.36,-96.01 124.9,-31.24 206.17,47.83 250.49,158.64z"/>
   <path class="fil0 str0" d="M2732.29 3782.01c174.35,-130.74 310.06,-139.25 509.31,-196.22 75.69,-18.91 66.65,-146.11 -16.7,-146.11 -264.14,44.01 -371.05,99.28 -492.61,342.33zm237.95 -442.52c22.7,-10.31 145.85,-52.69 154.46,-58.44 13.02,-17.34 20.76,-37.65 4.17,-54.26 -54.45,-54.53 -158.64,21.46 -158.64,112.7zm-37.57 146.12c64.76,-16.2 179.01,-47.72 242.13,-62.63 41.68,-9.84 48.68,-69.12 8.35,-96.01 -124.9,-31.24 -206.17,47.83 -250.48,158.64z"/>
   <path class="fil0 str0" d="M2271.42 4366.46c0,33.4 -29.22,62.62 -62.62,62.62 -37.57,0 -66.79,-29.22 -66.79,-62.62 0,-37.57 29.22,-66.79 66.79,-66.79 33.4,0 62.62,29.22 62.62,66.79z"/>
   <path class="fil0 str0" d="M3365.18 4366.46c0,33.4 -29.22,62.62 -62.62,62.62 -37.56,0 -66.79,-29.22 -66.79,-62.62 0,-37.57 29.23,-66.79 66.79,-66.79 33.4,0 62.62,29.22 62.62,66.79z"/>
   <path class="fil0 str0" d="M2267.25 4366.46c0,29.23 -29.22,58.44 -58.44,58.44 -33.39,0 -62.62,-29.22 -62.62,-58.44 0,-33.39 29.23,-62.62 62.62,-62.62 29.23,0 58.44,29.22 58.44,62.62z"/>
   <path class="fil0 str0" d="M3361.01 4366.46c0,29.23 -29.22,58.44 -58.45,58.44 -33.39,0 -62.62,-29.22 -62.62,-58.44 0,-33.39 29.23,-62.62 62.62,-62.62 29.23,0 58.45,29.22 58.45,62.62z"/>
  </g>
  <g id="UNY_x0020__x0028_Universitas_x0020_Negeri_x0020_Yogyakarta_x0029__x0020_Logo_x0020__x0028_CDR2020_x0029__x0020_-_x0020_Vector69Com.cdr_0">
   <path class="fil2" d="M4060.3 1020.95c188.3,-13.35 417.62,119.8 580.8,458.59 141.89,294.6 240.53,504.78 407.7,585.09 5.45,-1.81 6.67,1.87 1.23,3.7 -85.44,164.61 -38.1,391.91 25.35,712.68 73.36,370.89 -31.55,615.73 -191.58,717.14l-0.19 0.36c66.74,176.29 5.51,433.83 -270.81,687.77 -240.77,221.25 -413.3,376.61 -441.67,559.89 3.31,4.68 0.15,6.93 -3.18,2.25 -182.31,-34.02 -386.1,77.22 -674.68,231 -332.63,177.24 -596.77,148.59 -740.54,25.82 -143.78,122.77 -407.91,151.43 -740.54,-25.81 -288.58,-153.78 -492.36,-265.02 -674.68,-231 -3.33,4.69 -6.5,2.43 -3.18,-2.25 -28.37,-183.29 -200.9,-338.65 -441.67,-559.9 -276.87,-254.43 -337.79,-512.51 -270.41,-688.83 -159.41,-101.83 -263.68,-346.39 -190.49,-716.43 63.46,-320.78 110.8,-548.07 25.36,-712.68 -5.44,-1.82 -4.22,-5.51 1.23,-3.7 167.18,-80.31 265.81,-290.49 407.7,-585.09 164.06,-340.62 394.98,-473.41 583.84,-458.39l0.2 -0.09c46.48,-183.17 245.43,-359.08 619.1,-406.72 324.37,-41.35 554.96,-68.38 684.06,-201.53 0,-5.75 3.89,-5.75 3.89,0 129.1,133.15 359.7,160.18 684.06,201.53 373.59,47.63 572.53,223.47 619.07,406.6zm-38.29 50.86c182.77,-12.97 405.38,116.29 563.78,445.15 137.74,285.97 233.48,489.99 395.76,567.95 5.29,-1.76 6.48,1.82 1.19,3.59 -82.94,159.79 -36.98,380.42 24.61,691.79 71.21,360.02 -30.62,597.69 -185.96,696.13l-0.19 0.34c64.78,171.13 5.35,421.13 -262.87,667.61 -233.72,214.77 -401.2,365.58 -428.72,543.49 3.22,4.55 0.14,6.74 -3.09,2.19 -176.98,-33.02 -374.79,74.96 -654.91,224.23 -322.88,172.05 -579.28,144.24 -718.83,25.06 -139.56,119.17 -395.95,146.99 -718.83,-25.06 -280.12,-149.27 -477.93,-257.26 -654.91,-224.23 -3.23,4.55 -6.31,2.36 -3.09,-2.19 -27.54,-177.91 -195.01,-328.72 -428.73,-543.5 -268.76,-246.97 -327.89,-497.49 -262.48,-668.64 -154.74,-98.84 -255.95,-336.24 -184.91,-695.44 61.59,-311.38 107.56,-532.01 24.61,-691.8 -5.28,-1.76 -4.09,-5.35 1.2,-3.59 162.28,-77.96 258.02,-281.98 395.76,-567.95 159.26,-330.63 383.41,-459.53 566.73,-444.96l0.19 -0.08c45.12,-177.81 238.24,-348.56 600.96,-394.8 314.86,-40.13 538.7,-66.37 664.02,-195.63 0,-5.57 3.78,-5.57 3.78,0 125.31,129.26 349.15,155.5 664.02,195.63 362.64,46.24 555.75,216.92 600.93,394.69z"/>
   <path class="fil3" d="M4022.02 1071.81c182.77,-12.97 405.38,116.29 563.78,445.15 137.74,285.97 233.48,489.99 395.76,567.95 5.29,-1.76 6.48,1.82 1.19,3.59 -82.94,159.79 -36.98,380.42 24.61,691.79 71.21,360.02 -30.62,597.69 -185.96,696.13l-0.19 0.34c64.78,171.13 5.35,421.13 -262.87,667.61 -233.72,214.77 -401.2,365.58 -428.72,543.49 3.22,4.55 0.14,6.74 -3.09,2.19 -176.98,-33.02 -374.79,74.96 -654.91,224.23 -322.88,172.05 -579.28,144.24 -718.83,25.06 -139.56,119.17 -395.95,146.99 -718.83,-25.06 -280.12,-149.27 -477.93,-257.26 -654.91,-224.23 -3.23,4.55 -6.31,2.36 -3.09,-2.19 -27.54,-177.91 -195.01,-328.72 -428.73,-543.5 -268.76,-246.97 -327.89,-497.49 -262.48,-668.64 -154.74,-98.84 -255.95,-336.24 -184.91,-695.44 61.59,-311.38 107.56,-532.01 24.61,-691.8 -5.28,-1.76 -4.09,-5.35 1.2,-3.59 162.28,-77.96 258.02,-281.98 395.76,-567.95 159.26,-330.63 383.41,-459.53 566.73,-444.96l0.19 -0.08c45.12,-177.81 238.24,-348.56 600.96,-394.8 314.86,-40.13 538.7,-66.37 664.02,-195.63 0,-5.57 3.78,-5.57 3.78,0 125.31,129.26 349.15,155.5 664.02,195.63 362.64,46.24 555.75,216.92 600.93,394.69zm-55.71 74c174.75,-12.4 387.57,111.18 539.02,425.6 131.69,273.41 223.22,468.47 378.37,543 5.06,-1.69 6.2,1.74 1.15,3.43 -79.3,152.77 -35.36,363.71 23.53,661.41 68.08,344.21 -29.28,571.44 -177.8,665.56l-0.18 0.32c61.94,163.61 5.12,402.63 -251.33,638.3 -223.45,205.33 -383.57,349.52 -409.89,519.62 3.08,4.35 0.13,6.44 -2.95,2.09 -169.2,-31.57 -358.33,71.67 -626.15,214.38 -308.7,164.49 -553.83,137.9 -687.26,23.96 -133.43,113.93 -378.56,140.54 -687.26,-23.96 -267.82,-142.72 -456.94,-245.96 -626.15,-214.39 -3.08,4.35 -6.03,2.26 -2.95,-2.09 -26.33,-170.1 -186.44,-314.28 -409.9,-519.63 -256.95,-236.13 -313.49,-475.64 -250.95,-639.28 -147.94,-94.5 -244.71,-321.47 -176.79,-664.89 58.89,-297.7 102.83,-508.65 23.53,-661.41 -5.06,-1.69 -3.91,-5.11 1.14,-3.43 155.15,-74.53 246.69,-269.59 378.37,-543 152.26,-316.11 366.57,-439.35 541.84,-425.41l0.18 -0.08c43.14,-170 227.78,-333.25 574.57,-377.46 301.04,-38.37 515.04,-63.46 634.85,-187.04 0,-5.33 3.61,-5.33 3.61,0 119.81,123.58 333.82,148.67 634.85,187.04 346.71,44.2 531.35,207.39 574.54,377.35z"/>
   <path class="fil2" d="M3966.3 1145.81c174.75,-12.4 387.57,111.18 539.02,425.6 131.69,273.41 223.22,468.47 378.37,543 5.06,-1.69 6.2,1.74 1.15,3.43 -79.3,152.77 -35.36,363.71 23.53,661.41 68.08,344.21 -29.28,571.44 -177.8,665.56l-0.18 0.32c61.94,163.61 5.12,402.63 -251.33,638.3 -223.45,205.33 -383.57,349.52 -409.89,519.62 3.08,4.35 0.13,6.44 -2.95,2.09 -169.2,-31.57 -358.33,71.67 -626.15,214.38 -308.7,164.49 -553.83,137.9 -687.26,23.96 -133.43,113.93 -378.56,140.54 -687.26,-23.96 -267.82,-142.72 -456.94,-245.96 -626.15,-214.39 -3.08,4.35 -6.03,2.26 -2.95,-2.09 -26.33,-170.1 -186.44,-314.28 -409.9,-519.63 -256.95,-236.13 -313.49,-475.64 -250.95,-639.28 -147.94,-94.5 -244.71,-321.47 -176.79,-664.89 58.89,-297.7 102.83,-508.65 23.53,-661.41 -5.06,-1.69 -3.91,-5.11 1.14,-3.43 155.15,-74.53 246.69,-269.59 378.37,-543 152.26,-316.11 366.57,-439.35 541.84,-425.41l0.18 -0.08c43.14,-170 227.78,-333.25 574.57,-377.46 301.04,-38.37 515.04,-63.46 634.85,-187.04 0,-5.33 3.61,-5.33 3.61,0 119.81,123.58 333.82,148.67 634.85,187.04 346.71,44.2 531.35,207.39 574.54,377.35z"/>
   <path class="fil4" d="M2753.59 3947.4l-4.05 0.22c-278.16,-15.03 -576.91,-25.55 -820.63,-177.87 -238.31,-178.74 -350.26,-269.06 -468.92,-553.81 115.03,69.01 174.15,91.8 307.22,105.1l-8.08 -20.21c-159.12,-159 -331.48,-46.85 -331.48,-420.41l0 -52.56 12.12 24.26 8.09 24.26 12.13 24.25c62.18,103.61 219.6,113.3 323.4,194.04l0 -12.13 0 -12.13 0 -8.08 -4.04 -12.13 -8.09 -16.16 -12.12 -16.17 -8.09 -8.09c-216.37,-144.25 -369.87,-174.66 -287.01,-533.6l16.16 -52.56 16.17 60.64 12.13 24.26c46.92,140.8 243.01,241.51 367.87,307.22l-4.05 -20.21 -8.08 -16.16c-42.47,-127.49 -623.85,-346.9 -145.52,-772.11 -115.68,385.46 118.98,411.21 335.52,671.04 60.22,-180.63 -396.94,-215.42 -266.81,-671.04 110.35,-257.37 296.1,-342.74 553.82,-416.37l88.94 -24.26 -60.64 28.3 -56.59 28.3c-140.8,93.88 -250.63,276.76 -250.63,448.71l0 20.21 4.04 44.48 0 24.25c45.48,227 208.6,246.76 299.15,472.97l4.04 44.46 0 24.26c-14.85,74.31 -59.16,105.82 -137.44,129.35 -131.8,39.63 6.09,155.69 20.21,198.08l4.04 12.13 0 16.17 -4.04 16.17 -8.09 20.21c-53.81,107.68 -246.58,281.37 -246.58,396.16l4.04 20.21 4.04 20.21c42.23,253.47 554.42,296.4 747.87,311.27 193.44,-14.87 705.63,-57.8 747.86,-311.27l4.04 -20.21 4.04 -20.21c0,-114.78 -192.77,-288.48 -246.59,-396.16l-8.09 -20.21 -4.04 -16.17 0 -16.17 4.04 -12.13c15.65,-46.96 144.26,-161.78 20.21,-198.08 -78.45,-22.96 -122.59,-55.04 -137.44,-129.35l0 -24.26 4.04 -44.46c90.54,-226.21 253.67,-245.96 299.15,-472.97l0 -24.25 4.04 -44.48 0 -20.21c0,-171.96 -109.83,-354.83 -250.63,-448.71l-56.59 -28.3 -60.64 -28.3 88.94 24.26c257.72,73.63 443.46,159 553.81,416.37 130.13,455.62 -327.02,490.41 -266.81,671.04 216.54,-259.83 451.2,-285.59 335.52,-671.04 478.33,425.21 -103.06,644.62 -145.52,772.11l-8.08 16.16 -4.05 20.21c124.85,-65.71 320.95,-166.43 367.87,-307.22l12.13 -24.26 16.17 -60.64 16.17 52.56c82.86,358.94 -70.63,389.35 -287.01,533.6l-8.09 8.09 -12.12 16.17 -8.09 16.16 -4.04 12.13 0 8.08 0 12.13 0 12.13c103.8,-80.74 261.22,-90.43 323.4,-194.04l12.12 -24.25 8.09 -24.26 12.12 -24.26 0 52.56c0,373.57 -172.36,261.41 -331.48,420.41l-8.08 20.21c133.07,-13.3 192.2,-36.09 307.23,-105.1 -118.66,284.75 -230.62,375.07 -468.93,553.81 -243.72,152.32 -542.46,162.84 -820.62,177.87l-4.05 -0.22z"/>
   <path class="fil5" d="M2753.59 3785.93c-53.23,-29.57 -95.88,-60.19 -153.61,-80.85 -120.54,-43.15 -247.28,-56.45 -363.83,-109.15 -103.57,-46.82 -71.81,-94.27 -40.42,-173.83 40.26,-102.01 154.94,-249.46 210.21,-359.77 47.04,-93.91 52.34,-140.3 16.17,-242.54 -2.84,-8.02 -20.99,-15.94 -24.26,-8.09 -6.73,16.16 -4.58,40.63 -20.22,48.52 -18.6,9.39 -52.51,-6.83 -80.85,0 -125.77,30.33 21.95,114.35 40.42,169.78 12.24,24.46 -230.75,352.33 -262.76,404.25 -30.61,49.64 -27.42,103.22 12.13,149.57 104.35,122.28 457.81,227.68 667,230.36 209.2,-2.68 562.65,-108.08 667,-230.36 39.56,-46.35 42.74,-99.94 12.13,-149.57 -32,-51.93 -275,-379.79 -262.76,-404.25 18.47,-55.42 166.19,-139.45 40.42,-169.78 -28.33,-6.83 -62.25,9.39 -80.85,0 -15.64,-7.89 -13.48,-32.35 -20.22,-48.52 -3.26,-7.84 -21.41,0.08 -24.25,8.09 -36.17,102.24 -30.87,148.64 16.17,242.54 55.27,110.31 169.95,257.76 210.21,359.77 31.39,79.56 63.15,127.01 -40.42,173.83 -116.56,52.7 -243.29,66 -363.83,109.15 -57.73,20.66 -100.38,51.27 -153.61,80.85z"/>
   <path class="fil6" d="M2614.13 4351.87c0,-88.31 -18.4,-235.52 4.04,-315.31 13.66,-48.58 44.45,-65.62 88.94,-64.68 80.08,1.69 138.97,25.27 153.61,113.18l0 40.43c29.63,-23.58 18.86,-22.91 56.59,-32.33 72.63,0 105.43,41.72 80.85,97.02 -5.39,12.13 -10.78,24.26 -16.17,36.38 -13.46,30.3 -5.5,89.72 28.29,92.97 79.28,7.61 38.05,-161.99 36.38,-210.2l44.48 -8.09c3.24,58.38 25.09,363.43 -72.77,412.33 -21.74,14.5 -31.72,18.03 -56.59,24.26 -181.78,20.19 -422.46,-141.35 -505.31,24.25 -22.91,57.29 -10.48,81.67 44.47,109.14 80,32.04 208.74,35.06 295.1,24.26 119.58,-34.19 145.35,-73.56 222.33,-165.75 17.46,-20.91 58.2,-40.1 84.89,-40.42 57.26,-0.68 76.81,26.82 76.81,76.81 -34.63,-52 -49.67,-36.19 -76.81,0 -37.51,50.04 -110.4,138.48 -165.74,165.74 -86.06,42.39 -148.65,49.48 -242.56,44.48 -107.94,-5.75 -173.37,-13.18 -266.8,-68.73 -63.5,-37.76 -80.06,-94.96 -68.73,-161.7 24.78,-145.92 157.38,-181.46 287.02,-157.65 81.72,15.01 266.96,100.07 307.23,92.98 56.95,-10.02 84.89,-58.07 84.89,-117.24 -28.14,9.37 -36.33,22.53 -68.72,16.16 -49.21,-9.68 -75.36,-30.23 -84.89,-76.8 -12.31,-60.12 4.05,-121.54 4.05,-181.92l-28.3 12.13 0 218.3 -97.02 8.08c0,-90.28 0,-180.56 0,-270.84 0,-45.07 -17.61,-58.04 -52.56,-56.59 -29.81,1.23 -39.32,28.51 -40.43,52.54 -3.62,78.52 39.62,266.81 -56.59,266.81zm-145.52 28.29c-90.18,0 -141.48,-50.05 -141.48,-125.31l0 -149.57 105.1 0c0,56.6 0,113.19 0,169.79 0,54.48 76.81,84.46 76.81,28.3l0 -202.13 92.98 -4.04 4.04 165.74c-15.09,75.55 -50.57,99.56 -121.27,117.23l-16.17 0z"/>
   <polygon class="fil7" points="1945.1,1481.72 1807.66,1223.01 1860.21,1194.7 2054.25,1311.94 1965.31,1142.16 2013.83,1113.85 2151.27,1372.58 2098.72,1400.87 1908.72,1287.68 1997.65,1457.47 "/>
   <polygon class="fil7" points="2228.08,1348.32 2143.18,1069.39 2349.35,1004.72 2361.48,1053.22 2211.91,1097.69 2232.12,1162.37 2373.6,1117.91 2385.73,1166.41 2248.29,1206.83 2268.5,1283.64 2426.16,1235.14 2442.33,1283.64 "/>
   <polygon class="fil7" points="2636.37,1154.28 2632.32,1105.78 2761.68,1097.69 2769.77,1214.92 2757.64,1223.01 2745.51,1231.09 2733.39,1239.18 2717.22,1247.26 2680.83,1263.43 2644.45,1267.47 2624.24,1267.47 2604.02,1267.47 2583.81,1259.39 2563.6,1255.35 2547.43,1243.22 2535.31,1231.09 2519.14,1218.96 2511.05,1202.8 2502.96,1186.62 2494.87,1166.41 2490.83,1146.2 2486.8,1125.99 2486.8,1105.78 2490.83,1081.52 2494.87,1061.31 2502.96,1045.14 2511.05,1024.93 2523.18,1012.8 2535.31,996.63 2555.52,984.5 2567.64,980.45 2583.81,972.37 2604.02,968.33 2624.24,968.33 2648.49,964.29 2672.75,968.33 2680.83,972.37 2692.96,976.41 2701.04,980.45 2709.13,984.5 2725.3,996.63 2737.43,1008.76 2745.51,1024.93 2753.6,1045.14 2697,1057.26 2684.87,1041.1 2676.79,1033.01 2668.7,1024.93 2660.62,1020.89 2648.49,1016.84 2640.41,1016.84 2628.28,1016.84 2616.16,1016.84 2608.07,1020.89 2599.98,1020.89 2591.89,1024.93 2583.81,1028.97 2575.73,1033.01 2567.64,1045.14 2559.56,1053.22 2555.52,1061.31 2551.47,1069.39 2551.47,1077.47 2547.43,1097.69 2547.43,1117.91 2551.47,1142.16 2555.52,1154.28 2555.52,1166.41 2563.6,1182.58 2575.73,1194.7 2587.85,1206.83 2604.02,1214.92 2620.2,1214.92 2640.41,1218.96 2656.58,1214.92 2676.79,1206.83 2692.96,1198.76 2705.09,1186.62 2705.09,1150.24 "/>
   <polygon class="fil7" points="2846.57,1259.39 2887,968.33 3101.24,996.63 3097.2,1045.14 2939.55,1024.93 2931.47,1089.6 3076.99,1109.81 3068.91,1158.33 2923.38,1138.12 2911.26,1218.96 3072.95,1239.18 3068.91,1287.68 "/>
   <path class="fil7" d="M3133.59 1299.81l97.02 -274.89 117.23 40.43 36.38 12.12 24.25 16.17 8.09 8.09 8.08 8.08 4.04 8.09 4.04 12.12 0 12.13 0 12.12 0 12.13 -4.04 12.13 -8.08 16.16 -8.09 12.13 -8.08 8.08 -12.13 8.09 -12.12 8.08 -16.17 0 -16.17 4.05 -16.17 -4.05 12.13 16.17 8.08 16.17 8.09 24.25 8.08 32.35 16.17 64.67 -68.72 -20.21 -16.16 -76.81 -12.13 -32.33 -4.04 -16.17 -8.09 -12.13 -8.08 -8.08 -8.08 -4.05 -16.17 -8.08 -12.13 -4.04 -40.43 117.23 -56.59 -20.21zm113.19 -137.44l40.42 12.12 32.34 12.13 16.17 0 12.13 0 8.09 -4.04 8.08 -8.09 4.04 -12.12 4.04 -12.13 0 -12.12 -4.04 -8.09 -4.04 -4.04 -4.04 -4.04 -8.09 -4.04 -40.43 -12.13 -40.42 -16.17 -24.25 72.77z"/>
   <polygon class="fil7" points="3416.56,1408.96 3545.92,1146.2 3598.47,1174.49 3469.11,1437.26 "/>
   <polygon class="fil7" points="3691.45,1578.74 3768.26,1485.76 3792.51,1283.64 3849.11,1328.11 3824.85,1461.51 3954.21,1413 4006.76,1457.47 3816.76,1522.15 3735.92,1615.13 "/>
   <path class="fil7" d="M3962.3 1619.17l16.16 -12.12 16.17 -12.13 16.17 -8.08 16.17 -4.05 24.25 -4.04 24.25 0 24.26 4.04 20.21 8.09 12.12 8.08 12.13 8.09 12.12 12.12 12.13 12.13 12.13 12.12 4.04 12.13 8.08 12.13 4.05 16.16 4.04 12.13 4.04 12.13 0 28.3 -8.08 28.3 -4.05 12.12 -8.08 12.13 -8.08 12.12 -12.13 12.13 -12.13 12.13 -12.12 12.12 -28.3 16.17 -12.12 8.09 -16.17 8.08 -12.13 4.04 -16.17 0 -12.12 4.04 -12.13 0 -16.17 -4.04 -12.12 -4.04 -12.13 -4.04 -12.13 -4.04 -12.12 -8.09 -12.13 -8.08 -20.21 -24.25 -4.04 -4.05 -8.09 -8.08 -8.08 -12.13 -4.04 -12.12 -4.04 -16.17 -4.05 -12.13 -4.04 -12.12 0 -28.3 4.04 -12.12 4.05 -12.13 4.04 -16.17 8.08 -12.13 20.21 -24.25 8.09 -8.08 16.17 -12.13zm36.37 44.46l-16.16 16.17 -12.13 16.17 -8.08 16.17 -4.05 16.17 -4.04 16.17 4.04 16.16 4.05 16.17 12.12 12.13 12.13 12.12 12.12 8.09 16.17 8.08 16.17 0 16.17 0 16.17 -4.04 20.21 -12.13 8.08 -4.04 12.13 -8.08 16.17 -16.17 12.12 -16.17 12.13 -16.17 4.04 -16.16 0 -16.17 -4.04 -16.17 -4.04 -12.13 -12.13 -16.17 -12.13 -12.12 -12.12 -8.09 -16.17 -8.08 -16.17 0 -16.17 0 -16.17 4.04 -20.21 12.13 -8.08 4.04 -12.13 8.08z"/>
   <polygon class="fil7" points="4221.01,2055.76 4265.48,2035.54 4318.03,2148.73 4212.92,2201.28 4200.8,2193.2 4188.67,2185.11 4160.38,2164.9 4148.25,2152.77 4136.11,2136.61 4115.91,2108.3 4107.82,2088.09 4103.78,2067.88 4099.74,2047.67 4099.74,2027.46 4103.78,2007.24 4107.82,1991.07 4115.91,1974.9 4128.04,1958.74 4140.17,1942.57 4156.33,1930.44 4172.5,1918.3 4188.67,1910.22 4208.88,1898.09 4229.09,1894.05 4253.35,1890.01 4273.56,1890.01 4289.73,1894.05 4309.94,1898.09 4330.15,1906.18 4346.33,1918.3 4358.46,1926.39 4370.58,1938.53 4378.67,1954.69 4390.79,1974.9 4398.88,1999.16 4406.96,2019.37 4406.96,2039.59 4406.96,2051.71 4406.96,2059.8 4402.92,2080.01 4394.84,2096.18 4382.71,2108.3 4374.63,2116.39 4366.54,2124.47 4330.15,2075.97 4338.24,2067.88 4346.33,2059.8 4350.37,2047.67 4350.37,2039.59 4350.37,2019.37 4350.37,2007.24 4342.29,1995.11 4334.2,1978.95 4322.07,1966.82 4309.94,1958.74 4293.78,1950.65 4277.61,1946.61 4257.4,1946.61 4249.31,1950.65 4241.22,1954.69 4216.97,1962.78 4196.76,1974.9 4180.59,1987.03 4168.46,1999.16 4160.38,2015.32 4152.29,2031.5 4152.29,2047.67 4156.33,2063.84 4160.38,2084.05 4172.5,2096.18 4184.63,2112.34 4200.8,2124.47 4212.92,2132.56 4249.31,2116.39 "/>
   <polygon class="fil7" points="4221.01,2358.94 4342.29,2326.59 4479.73,2181.07 4495.9,2245.75 4402.92,2342.76 4532.28,2375.11 4548.46,2443.83 4358.46,2383.19 4237.19,2415.53 "/>
   <path class="fil7" d="M4289.73 2799.57l-4.04 -60.65 64.68 -32.33 -12.12 -113.19 -68.72 -20.21 -4.04 -60.64 303.19 84.89 4.04 64.69 -282.98 137.44zm105.11 -113.19l105.1 -52.56 -109.15 -28.29 4.05 80.85z"/>
   <polygon class="fil7" points="4281.65,2852.11 4576.75,2888.5 4568.67,2945.09 4443.35,2928.92 4552.5,3062.33 4544.41,3139.13 4443.35,3017.86 4249.31,3110.84 4261.44,3034.03 4406.96,2973.39 4362.5,2920.84 4273.56,2908.71 "/>
   <path class="fil7" d="M4152.29 3405.94l24.26 -56.59 68.72 -4.04 40.42 -109.15 -56.59 -44.46 20.21 -60.64 242.55 202.12 -20.21 60.63 -319.36 12.13zm145.54 -60.63l117.23 -4.05 -88.94 -72.76 -28.29 76.81z"/>
   <path class="fil7" d="M4128.04 3450.4l254.67 153.62 -64.68 105.1 -24.25 32.34 -8.09 12.12 -8.08 8.09c-65.74,43.81 -144.19,-13.42 -125.32,-88.94l4.04 -16.17c-61.08,24.46 -93.32,20.21 -161.7,20.21l36.39 -60.63c41.06,-2.17 102.85,0.76 141.48,-12.12l8.09 -4.04 8.08 -8.09 8.09 -16.17 8.08 -8.08 -105.1 -64.68 28.3 -52.56zm117.23 137.44l-24.26 40.43 -16.17 28.29 -8.08 16.17 0 12.13 4.04 8.08c9.75,19.52 42.61,36.15 56.59,16.17l28.29 -40.43 24.25 -40.42 -64.67 -40.43z"/>
   <polygon class="fil7" points="3917.82,3757.63 4099.74,3923.37 4160.38,3858.69 4196.76,3891.03 4039.09,4064.85 4002.72,4028.47 4063.36,3967.83 3881.44,3802.1 "/>
   <path class="fil7" d="M3594.43 4056.77l48.5 -36.38 60.64 36.38 92.98 -76.81 -24.25 -64.68 48.5 -40.42 97.02 299.14 -48.5 40.43 -274.89 -157.66zm157.65 24.25l97.02 60.64 -36.38 -109.14 -60.64 48.5z"/>
   <polygon class="fil7" points="1670.21,4246.77 1625.75,4206.35 1730.85,4085.07 1759.15,4044.64 1763.19,4028.47 1767.23,4020.39 1763.19,4012.31 1763.19,4004.22 1755.11,3996.14 1742.98,3979.96 1722.77,3967.83 1714.69,3963.8 1706.6,3963.8 1690.43,3963.8 1678.3,3971.88 1662.13,3988.05 1641.92,4008.26 1536.81,4133.58 1492.35,4097.2 1593.41,3979.96 1621.71,3943.58 1641.92,3923.37 1662.13,3911.24 1670.21,3911.24 1682.34,3907.2 1702.56,3907.2 1722.77,3911.24 1734.9,3915.29 1747.02,3923.37 1771.27,3939.54 1787.44,3951.67 1799.57,3963.8 1815.75,3988.05 1823.83,4008.26 1823.83,4020.39 1823.83,4028.47 1823.83,4048.69 1819.79,4056.77 1815.75,4064.85 1807.66,4076.98 1799.57,4093.16 1771.27,4125.49 "/>
   <polygon class="fil7" points="1629.79,3814.23 1399.37,3996.14 1362.99,3951.67 1439.79,3741.46 1286.19,3862.73 1253.84,3818.27 1480.22,3632.31 1520.65,3680.83 1443.84,3891.03 1593.41,3769.76 "/>
   <polygon class="fil7" points="1443.84,3567.63 1193.2,3721.25 1160.86,3668.69 1415.54,3519.12 "/>
   <polygon class="fil7" points="1354.9,3393.81 1120.44,3595.93 1096.19,3539.33 1270.01,3393.81 1039.59,3405.94 1015.34,3349.34 1330.65,3337.21 "/>
   <polygon class="fil7" points="1278.09,3191.69 991.08,3252.32 942.57,3042.11 995.13,3034.03 1027.46,3187.64 1088.09,3171.48 1059.8,3029.98 1108.31,3021.9 1136.61,3163.39 1217.46,3147.21 1181.07,2985.52 1229.59,2977.44 "/>
   <path class="fil7" d="M1225.54 2912.75l-295.1 4.05 0 -121.28 0 -40.43 4.05 -28.29 4.04 -12.13 8.08 -8.08 8.09 -8.09 8.08 -8.08 12.13 -4.04 8.08 -4.04 28.3 -4.05 12.12 0 16.17 4.05 8.08 4.04 4.05 0 12.12 8.08 12.13 12.13 8.08 12.12 4.04 16.17 4.05 16.17 12.12 -16.17 12.13 -16.17 20.21 -12.12 28.3 -20.21 56.59 -36.38 0 68.72 -64.68 44.47 -24.25 20.21 -16.17 12.12 -8.09 8.09 -4.04 8.08 -4.04 12.13 0 20.21 0 12.12 125.31 -4.04 0 60.64zm-169.78 -56.59l0 -44.46 -4.04 -32.33 -4.05 -20.21 -4.04 -8.09 -8.08 -8.08 -8.09 -4.05 -12.12 0 -16.17 0 -4.04 4.05 -4.05 4.04 -8.08 8.08 -4.04 12.13 0 44.46 0 44.46 76.81 0z"/>
   <polygon class="fil7" points="1132.57,2597.44 1136.61,2540.85 1152.78,2540.85 1164.91,2536.8 1173,2532.76 1181.07,2528.72 1189.17,2520.63 1197.25,2512.55 1201.29,2500.42 1205.33,2488.3 1205.33,2476.17 1205.33,2464.04 1205.33,2451.92 1201.29,2443.83 1197.25,2435.74 1189.17,2431.7 1185.11,2427.67 1177.04,2423.61 1164.91,2423.61 1156.82,2427.67 1152.78,2431.7 1148.74,2435.74 1140.65,2447.87 1120.44,2488.3 1108.31,2508.51 1100.23,2524.68 1088.09,2536.8 1080.02,2548.94 1063.84,2557.02 1047.67,2561.06 1031.51,2565.11 1023.42,2565.11 1015.34,2561.06 1003.21,2561.06 995.13,2557.02 974.91,2540.85 970.87,2532.76 962.78,2524.68 958.74,2512.55 954.7,2500.42 950.65,2488.3 950.65,2472.13 954.7,2443.83 962.78,2419.57 966.82,2407.45 970.87,2395.32 983,2379.15 995.13,2367.02 1003.21,2362.98 1011.3,2358.94 1027.46,2350.85 1047.67,2350.85 1067.89,2350.85 1059.8,2407.45 1047.67,2411.49 1039.59,2411.49 1031.51,2415.53 1023.42,2419.57 1015.34,2423.61 1011.3,2431.7 1007.25,2451.92 1003.21,2464.04 1003.21,2476.17 1007.25,2488.3 1007.25,2496.38 1015.34,2504.46 1023.42,2508.51 1035.55,2508.51 1043.63,2504.46 1051.72,2496.38 1055.76,2484.25 1071.93,2451.92 1092.15,2419.57 1096.19,2403.4 1104.27,2395.32 1112.36,2387.23 1120.44,2379.15 1132.57,2375.11 1140.65,2367.02 1152.78,2367.02 1164.91,2362.98 1177.04,2362.98 1189.17,2367.02 1201.29,2371.07 1213.42,2375.11 1233.63,2387.23 1241.71,2399.36 1245.76,2407.45 1253.84,2419.57 1257.88,2431.7 1257.88,2447.87 1257.88,2464.04 1257.88,2480.21 1253.84,2496.38 1249.8,2524.68 1237.67,2544.89 1225.54,2561.06 1213.42,2577.23 1197.25,2585.32 1177.04,2593.4 1156.82,2597.44 "/>
   <polygon class="fil7" points="1290.22,2326.59 1011.3,2237.67 1031.51,2181.07 1310.44,2270 "/>
   <polygon class="fil7" points="1358.94,2148.73 1136.61,2047.67 1100.23,2124.47 1055.76,2104.26 1152.78,1894.05 1197.25,1918.3 1160.86,1995.11 1383.2,2096.18 "/>
   <path class="fil7" d="M1597.46 1776.82l-40.43 48.52 -68.72 -20.21 -68.73 97.02 40.43 56.59 -36.37 52.55 -173.83 -262.76 40.42 -52.56 307.23 80.85zm-157.67 16.17l-113.18 -32.34 64.68 97.02 48.5 -64.68z"/>
   <polygon class="fil7" points="1552.98,1683.84 1593.41,1639.38 1601.5,1647.47 1613.62,1651.51 1625.75,1655.55 1637.88,1655.55 1645.96,1655.55 1658.09,1651.51 1666.17,1643.42 1678.3,1635.34 1682.34,1631.3 1686.39,1627.26 1694.46,1619.17 1698.52,1607.04 1698.52,1598.95 1698.52,1590.87 1698.52,1582.78 1694.46,1574.7 1690.43,1566.61 1682.34,1562.57 1674.25,1558.53 1666.17,1558.53 1650,1566.61 1609.58,1586.83 1589.37,1598.95 1569.15,1607.04 1552.98,1611.08 1540.86,1611.08 1524.69,1611.08 1508.52,1607.04 1492.35,1598.95 1480.22,1586.83 1472.13,1578.74 1468.09,1566.61 1460,1546.4 1460,1534.28 1460,1522.15 1464.05,1514.06 1468.09,1501.93 1472.13,1489.81 1480.22,1477.68 1504.48,1453.43 1512.56,1445.34 1520.65,1437.26 1540.86,1425.13 1561.07,1417.05 1581.28,1417.05 1589.37,1417.05 1597.46,1417.05 1617.67,1425.13 1625.75,1429.17 1633.83,1433.22 1650,1445.34 1605.54,1485.76 1597.46,1481.72 1589.37,1477.68 1573.19,1473.64 1565.11,1473.64 1552.98,1477.68 1544.9,1485.76 1536.81,1493.85 1520.65,1510.02 1516.6,1518.11 1512.56,1526.19 1516.6,1538.32 1520.65,1546.4 1524.69,1550.45 1528.73,1550.45 1532.77,1554.49 1536.81,1554.49 1548.94,1550.45 1561.07,1546.4 1593.41,1530.24 1625.75,1514.06 1654.04,1501.93 1674.25,1497.89 1698.52,1501.93 1718.73,1510.02 1726.81,1518.11 1734.9,1526.19 1742.98,1538.32 1751.06,1546.4 1755.11,1558.53 1759.15,1570.66 1759.15,1582.78 1759.15,1598.95 1755.11,1611.08 1751.06,1623.2 1734.9,1647.47 1726.81,1659.59 1710.64,1671.72 1702.56,1683.84 1690.43,1687.89 1670.21,1700.01 1662.13,1708.1 1650,1708.1 1633.83,1712.15 1613.62,1712.15 1593.41,1704.06 1573.19,1695.97 1565.11,1687.89 "/>
   <polyline class="fil1" points="3323.95,3466.57 3332.04,3486.79 3332.04,3507 3332.04,3523.17 3328,3531.25 3323.95,3543.38 3315.87,3555.5 3303.74,3571.68 3295.66,3579.76 3283.52,3583.81 3263.31,3595.93 3239.06,3604.02 3190.56,3624.23 3138,3636.35 3089.48,3648.48 3040.98,3660.61 2988.43,3676.78 2903.54,3709.12 2863.11,3725.29 2818.64,3741.46 2770.13,3765.71 2745.88,3773.8 2725.67,3785.93 "/>
   <polygon class="fil7" points="2729.71,2791.48 2450.78,2791.48 2430.57,2645.96 2475.04,2605.53 2572.06,2694.46 2685.24,2625.74 2733.75,2629.78 2786.31,2625.74 2903.54,2694.46 2996.52,2605.53 3040.98,2645.96 3024.81,2791.48 "/>
   <path class="fil7" d="M2725.67 2597.44l-60.64 4.04 -92.98 56.59 -24.25 -56.59 105.09 -667.01 -76.8 -72.75 20.21 -64.69 44.46 8.09 24.26 36.38 12.12 -36.38 52.56 -4.05 64.68 4.05 16.17 36.38 24.26 -36.38 40.42 -8.09 20.21 64.69 -76.81 72.75 109.15 667.01 -24.25 56.59 -92.98 -56.59 -84.88 -4.04zm9.7 -676.4l15.46 32.57 15.48 32.57 -15.48 32.57 -0.92 1.94 0 142.69 0.92 1.94 15.48 32.57 -15.48 32.57 -0.92 1.94 0 181.78 0.92 1.93 15.48 32.57 -15.48 32.57 -15.46 32.57 -15.47 -32.57 -15.48 -32.57 15.48 -32.57 5.77 -12.15 0 -161.35 -5.77 -12.15 -15.48 -32.57 15.48 -32.57 5.77 -12.15 0 -122.27 -5.77 -12.15 -15.48 -32.57 15.48 -32.57 15.47 -32.57z"/>
   <path class="fil7" d="M2741.84 3405.94l0 307.22 -28.3 0 0 -307.22c-58.28,-43.72 -47.93,-137.44 16.17,-137.44 62.68,0 71.64,97.59 12.13,137.44z"/>
   <path class="fil8" d="M2850.98 1776.82l-109.14 8.09 -28.3 -169.78 8.09 -32.34 40.43 117.23 72.76 12.13 16.17 64.67zm-145.53 -291.06l-80.85 287.02 88.93 16.17 -32.34 -101.06 24.26 -202.13zm24.25 -189.99l-16.17 153.61 64.68 230.43 56.59 16.17 -84.89 -242.54 -20.21 -157.66z"/>
   <path class="fil7" d="M2729.71 2823.82l-218.29 12.12 0 303.19 -12.13 0c-38.82,0 -61.67,34.24 -36.39,60.64 22.19,23.17 68.1,0.81 86.92,-24.26l373.93 0c20.22,20.21 67.3,49.56 88.93,16.18 11.53,-17.8 -2.74,-52.56 -36.37,-52.56l-16.17 0 0 -303.19 -230.42 -12.12zm-166.56 303.18l-3.23 -16.16 0 -242.56 169.79 0 181.91 0 0 242.56 0 16.16 -348.47 0z"/>
   <polygon class="fil9" points="2725.67,1970.86 2749.92,1970.86 2749.92,2476.17 2725.67,2476.17 "/>
   <polygon class="fil10" points="2735.37,1921.04 2750.84,1953.61 2766.31,1986.19 2750.84,2018.75 2735.37,2051.32 2719.9,2018.75 2704.43,1986.19 2719.9,1953.61 "/>
   <polygon class="fil10" points="2735.37,2132.75 2750.84,2165.32 2766.31,2197.89 2750.84,2230.46 2735.37,2263.03 2719.9,2230.46 2704.43,2197.89 2719.9,2165.32 "/>
   <polygon class="fil10" points="2735.37,2383.54 2750.84,2416.11 2766.31,2448.68 2750.84,2481.25 2735.37,2513.81 2719.9,2481.25 2704.43,2448.68 2719.9,2416.11 "/>
   <path class="fil7" d="M2718.38 3749.54c-168.83,-126.59 -300.24,-134.84 -493.19,-190 -73.29,-18.31 -64.54,-141.48 16.17,-141.48 255.78,42.61 359.3,96.13 477.01,331.48zm-230.42 -428.5c-21.98,-9.98 -141.23,-51.02 -149.57,-56.59 -12.61,-16.8 -20.11,-36.45 -4.04,-52.54 52.73,-52.8 153.61,20.78 153.61,109.14zm36.38 141.49c-62.71,-15.68 -173.34,-46.2 -234.46,-60.65 -40.36,-9.53 -47.14,-66.93 -8.09,-92.97 120.94,-30.25 199.64,46.32 242.56,153.61z"/>
   <path class="fil7" d="M2732.96 3749.54c168.83,-126.59 300.24,-134.84 493.19,-190 73.29,-18.31 64.54,-141.48 -16.17,-141.48 -255.78,42.61 -359.3,96.13 -477.02,331.48zm230.42 -428.5c21.98,-9.98 141.23,-51.02 149.57,-56.59 12.61,-16.8 20.1,-36.45 4.04,-52.54 -52.73,-52.8 -153.61,20.78 -153.61,109.14zm-36.38 141.49c62.7,-15.68 173.34,-46.2 234.46,-60.65 40.36,-9.53 47.14,-66.93 8.09,-92.97 -120.94,-30.25 -199.64,46.32 -242.56,153.61z"/>
   <path class="fil1" d="M2286.69 4315.49c0,32.34 -28.29,60.63 -60.63,60.63 -36.39,0 -64.68,-28.29 -64.68,-60.63 0,-36.39 28.29,-64.68 64.68,-64.68 32.34,0 60.63,28.29 60.63,64.68z"/>
   <path class="fil1" d="M3345.81 4315.49c0,32.34 -28.3,60.63 -60.64,60.63 -36.37,0 -64.68,-28.29 -64.68,-60.63 0,-36.39 28.3,-64.68 64.68,-64.68 32.34,0 60.64,28.29 60.64,64.68z"/>
   <path class="fil7" d="M2282.65 4315.49c0,28.3 -28.3,56.59 -56.59,56.59 -32.33,0 -60.64,-28.29 -60.64,-56.59 0,-32.33 28.3,-60.64 60.64,-60.64 28.3,0 56.59,28.3 56.59,60.64z"/>
   <path class="fil7" d="M3341.77 4315.49c0,28.3 -28.29,56.59 -56.59,56.59 -32.33,0 -60.63,-28.29 -60.63,-56.59 0,-32.33 28.3,-60.64 60.63,-60.64 28.3,0 56.59,28.3 56.59,60.64z"/>
  </g>
 </g>
</svg>
