<?xml version="1.0" encoding="UTF-8"?>
<!DOCTYPE svg PUBLIC "-//W3C//DTD SVG 1.1//EN" "http://www.w3.org/Graphics/SVG/1.1/DTD/svg11.dtd">
<!-- Creator: CorelDRAW 2021.5 -->
<svg xmlns="http://www.w3.org/2000/svg" xml:space="preserve" width="14.9606in" height="5.51181in" version="1.1" style="shape-rendering:geometricPrecision; text-rendering:geometricPrecision; image-rendering:optimizeQuality; fill-rule:evenodd; clip-rule:evenodd"
viewBox="0 0 14960.63 5511.81"
 xmlns:xlink="http://www.w3.org/1999/xlink"
 xmlns:xodm="http://www.corel.com/coreldraw/odm/2003">
 <defs>
  <style type="text/css">
   <![CDATA[
    .str0 {stroke:white;stroke-width:3;stroke-miterlimit:2.61313}
    .fil8 {fill:none}
    .fil6 {fill:#FEFEFE}
    .fil11 {fill:#332C2B}
    .fil3 {fill:#FFF000}
    .fil10 {fill:black}
    .fil2 {fill:#000094}
    .fil5 {fill:#008131}
    .fil9 {fill:#EA3313}
    .fil4 {fill:#FFF100}
    .fil7 {fill:white}
    .fil1 {fill:white;fill-rule:nonzero}
    .fil0 {fill:white;fill-rule:nonzero}
   ]]>
  </style>
 </defs>
 <g id="Layer_x0020_1">
  <metadata id="CorelCorpID_0Corel-Layer"/>
  <path class="fil0" d="M193.2 2777.8l327.32 -748.78 248.17 0 327.32 748.78 -261 0 -241.75 -628.98 98.41 0 -241.75 628.98 -256.72 0zm194.68 -130.5l64.18 -181.85 344.44 0 64.18 181.85 -472.8 0z"/>
  <path id="_1" class="fil0" d="M1098.28 2777.8l0 -748.78 360.48 0c69.89,0 130.32,11.41 181.31,34.23 50.99,22.82 90.39,55.45 118.2,97.88 27.81,42.43 41.72,92.53 41.72,150.29 0,57.76 -13.91,107.68 -41.72,149.76 -27.81,42.07 -67.21,74.7 -118.2,97.87 -50.99,23.18 -111.43,34.77 -181.31,34.77l-220.35 0 112.31 -108.04 0 292.02 -252.44 0zm252.44 -264.21l-112.31 -114.46 204.31 0c34.94,0 60.8,-7.84 77.56,-23.53 16.76,-15.69 25.13,-37.08 25.13,-64.18 0,-27.1 -8.38,-48.49 -25.13,-64.18 -16.76,-15.69 -42.61,-23.54 -77.56,-23.54l-204.31 0 112.31 -114.45 0 404.34z"/>
  <polygon id="_2" class="fil0" points="1843.97,2777.8 1843.97,2029.02 2096.42,2029.02 2096.42,2582.05 2434.44,2582.05 2434.44,2777.8 "/>
  <polygon id="_3" class="fil0" points="2465.58,2777.8 2465.58,2029.02 2718.03,2029.02 2718.03,2777.8 "/>
  <path id="_4" class="fil0" d="M3027.29 2617.35l-13.91 -277.05 282.4 -311.28 274.91 0 -316.63 348.72 -140.13 143.34 -86.64 96.27zm-225.7 160.45l0 -748.78 248.17 0 0 748.78 -248.17 0zm492.06 0l-220.35 -290.95 163.66 -173.29 348.72 464.24 -292.02 0z"/>
  <path id="_5" class="fil0" d="M3462.78 2777.8l327.32 -748.78 248.17 0 327.32 748.78 -261 0 -241.75 -628.98 98.41 0 -241.75 628.98 -256.72 0zm194.68 -130.5l64.18 -181.85 344.44 0 64.18 181.85 -472.8 0z"/>
  <path id="_6" class="fil0" d="M4647.04 2794.91c-62.76,0 -123.37,-7.13 -181.85,-21.39 -58.48,-14.26 -106.61,-32.8 -144.41,-55.62l81.3 -183.99c35.66,20.68 75.41,37.26 119.27,49.74 43.86,12.48 86.46,18.72 127.83,18.72 24.25,0 43.32,-1.6 57.23,-4.81 13.91,-3.21 24.07,-7.85 30.48,-13.91 6.42,-6.06 9.63,-13.37 9.63,-21.93 0,-13.55 -7.49,-24.25 -22.46,-32.09 -14.98,-7.85 -34.76,-14.44 -59.37,-19.79 -24.6,-5.35 -51.52,-11.05 -80.76,-17.11 -29.24,-6.06 -58.65,-14.08 -88.25,-24.07 -29.59,-9.98 -56.69,-23.18 -81.3,-39.58 -24.6,-16.4 -44.39,-37.98 -59.37,-64.72 -14.97,-26.74 -22.46,-60.08 -22.46,-100.02 0,-46.35 13.01,-88.61 39.04,-126.76 26.03,-38.15 64.89,-68.64 116.59,-91.46 51.7,-22.82 116.06,-34.23 193.08,-34.23 50.63,0 100.55,5.35 149.76,16.04 49.2,10.7 93.42,27.1 132.64,49.21l-75.95 182.91c-37.08,-18.54 -72.92,-32.44 -107.5,-41.72 -34.59,-9.27 -68.28,-13.91 -101.08,-13.91 -24.25,0 -43.5,2.14 -57.76,6.42 -14.26,4.28 -24.43,9.98 -30.49,17.11 -6.06,7.13 -9.09,14.98 -9.09,23.54 0,12.83 7.49,23 22.46,30.48 14.97,7.49 34.76,13.73 59.37,18.72 24.6,4.99 51.7,10.34 81.3,16.04 29.59,5.7 59.01,13.55 88.25,23.54 29.24,9.98 56.16,23.18 80.76,39.58 24.6,16.4 44.39,37.8 59.37,64.18 14.98,26.39 22.46,59.19 22.46,98.41 0,45.64 -13.02,87.54 -39.04,125.69 -26.03,38.15 -64.72,68.81 -116.06,91.99 -51.34,23.18 -115.88,34.76 -193.61,34.76z"/>
  <polygon id="_7" class="fil0" points="5032.25,2777.8 5032.25,2029.02 5284.69,2029.02 5284.69,2777.8 "/>
  <polygon id="_8" class="fil0" points="5689.16,2777.8 5689.16,2029.02 5896.68,2029.02 6196.19,2517.87 6087.08,2517.87 6378.04,2029.02 6585.55,2029.02 6587.69,2777.8 6357.71,2777.8 6355.57,2375.6 6391.94,2375.6 6192.98,2710.41 6081.73,2710.41 5874.21,2375.6 5919.14,2375.6 5919.14,2777.8 "/>
  <polygon id="_9" class="fil0" points="6671.25,2777.8 6671.25,2029.02 6923.7,2029.02 6923.7,2777.8 "/>
  <path id="_10" class="fil0" d="M7007.26 2777.8l0 -748.78 360.48 0c69.89,0 130.32,11.41 181.31,34.23 50.99,22.82 90.39,55.45 118.2,97.88 27.81,42.43 41.72,92.53 41.72,150.29 0,57.76 -13.91,107.5 -41.72,149.22 -27.81,41.72 -67.21,73.63 -118.2,95.74 -50.99,22.11 -111.43,33.16 -181.31,33.16l-220.35 0 112.31 -103.76 0 292.02 -252.44 0zm448.2 0l-183.98 -272.77 267.42 0 186.13 272.77 -269.56 0zm-195.75 -264.21l-112.31 -114.46 204.31 0c34.94,0 60.8,-7.84 77.56,-23.53 16.76,-15.69 25.13,-37.08 25.13,-64.18 0,-27.1 -8.38,-48.49 -25.13,-64.18 -16.76,-15.69 -42.61,-23.54 -77.56,-23.54l-204.31 0 112.31 -114.45 0 404.34z"/>
  <path id="_11" class="fil0" d="M7765.78 2777.8l0 -748.78 360.48 0c69.89,0 130.32,11.41 181.31,34.23 50.99,22.82 90.39,55.45 118.2,97.88 27.81,42.43 41.72,92.53 41.72,150.29 0,57.76 -13.91,107.5 -41.72,149.22 -27.81,41.72 -67.21,73.63 -118.2,95.74 -50.99,22.11 -111.43,33.16 -181.31,33.16l-220.35 0 112.31 -103.76 0 292.02 -252.44 0zm448.2 0l-183.98 -272.77 267.42 0 186.13 272.77 -269.56 0zm-195.75 -264.21l-112.31 -114.46 204.31 0c34.94,0 60.8,-7.84 77.56,-23.53 16.76,-15.69 25.13,-37.08 25.13,-64.18 0,-27.1 -8.38,-48.49 -25.13,-64.18 -16.76,-15.69 -42.61,-23.54 -77.56,-23.54l-204.31 0 112.31 -114.45 0 404.34z"/>
  <path id="_12" class="fil0" d="M8916.89 2794.91c-60.62,0 -116.78,-9.63 -168.48,-28.88 -51.7,-19.25 -96.45,-46.53 -134.24,-81.83 -37.8,-35.3 -67.21,-76.84 -88.25,-124.62 -21.04,-47.78 -31.56,-99.83 -31.56,-156.17 0,-57.05 10.7,-109.11 32.09,-156.17 21.39,-47.07 50.81,-88.43 88.25,-124.08 37.44,-35.66 82.01,-63.11 133.71,-82.37 51.7,-19.26 107.86,-28.88 168.48,-28.88 61.33,0 117.67,9.63 169.01,28.88 51.35,19.25 95.74,46.71 133.18,82.37 37.44,35.65 66.85,77.02 88.25,124.08 21.39,47.07 32.09,99.12 32.09,156.17 0,56.34 -10.52,108.39 -31.56,156.17 -21.04,47.78 -50.45,89.32 -88.25,124.62 -37.8,35.3 -82.37,62.58 -133.71,81.83 -51.34,19.26 -107.68,28.88 -169.01,28.88zm-1.07 -204.31c24.25,0 46.53,-4.28 66.85,-12.84 20.33,-8.56 38.15,-20.86 53.48,-36.91 15.33,-16.04 27.28,-35.65 35.83,-58.83 8.56,-23.18 12.84,-49.39 12.84,-78.62 0,-29.24 -4.28,-55.44 -12.84,-78.62 -8.56,-23.18 -20.5,-42.79 -35.83,-58.83 -15.33,-16.05 -32.98,-28.35 -52.95,-36.91 -19.97,-8.56 -42.07,-12.83 -66.32,-12.83 -23.54,0 -45.46,4.28 -65.79,12.83 -20.32,8.56 -38.15,20.86 -53.48,36.91 -15.33,16.04 -27.28,35.65 -35.83,58.83 -8.56,23.18 -12.83,49.39 -12.83,78.62 0,29.24 4.28,55.44 12.83,78.62 8.56,23.18 20.5,42.79 35.83,58.83 15.33,16.05 32.98,28.35 52.95,36.91 19.97,8.56 41.72,12.84 65.25,12.84z"/>
  <path id="_13" class="fil0" d="M9393.02 2777.8l0 -748.78 360.48 0c69.89,0 130.32,11.41 181.31,34.23 50.99,22.82 90.39,55.45 118.2,97.88 27.81,42.43 41.72,92.53 41.72,150.29 0,57.76 -13.91,107.5 -41.72,149.22 -27.81,41.72 -67.21,73.63 -118.2,95.74 -50.99,22.11 -111.43,33.16 -181.31,33.16l-220.35 0 112.31 -103.76 0 292.02 -252.44 0zm448.2 0l-183.98 -272.77 267.42 0 186.13 272.77 -269.56 0zm-195.75 -264.21l-112.31 -114.46 204.31 0c34.94,0 60.8,-7.84 77.56,-23.53 16.76,-15.69 25.13,-37.08 25.13,-64.18 0,-27.1 -8.38,-48.49 -25.13,-64.18 -16.76,-15.69 -42.61,-23.54 -77.56,-23.54l-204.31 0 112.31 -114.45 0 404.34z"/>
  <path id="_14" class="fil0" d="M2006.56 3904.08c-62.76,0 -123.37,-7.13 -181.85,-21.39 -58.48,-14.26 -106.61,-32.8 -144.41,-55.62l81.3 -183.99c35.66,20.68 75.41,37.26 119.27,49.74 43.86,12.48 86.46,18.72 127.83,18.72 24.25,0 43.32,-1.6 57.23,-4.81 13.91,-3.21 24.07,-7.85 30.48,-13.91 6.42,-6.06 9.63,-13.37 9.63,-21.93 0,-13.55 -7.49,-24.25 -22.46,-32.09 -14.98,-7.85 -34.76,-14.44 -59.37,-19.79 -24.6,-5.35 -51.52,-11.05 -80.76,-17.11 -29.24,-6.06 -58.65,-14.08 -88.25,-24.07 -29.59,-9.98 -56.69,-23.18 -81.3,-39.58 -24.6,-16.4 -44.39,-37.98 -59.37,-64.72 -14.97,-26.74 -22.46,-60.08 -22.46,-100.02 0,-46.35 13.01,-88.61 39.04,-126.76 26.03,-38.15 64.89,-68.64 116.59,-91.46 51.7,-22.82 116.06,-34.23 193.08,-34.23 50.63,0 100.55,5.35 149.76,16.04 49.2,10.7 93.42,27.1 132.64,49.21l-75.95 182.91c-37.08,-18.54 -72.92,-32.44 -107.5,-41.72 -34.59,-9.27 -68.28,-13.91 -101.08,-13.91 -24.25,0 -43.5,2.14 -57.76,6.42 -14.26,4.28 -24.43,9.98 -30.49,17.11 -6.06,7.13 -9.09,14.98 -9.09,23.54 0,12.83 7.49,23 22.46,30.48 14.97,7.49 34.76,13.73 59.37,18.72 24.6,4.99 51.7,10.34 81.3,16.04 29.59,5.7 59.01,13.55 88.25,23.54 29.24,9.98 56.16,23.18 80.76,39.58 24.6,16.4 44.39,37.8 59.37,64.18 14.98,26.39 22.46,59.19 22.46,98.41 0,45.64 -13.02,87.54 -39.04,125.69 -26.03,38.15 -64.72,68.81 -116.06,91.99 -51.34,23.18 -115.88,34.76 -193.61,34.76z"/>
  <path id="_15" class="fil0" d="M2391.77 3886.97l0 -748.78 360.48 0c69.89,0 130.32,11.41 181.31,34.23 50.99,22.82 90.39,55.45 118.2,97.88 27.81,42.43 41.72,92.53 41.72,150.29 0,57.76 -13.91,107.68 -41.72,149.76 -27.81,42.07 -67.21,74.7 -118.2,97.87 -50.99,23.18 -111.43,34.77 -181.31,34.77l-220.35 0 112.31 -108.04 0 292.02 -252.44 0zm252.44 -264.21l-112.31 -114.46 204.31 0c34.94,0 60.8,-7.84 77.56,-23.53 16.76,-15.69 25.13,-37.08 25.13,-64.18 0,-27.1 -8.38,-48.49 -25.13,-64.18 -16.76,-15.69 -42.61,-23.54 -77.56,-23.54l-204.31 0 112.31 -114.45 0 404.34z"/>
  <path id="_16" class="fil0" d="M3018.73 3886.97l327.32 -748.78 248.17 0 327.32 748.78 -261 0 -241.75 -628.98 98.41 0 -241.75 628.98 -256.72 0zm194.68 -130.5l64.18 -181.85 344.44 0 64.18 181.85 -472.8 0z"/>
  <path id="_17" class="fil0" d="M4203 3904.08c-62.76,0 -123.37,-7.13 -181.85,-21.39 -58.48,-14.26 -106.61,-32.8 -144.41,-55.62l81.3 -183.99c35.66,20.68 75.41,37.26 119.27,49.74 43.86,12.48 86.46,18.72 127.83,18.72 24.25,0 43.32,-1.6 57.23,-4.81 13.91,-3.21 24.07,-7.85 30.48,-13.91 6.42,-6.06 9.63,-13.37 9.63,-21.93 0,-13.55 -7.49,-24.25 -22.46,-32.09 -14.98,-7.85 -34.76,-14.44 -59.37,-19.79 -24.6,-5.35 -51.52,-11.05 -80.76,-17.11 -29.24,-6.06 -58.65,-14.08 -88.25,-24.07 -29.59,-9.98 -56.69,-23.18 -81.3,-39.58 -24.6,-16.4 -44.39,-37.98 -59.37,-64.72 -14.97,-26.74 -22.46,-60.08 -22.46,-100.02 0,-46.35 13.01,-88.61 39.04,-126.76 26.03,-38.15 64.89,-68.64 116.59,-91.46 51.7,-22.82 116.06,-34.23 193.08,-34.23 50.63,0 100.55,5.35 149.76,16.04 49.2,10.7 93.42,27.1 132.64,49.21l-75.95 182.91c-37.08,-18.54 -72.92,-32.44 -107.5,-41.72 -34.59,-9.27 -68.28,-13.91 -101.08,-13.91 -24.25,0 -43.5,2.14 -57.76,6.42 -14.26,4.28 -24.43,9.98 -30.49,17.11 -6.06,7.13 -9.09,14.98 -9.09,23.54 0,12.83 7.49,23 22.46,30.48 14.97,7.49 34.76,13.73 59.37,18.72 24.6,4.99 51.7,10.34 81.3,16.04 29.59,5.7 59.01,13.55 88.25,23.54 29.24,9.98 56.16,23.18 80.76,39.58 24.6,16.4 44.39,37.8 59.37,64.18 14.98,26.39 22.46,59.19 22.46,98.41 0,45.64 -13.02,87.54 -39.04,125.69 -26.03,38.15 -64.72,68.81 -116.06,91.99 -51.34,23.18 -115.88,34.76 -193.61,34.76z"/>
  <polygon id="_18" class="fil0" points="4588.2,3886.97 4588.2,3138.19 4840.65,3138.19 4840.65,3886.97 "/>
  <path id="_19" class="fil0" d="M5149.91 3726.52l-13.91 -277.05 282.4 -311.28 274.91 0 -316.63 348.72 -140.13 143.34 -86.64 96.27zm-225.7 160.45l0 -748.78 248.17 0 0 748.78 -248.17 0zm492.06 0l-220.35 -290.95 163.66 -173.29 348.72 464.24 -292.02 0z"/>
  <polygon id="_20" class="fil0" points="5704.13,3886.97 5704.13,3138.19 5956.57,3138.19 5956.57,3886.97 "/>
  <polygon id="_21" class="fil0" points="6202.72,3886.97 6202.72,3333.94 5983.44,3333.94 5983.44,3138.19 6674.46,3138.19 6674.46,3333.94 6455.17,3333.94 6455.17,3886.97 "/>
  <path id="_22" class="fil0" d="M6582.59 3886.97l327.32 -748.78 248.17 0 327.32 748.78 -261 0 -241.75 -628.98 98.41 0 -241.75 628.98 -256.72 0zm194.68 -130.5l64.18 -181.85 344.44 0 64.18 181.85 -472.8 0z"/>
  <path id="_23" class="fil1" d="M8166.91 3904.08c-114.81,0 -204.31,-31.02 -268.49,-93.06 -64.18,-62.04 -96.27,-149.04 -96.27,-261l0 -411.83 252.44 0 0 404.34c0,57.05 10.34,97.52 31.02,121.41 20.68,23.89 48.49,35.83 83.44,35.83 35.65,0 63.65,-11.94 83.97,-35.83 20.33,-23.89 30.49,-64.36 30.49,-121.41l0 -404.34 248.17 0 0 411.83c0,111.96 -32.09,198.96 -96.27,261 -64.18,62.04 -153.68,93.06 -268.49,93.06z"/>
  <polygon id="_24" class="fil1" points="8608.81,3886.97 8608.81,3138.19 8816.33,3138.19 9197.14,3593.87 9100.87,3593.87 9100.87,3138.19 9346.9,3138.19 9346.9,3886.97 9139.38,3886.97 8758.57,3431.28 8854.84,3431.28 8854.84,3886.97 "/>
  <polygon id="_25" class="fil1" points="9623,3886.97 9623,3558.57 9680.76,3709.4 9340.6,3138.19 9606.95,3138.19 9836.94,3528.63 9681.83,3528.63 9913.95,3138.19 10157.84,3138.19 9819.82,3709.4 9875.44,3558.57 9875.44,3886.97 "/>
  <g id="UNY_x0020__x0028_Universitas_x0020_Negeri_x0020_Yogyakarta_x0029__x0020_Logo_x0020__x0028_CDR2020_x0029__x0020_-_x0020_Vector69Com.cdr">
   <path class="fil2" d="M13845.89 948.43c168.09,-11.92 372.82,106.95 518.5,409.4 126.67,263 214.73,450.63 363.97,522.32 4.86,-1.62 5.96,1.67 1.1,3.3 -76.28,146.96 -34.01,349.87 22.64,636.23 65.49,331.1 -28.17,549.68 -171.03,640.2l-0.17 0.32c59.58,157.38 4.92,387.3 -241.76,613.99 -214.94,197.52 -368.97,336.21 -394.29,499.83 2.96,4.18 0.13,6.19 -2.84,2.01 -162.76,-30.37 -344.68,68.94 -602.3,206.22 -296.94,158.23 -532.75,132.65 -661.09,23.05 -128.35,109.6 -364.15,135.19 -661.09,-23.05 -257.62,-137.28 -439.54,-236.59 -602.3,-206.22 -2.97,4.19 -5.8,2.17 -2.83,-2 -25.33,-163.63 -179.35,-302.32 -394.3,-499.84 -247.17,-227.13 -301.55,-457.53 -241.4,-614.93 -142.31,-90.9 -235.39,-309.23 -170.06,-639.57 56.65,-286.37 98.91,-489.28 22.63,-636.23 -4.86,-1.62 -3.76,-4.92 1.1,-3.3 149.24,-71.69 237.29,-259.33 363.97,-522.32 146.46,-304.08 352.61,-422.62 521.21,-409.22l0.17 -0.08c41.5,-163.52 219.1,-320.56 552.69,-363.09 289.57,-36.91 495.43,-61.04 610.68,-179.91 0,-5.13 3.48,-5.13 3.48,0 115.25,118.87 321.11,143 610.68,179.91 333.51,42.52 511.11,199.5 552.66,362.98zm-34.18 45.41c163.17,-11.57 361.89,103.81 503.3,397.4 122.96,255.29 208.43,437.43 353.3,507.02 4.72,-1.57 5.78,1.63 1.07,3.2 -74.05,142.65 -33.02,339.61 21.97,617.58 63.57,321.4 -27.34,533.57 -166.01,621.45l-0.17 0.31c57.83,152.77 4.78,375.95 -234.67,596 -208.65,191.73 -358.16,326.36 -382.73,485.19 2.87,4.06 0.13,6.01 -2.76,1.95 -157.99,-29.48 -334.58,66.92 -584.66,200.17 -288.24,153.59 -517.13,128.76 -641.72,22.37 -124.59,106.39 -353.48,131.22 -641.72,-22.37 -250.07,-133.26 -426.67,-229.67 -584.65,-200.18 -2.89,4.06 -5.63,2.11 -2.76,-1.95 -24.58,-158.83 -174.09,-293.46 -382.74,-485.19 -239.93,-220.48 -292.72,-444.13 -234.33,-596.92 -138.14,-88.24 -228.5,-300.17 -165.07,-620.83 54.99,-277.98 96.02,-474.94 21.97,-617.58 -4.72,-1.57 -3.66,-4.78 1.06,-3.2 144.87,-69.59 230.34,-251.73 353.3,-507.02 142.17,-295.17 342.28,-410.23 505.94,-397.23l0.17 -0.07c40.28,-158.74 212.68,-311.17 536.49,-352.45 281.09,-35.83 480.91,-59.25 592.78,-174.64 0,-4.98 3.37,-4.98 3.37,0 111.87,115.39 311.7,138.81 592.78,174.64 323.74,41.28 496.14,193.65 536.47,352.35z"/>
   <path class="fil3" d="M13811.71 993.84c163.17,-11.57 361.89,103.81 503.3,397.4 122.96,255.29 208.43,437.43 353.3,507.02 4.72,-1.57 5.78,1.63 1.07,3.2 -74.05,142.65 -33.02,339.61 21.97,617.58 63.57,321.4 -27.34,533.57 -166.01,621.45l-0.17 0.31c57.83,152.77 4.78,375.95 -234.67,596 -208.65,191.73 -358.16,326.36 -382.73,485.19 2.87,4.06 0.13,6.01 -2.76,1.95 -157.99,-29.48 -334.58,66.92 -584.66,200.17 -288.24,153.59 -517.13,128.76 -641.72,22.37 -124.59,106.39 -353.48,131.22 -641.72,-22.37 -250.07,-133.26 -426.67,-229.67 -584.65,-200.18 -2.89,4.06 -5.63,2.11 -2.76,-1.95 -24.58,-158.83 -174.09,-293.46 -382.74,-485.19 -239.93,-220.48 -292.72,-444.13 -234.33,-596.92 -138.14,-88.24 -228.5,-300.17 -165.07,-620.83 54.99,-277.98 96.02,-474.94 21.97,-617.58 -4.72,-1.57 -3.66,-4.78 1.06,-3.2 144.87,-69.59 230.34,-251.73 353.3,-507.02 142.17,-295.17 342.28,-410.23 505.94,-397.23l0.17 -0.07c40.28,-158.74 212.68,-311.17 536.49,-352.45 281.09,-35.83 480.91,-59.25 592.78,-174.64 0,-4.98 3.37,-4.98 3.37,0 111.87,115.39 311.7,138.81 592.78,174.64 323.74,41.28 496.14,193.65 536.47,352.35zm-49.73 66.06c156,-11.07 346,99.26 481.2,379.94 117.56,244.08 199.28,418.22 337.78,484.76 4.52,-1.5 5.53,1.55 1.02,3.06 -70.79,136.38 -31.56,324.7 21.01,590.46 60.78,307.29 -26.14,510.14 -158.72,594.16l-0.16 0.29c55.29,146.06 4.57,359.44 -224.37,569.82 -199.48,183.31 -342.43,312.02 -365.93,463.88 2.75,3.88 0.12,5.74 -2.63,1.87 -151.05,-28.19 -319.89,63.98 -558.98,191.38 -275.58,146.85 -494.42,123.11 -613.54,21.39 -119.12,101.71 -337.95,125.46 -613.54,-21.39 -239.09,-127.41 -407.93,-219.58 -558.98,-191.39 -2.76,3.88 -5.38,2.02 -2.63,-1.87 -23.5,-151.85 -166.44,-280.57 -365.93,-463.88 -229.39,-210.8 -279.86,-424.61 -224.03,-570.7 -132.07,-84.37 -218.46,-286.99 -157.82,-593.57 52.57,-265.77 91.8,-454.08 21,-590.46 -4.51,-1.5 -3.49,-4.56 1.02,-3.06 138.5,-66.54 220.22,-240.67 337.78,-484.76 135.93,-282.2 327.24,-392.21 483.72,-379.78l0.16 -0.07c38.51,-151.76 203.34,-297.5 512.93,-336.97 268.74,-34.26 459.79,-56.65 566.75,-166.97 0,-4.76 3.23,-4.76 3.23,0 106.96,110.32 298,132.72 566.75,166.97 309.52,39.46 474.34,185.15 512.91,336.87z"/>
   <path class="fil2" d="M13761.98 1059.9c156,-11.07 346,99.26 481.2,379.94 117.56,244.08 199.28,418.22 337.78,484.76 4.52,-1.5 5.53,1.55 1.02,3.06 -70.79,136.38 -31.56,324.7 21.01,590.46 60.78,307.29 -26.14,510.14 -158.72,594.16l-0.16 0.29c55.29,146.06 4.57,359.44 -224.37,569.82 -199.48,183.31 -342.43,312.02 -365.93,463.88 2.75,3.88 0.12,5.74 -2.63,1.87 -151.05,-28.19 -319.89,63.98 -558.98,191.38 -275.58,146.85 -494.42,123.11 -613.54,21.39 -119.12,101.71 -337.95,125.46 -613.54,-21.39 -239.09,-127.41 -407.93,-219.58 -558.98,-191.39 -2.76,3.88 -5.38,2.02 -2.63,-1.87 -23.5,-151.85 -166.44,-280.57 -365.93,-463.88 -229.39,-210.8 -279.86,-424.61 -224.03,-570.7 -132.07,-84.37 -218.46,-286.99 -157.82,-593.57 52.57,-265.77 91.8,-454.08 21,-590.46 -4.51,-1.5 -3.49,-4.56 1.02,-3.06 138.5,-66.54 220.22,-240.67 337.78,-484.76 135.93,-282.2 327.24,-392.21 483.72,-379.78l0.16 -0.07c38.51,-151.76 203.34,-297.5 512.93,-336.97 268.74,-34.26 459.79,-56.65 566.75,-166.97 0,-4.76 3.23,-4.76 3.23,0 106.96,110.32 298,132.72 566.75,166.97 309.52,39.46 474.34,185.15 512.91,336.87z"/>
   <path class="fil4" d="M12679.36 3560.95l-3.61 0.2c-248.32,-13.41 -515.02,-22.81 -732.59,-158.79 -212.74,-159.57 -312.69,-240.2 -418.62,-494.4 102.69,61.61 155.47,81.95 274.27,93.82l-7.22 -18.04c-142.05,-141.95 -295.92,-41.82 -295.92,-375.31l0 -46.92 10.82 21.65 7.22 21.66 10.82 21.65c55.51,92.5 196.04,101.15 288.71,173.22l0 -10.83 0 -10.83 0 -7.22 -3.61 -10.83 -7.22 -14.43 -10.82 -14.44 -7.22 -7.22c-193.17,-128.78 -330.19,-155.93 -256.22,-476.36l14.43 -46.92 14.44 54.13 10.83 21.66c41.89,125.69 216.94,215.6 328.4,274.26l-3.61 -18.04 -7.22 -14.43c-37.91,-113.81 -556.93,-309.69 -129.91,-689.28 -103.26,344.11 106.22,367.1 299.53,599.06 53.76,-161.26 -354.36,-192.31 -238.19,-599.06 98.51,-229.76 264.33,-305.98 494.41,-371.71l79.4 -21.66 -54.13 25.27 -50.52 25.26c-125.69,83.81 -223.74,247.07 -223.74,400.58l0 18.04 3.61 39.7 0 21.65c40.6,202.65 186.22,220.29 267.06,422.23l3.61 39.69 0 21.66c-13.26,66.34 -52.81,94.47 -122.7,115.48 -117.66,35.37 5.43,138.99 18.04,176.83l3.61 10.83 0 14.44 -3.61 14.44 -7.22 18.04c-48.04,96.13 -220.13,251.19 -220.13,353.66l3.61 18.04 3.61 18.05c37.7,226.28 494.94,264.6 667.64,277.87 172.69,-13.28 629.94,-51.59 667.64,-277.87l3.61 -18.05 3.61 -18.04c0,-102.47 -172.09,-257.53 -220.13,-353.66l-7.22 -18.04 -3.61 -14.44 0 -14.44 3.61 -10.83c13.98,-41.93 128.79,-144.42 18.05,-176.83 -70.04,-20.49 -109.44,-49.13 -122.7,-115.48l0 -21.66 3.61 -39.69c80.83,-201.94 226.46,-219.58 267.06,-422.23l0 -21.65 3.61 -39.7 0 -18.04c0,-153.51 -98.06,-316.77 -223.75,-400.58l-50.52 -25.26 -54.13 -25.27 79.4 21.66c230.07,65.73 395.89,141.95 494.4,371.71 116.17,406.74 -291.94,437.8 -238.18,599.06 193.31,-231.96 402.79,-254.95 299.53,-599.06 427.02,379.6 -92,575.47 -129.91,689.28l-7.21 14.43 -3.62 18.04c111.46,-58.66 286.52,-148.57 328.41,-274.26l10.83 -21.66 14.44 -54.13 14.43 46.92c73.98,320.44 -63.06,347.58 -256.22,476.36l-7.22 7.22 -10.82 14.44 -7.22 14.43 -3.61 10.83 0 7.22 0 10.83 0 10.83c92.66,-72.07 233.19,-80.73 288.7,-173.22l10.83 -21.65 7.22 -21.66 10.82 -21.65 0 46.92c0,333.49 -153.87,233.37 -295.92,375.31l-7.21 18.04c118.8,-11.87 171.58,-32.22 274.27,-93.82 -105.93,254.2 -205.87,334.83 -418.62,494.4 -217.57,135.98 -484.27,145.37 -732.59,158.79l-3.61 -0.2z"/>
   <path class="fil5" d="M12679.36 3416.8c-47.52,-26.4 -85.6,-53.73 -137.13,-72.17 -107.61,-38.52 -220.75,-50.39 -324.8,-97.44 -92.46,-41.8 -64.11,-84.16 -36.09,-155.18 35.94,-91.07 138.32,-222.7 187.66,-321.18 41.99,-83.83 46.73,-125.25 14.44,-216.52 -2.54,-7.16 -18.74,-14.22 -21.65,-7.22 -6.01,14.43 -4.09,36.27 -18.05,43.31 -16.6,8.39 -46.88,-6.09 -72.17,0 -112.28,27.07 19.6,102.09 36.09,151.56 10.93,21.84 -206,314.53 -234.57,360.89 -27.33,44.31 -24.48,92.15 10.83,133.53 93.16,109.16 408.7,203.26 595.45,205.65 186.76,-2.39 502.29,-96.49 595.45,-205.65 35.31,-41.38 38.15,-89.21 10.83,-133.53 -28.57,-46.35 -245.5,-339.05 -234.57,-360.89 16.49,-49.48 148.36,-124.49 36.09,-151.56 -25.3,-6.09 -55.57,8.39 -72.18,0 -13.96,-7.04 -12.04,-28.88 -18.05,-43.31 -2.91,-7 -19.11,0.07 -21.65,7.22 -32.29,91.27 -27.56,132.69 14.44,216.52 49.34,98.48 151.72,230.11 187.66,321.18 28.02,71.02 56.37,113.38 -36.08,155.18 -104.05,47.05 -217.19,58.92 -324.8,97.44 -51.54,18.44 -89.61,45.77 -137.13,72.17z"/>
   <path class="fil6" d="M12554.85 3922.04c0,-78.83 -16.43,-210.25 3.61,-281.49 12.19,-43.37 39.69,-58.58 79.4,-57.74 71.49,1.51 124.06,22.56 137.14,101.04l0 36.09c26.45,-21.05 16.84,-20.45 50.52,-28.87 64.84,0 94.12,37.25 72.17,86.61 -4.81,10.83 -9.63,21.65 -14.44,32.48 -12.02,27.05 -4.91,80.1 25.26,83 70.78,6.79 33.97,-144.61 32.48,-187.65l39.7 -7.22c2.89,52.12 22.39,324.44 -64.96,368.09 -19.41,12.94 -28.32,16.1 -50.53,21.66 -162.28,18.02 -377.13,-126.18 -451.1,21.65 -20.45,51.14 -9.35,72.9 39.7,97.43 71.42,28.6 186.35,31.3 263.45,21.66 106.75,-30.52 129.76,-65.67 198.48,-147.97 15.59,-18.67 51.95,-35.8 75.78,-36.08 51.12,-0.61 68.57,23.94 68.57,68.57 -30.92,-46.42 -44.34,-32.31 -68.57,0 -33.48,44.67 -98.56,123.63 -147.96,147.96 -76.83,37.85 -132.7,44.17 -216.54,39.7 -96.36,-5.13 -154.77,-11.76 -238.18,-61.35 -56.69,-33.7 -71.47,-84.77 -61.35,-144.35 22.13,-130.27 140.5,-161.99 256.23,-140.74 72.96,13.4 238.32,89.33 274.27,83 50.84,-8.95 75.78,-51.84 75.78,-104.66 -25.11,8.37 -32.44,20.11 -61.35,14.43 -43.93,-8.64 -67.28,-26.99 -75.78,-68.56 -10.99,-53.67 3.61,-108.5 3.61,-162.4l-25.26 10.83 0 194.88 -86.61 7.21c0,-80.59 0,-161.19 0,-241.78 0,-40.23 -15.72,-51.81 -46.91,-50.52 -26.62,1.1 -35.1,25.45 -36.09,46.91 -3.23,70.1 35.37,238.19 -50.52,238.19zm-129.91 25.26c-80.51,0 -126.31,-44.68 -126.31,-111.87l0 -133.53 93.83 0c0,50.52 0,101.05 0,151.57 0,48.64 68.57,75.4 68.57,25.26l0 -180.44 83 -3.61 3.61 147.96c-13.48,67.44 -45.15,88.87 -108.26,104.65l-14.44 0z"/>
   <polygon class="fil7" points="11957.6,1359.78 11834.9,1128.81 11881.81,1103.55 12055.04,1208.2 11975.64,1056.64 12018.95,1031.37 12141.65,1262.35 12094.74,1287.6 11925.12,1186.56 12004.52,1338.13 "/>
   <polygon class="fil7" points="12210.22,1240.69 12134.43,991.68 12318.48,933.94 12329.31,977.24 12195.78,1016.94 12213.83,1074.69 12340.13,1034.99 12350.96,1078.29 12228.26,1114.38 12246.31,1182.95 12387.05,1139.65 12401.49,1182.95 "/>
   <polygon class="fil7" points="12574.71,1067.46 12571.09,1024.16 12686.58,1016.94 12693.8,1121.59 12682.97,1128.81 12672.15,1136.03 12661.32,1143.25 12646.89,1150.47 12614.41,1164.9 12581.93,1168.51 12563.88,1168.51 12545.84,1168.51 12527.8,1161.3 12509.75,1157.69 12495.31,1146.86 12484.49,1136.03 12470.06,1125.21 12462.83,1110.77 12455.62,1096.33 12448.4,1078.29 12444.79,1060.25 12441.18,1042.2 12441.18,1024.16 12444.79,1002.51 12448.4,984.46 12455.62,970.03 12462.83,951.98 12473.66,941.16 12484.49,926.72 12502.54,915.9 12513.36,912.28 12527.8,905.07 12545.84,901.46 12563.88,901.46 12585.53,897.85 12607.19,901.46 12614.41,905.07 12625.24,908.68 12632.45,912.28 12639.67,915.9 12654.1,926.72 12664.93,937.55 12672.15,951.98 12679.37,970.03 12628.84,980.85 12618.01,966.42 12610.8,959.2 12603.57,951.98 12596.36,948.38 12585.53,944.76 12578.32,944.76 12567.49,944.76 12556.67,944.76 12549.44,948.38 12542.23,948.38 12535.01,951.98 12527.8,955.59 12520.58,959.2 12513.36,970.03 12506.14,977.24 12502.54,984.46 12498.92,991.68 12498.92,998.89 12495.31,1016.94 12495.31,1034.99 12498.92,1056.64 12502.54,1067.46 12502.54,1078.29 12509.75,1092.73 12520.58,1103.55 12531.4,1114.38 12545.84,1121.59 12560.28,1121.59 12578.32,1125.21 12592.76,1121.59 12610.8,1114.38 12625.24,1107.17 12636.06,1096.33 12636.06,1063.85 "/>
   <polygon class="fil7" points="12762.36,1161.3 12798.46,901.46 12989.72,926.72 12986.11,970.03 12845.37,951.98 12838.15,1009.72 12968.07,1027.77 12960.85,1071.08 12830.93,1053.04 12820.11,1125.21 12964.46,1143.25 12960.85,1186.56 "/>
   <path class="fil7" d="M13018.59 1197.39l86.61 -245.4 104.65 36.09 32.48 10.82 21.65 14.44 7.22 7.22 7.21 7.21 3.61 7.22 3.61 10.82 0 10.83 0 10.82 0 10.83 -3.61 10.83 -7.22 14.43 -7.22 10.83 -7.22 7.22 -10.83 7.22 -10.82 7.22 -14.44 0 -14.44 3.61 -14.44 -3.61 10.83 14.44 7.21 14.43 7.22 21.65 7.21 28.87 14.44 57.74 -61.35 -18.04 -14.43 -68.57 -10.83 -28.87 -3.61 -14.44 -7.22 -10.83 -7.21 -7.21 -7.22 -3.61 -14.44 -7.22 -10.83 -3.61 -36.09 104.66 -50.52 -18.04zm101.05 -122.7l36.09 10.82 28.87 10.83 14.43 0 10.83 0 7.22 -3.61 7.21 -7.22 3.61 -10.82 3.61 -10.83 0 -10.82 -3.61 -7.22 -3.61 -3.61 -3.61 -3.61 -7.22 -3.61 -36.09 -10.83 -36.09 -14.44 -21.65 64.96z"/>
   <polygon class="fil7" points="13271.21,1294.82 13386.69,1060.25 13433.61,1085.51 13318.12,1320.08 "/>
   <polygon class="fil7" points="13516.61,1446.39 13585.18,1363.39 13606.83,1182.95 13657.35,1222.64 13635.7,1341.73 13751.18,1298.43 13798.1,1338.13 13628.48,1395.87 13556.31,1478.87 "/>
   <path class="fil7" d="M13758.4 1482.48l14.43 -10.82 14.44 -10.83 14.44 -7.22 14.44 -3.61 21.65 -3.61 21.65 0 21.66 3.61 18.04 7.22 10.82 7.21 10.83 7.22 10.82 10.82 10.83 10.83 10.83 10.82 3.61 10.83 7.21 10.83 3.61 14.43 3.61 10.83 3.61 10.83 0 25.26 -7.22 25.26 -3.61 10.82 -7.21 10.83 -7.22 10.82 -10.83 10.83 -10.83 10.83 -10.82 10.82 -25.26 14.44 -10.82 7.22 -14.44 7.21 -10.83 3.61 -14.44 0 -10.82 3.61 -10.83 0 -14.44 -3.61 -10.82 -3.61 -10.83 -3.61 -10.83 -3.61 -10.82 -7.22 -10.83 -7.21 -18.04 -21.65 -3.61 -3.61 -7.22 -7.21 -7.21 -10.83 -3.61 -10.82 -3.61 -14.43 -3.61 -10.83 -3.61 -10.82 0 -25.26 3.61 -10.82 3.61 -10.83 3.61 -14.44 7.22 -10.83 18.04 -21.65 7.22 -7.21 14.44 -10.83zm32.47 39.7l-14.43 14.44 -10.83 14.43 -7.22 14.44 -3.61 14.44 -3.61 14.44 3.61 14.43 3.61 14.44 10.82 10.83 10.83 10.82 10.82 7.22 14.44 7.21 14.44 0 14.44 0 14.44 -3.61 18.04 -10.83 7.21 -3.61 10.83 -7.21 14.44 -14.44 10.82 -14.44 10.83 -14.44 3.61 -14.43 0 -14.44 -3.61 -14.44 -3.61 -10.83 -10.83 -14.44 -10.83 -10.82 -10.82 -7.22 -14.44 -7.22 -14.44 0 -14.44 0 -14.43 3.61 -18.05 10.83 -7.21 3.61 -10.83 7.22z"/>
   <polygon class="fil7" points="13989.37,1872.23 14029.06,1854.18 14075.98,1955.23 13982.14,2002.15 13971.32,1994.93 13960.49,1987.71 13935.23,1969.67 13924.41,1958.84 13913.57,1944.41 13895.53,1919.14 13888.31,1901.1 13884.71,1883.06 13881.1,1865.01 13881.1,1846.97 13884.71,1828.93 13888.31,1814.49 13895.53,1800.05 13906.36,1785.62 13917.19,1771.19 13931.62,1760.35 13946.06,1749.53 13960.49,1742.31 13978.54,1731.48 13996.58,1727.87 14018.23,1724.27 14036.28,1724.27 14050.71,1727.87 14068.76,1731.48 14086.8,1738.7 14101.24,1749.53 14112.06,1756.75 14122.89,1767.58 14130.11,1782.01 14140.93,1800.05 14148.15,1821.71 14155.37,1839.75 14155.37,1857.8 14155.37,1868.62 14155.37,1875.84 14151.76,1893.89 14144.54,1908.32 14133.72,1919.14 14126.5,1926.37 14119.28,1933.58 14086.8,1890.28 14094.02,1883.06 14101.24,1875.84 14104.84,1865.01 14104.84,1857.8 14104.84,1839.75 14104.84,1828.93 14097.63,1818.09 14090.41,1803.67 14079.58,1792.83 14068.76,1785.62 14054.33,1778.4 14039.89,1774.79 14021.85,1774.79 14014.62,1778.4 14007.41,1782.01 13985.76,1789.23 13967.71,1800.05 13953.28,1810.88 13942.45,1821.71 13935.23,1836.14 13928.01,1850.57 13928.01,1865.01 13931.62,1879.45 13935.23,1897.49 13946.06,1908.32 13956.89,1922.75 13971.32,1933.58 13982.14,1940.8 14014.62,1926.37 "/>
   <polygon class="fil7" points="13989.37,2142.89 14097.63,2114.02 14220.33,1984.1 14234.76,2041.84 14151.76,2128.45 14267.24,2157.33 14281.68,2218.67 14112.06,2164.54 14003.8,2193.41 "/>
   <path class="fil7" d="M14050.71 2536.26l-3.61 -54.14 57.74 -28.87 -10.82 -101.05 -61.35 -18.04 -3.61 -54.13 270.67 75.78 3.61 57.75 -252.62 122.7zm93.83 -101.05l93.83 -46.92 -97.44 -25.26 3.61 72.17z"/>
   <polygon class="fil7" points="14043.5,2583.17 14306.94,2615.65 14299.72,2666.17 14187.85,2651.73 14285.29,2770.82 14278.07,2839.39 14187.85,2731.13 14014.62,2814.13 14025.45,2745.57 14155.37,2691.43 14115.67,2644.52 14036.28,2633.69 "/>
   <path class="fil7" d="M13928.01 3077.57l21.66 -50.52 61.35 -3.61 36.09 -97.44 -50.52 -39.7 18.04 -54.13 216.54 180.44 -18.04 54.13 -285.1 10.83zm129.92 -54.13l104.66 -3.61 -79.4 -64.95 -25.26 68.57z"/>
   <path class="fil7" d="M13906.36 3117.27l227.35 137.13 -57.74 93.83 -21.65 28.87 -7.22 10.82 -7.21 7.22c-58.69,39.11 -128.72,-11.98 -111.88,-79.4l3.61 -14.44c-54.53,21.83 -83.31,18.04 -144.35,18.04l32.48 -54.13c36.65,-1.93 91.81,0.68 126.31,-10.82l7.22 -3.61 7.22 -7.22 7.22 -14.44 7.22 -7.22 -93.83 -57.74 25.26 -46.92zm104.65 122.7l-21.65 36.09 -14.44 25.26 -7.22 14.44 0 10.83 3.61 7.21c8.7,17.43 38.04,32.28 50.52,14.44l25.26 -36.09 21.65 -36.09 -57.74 -36.09z"/>
   <polygon class="fil7" points="13718.7,3391.54 13881.1,3539.5 13935.23,3481.76 13967.71,3510.63 13826.96,3665.81 13794.49,3633.33 13848.62,3579.19 13686.22,3431.24 "/>
   <path class="fil7" d="M13430 3658.59l43.3 -32.48 54.13 32.48 83 -68.57 -21.65 -57.74 43.3 -36.09 86.61 267.05 -43.3 36.09 -245.4 -140.74zm140.74 21.65l86.61 54.13 -32.48 -97.43 -54.13 43.3z"/>
   <polygon class="fil7" points="11712.2,3828.21 11672.5,3792.12 11766.33,3683.85 11791.6,3647.76 11795.2,3633.33 11798.81,3626.11 11795.2,3618.9 11795.2,3611.67 11787.99,3604.46 11777.16,3590.02 11759.12,3579.19 11751.9,3575.59 11744.68,3575.59 11730.24,3575.59 11719.42,3582.81 11704.98,3597.24 11686.94,3615.28 11593.11,3727.16 11553.41,3694.68 11643.63,3590.02 11668.9,3557.54 11686.94,3539.5 11704.98,3528.67 11712.2,3528.67 11723.03,3525.06 11741.07,3525.06 11759.12,3528.67 11769.94,3532.28 11780.77,3539.5 11802.42,3553.94 11816.85,3564.76 11827.69,3575.59 11842.12,3597.24 11849.33,3615.28 11849.33,3626.11 11849.33,3633.33 11849.33,3651.38 11845.73,3658.59 11842.12,3665.81 11834.9,3676.63 11827.69,3691.07 11802.42,3719.94 "/>
   <polygon class="fil7" points="11676.11,3442.07 11470.41,3604.46 11437.94,3564.76 11506.5,3377.11 11369.37,3485.37 11340.5,3445.67 11542.59,3279.67 11578.68,3322.97 11510.11,3510.63 11643.63,3402.36 "/>
   <polygon class="fil7" points="11510.11,3221.93 11286.36,3359.06 11257.49,3312.15 11484.85,3178.61 "/>
   <polygon class="fil7" points="11430.71,3066.75 11221.4,3247.19 11199.75,3196.66 11354.93,3066.75 11149.23,3077.57 11127.57,3027.05 11409.06,3016.22 "/>
   <polygon class="fil7" points="11362.15,2886.31 11105.92,2940.44 11062.61,2752.78 11109.53,2745.57 11138.4,2882.69 11192.53,2868.26 11167.27,2741.95 11210.57,2734.74 11235.84,2861.04 11308.02,2846.61 11275.54,2702.26 11318.84,2695.04 "/>
   <path class="fil7" d="M11315.23 2637.3l-263.44 3.61 0 -108.27 0 -36.09 3.61 -25.26 3.61 -10.83 7.22 -7.22 7.22 -7.22 7.21 -7.21 10.83 -3.61 7.22 -3.61 25.26 -3.61 10.82 0 14.44 3.61 7.21 3.61 3.61 0 10.82 7.22 10.83 10.83 7.21 10.82 3.61 14.44 3.62 14.44 10.82 -14.44 10.83 -14.44 18.04 -10.82 25.26 -18.04 50.52 -32.48 0 61.35 -57.74 39.7 -21.65 18.04 -14.44 10.82 -7.22 7.22 -3.61 7.21 -3.61 10.83 0 18.04 0 10.82 111.87 -3.61 0 54.13zm-151.56 -50.52l0 -39.7 -3.61 -28.86 -3.61 -18.05 -3.61 -7.22 -7.21 -7.21 -7.22 -3.62 -10.82 0 -14.44 0 -3.61 3.62 -3.61 3.61 -7.21 7.21 -3.61 10.83 0 39.69 0 39.7 68.57 0z"/>
   <polygon class="fil7" points="11232.23,2355.81 11235.84,2305.28 11250.28,2305.28 11261.1,2301.68 11268.32,2298.07 11275.54,2294.46 11282.76,2287.24 11289.97,2280.03 11293.58,2269.2 11297.19,2258.37 11297.19,2247.55 11297.19,2236.72 11297.19,2225.89 11293.58,2218.67 11289.97,2211.46 11282.76,2207.85 11279.14,2204.24 11271.93,2200.63 11261.1,2200.63 11253.88,2204.24 11250.28,2207.85 11246.67,2211.46 11239.44,2222.29 11221.4,2258.37 11210.57,2276.42 11203.36,2290.85 11192.53,2301.68 11185.31,2312.51 11170.88,2319.72 11156.44,2323.33 11142.01,2326.94 11134.79,2326.94 11127.57,2323.33 11116.75,2323.33 11109.53,2319.72 11091.49,2305.28 11087.87,2298.07 11080.66,2290.85 11077.05,2280.03 11073.44,2269.2 11069.83,2258.37 11069.83,2243.94 11073.44,2218.67 11080.66,2197.02 11084.27,2186.2 11087.87,2175.37 11098.7,2160.93 11109.53,2150.11 11116.75,2146.5 11123.97,2142.89 11138.4,2135.68 11156.44,2135.68 11174.48,2135.68 11167.27,2186.2 11156.44,2189.81 11149.23,2189.81 11142.01,2193.41 11134.79,2197.02 11127.57,2200.63 11123.97,2207.85 11120.35,2225.89 11116.75,2236.72 11116.75,2247.55 11120.35,2258.37 11120.35,2265.59 11127.57,2272.8 11134.79,2276.42 11145.62,2276.42 11152.83,2272.8 11160.06,2265.59 11163.67,2254.76 11178.1,2225.89 11196.15,2197.02 11199.75,2182.59 11206.96,2175.37 11214.19,2168.15 11221.4,2160.93 11232.23,2157.33 11239.44,2150.11 11250.28,2150.11 11261.1,2146.5 11271.93,2146.5 11282.76,2150.11 11293.58,2153.72 11304.41,2157.33 11322.45,2168.15 11329.67,2178.98 11333.28,2186.2 11340.5,2197.02 11344.1,2207.85 11344.1,2222.29 11344.1,2236.72 11344.1,2251.15 11340.5,2265.59 11336.89,2290.85 11326.06,2308.9 11315.23,2323.33 11304.41,2337.76 11289.97,2344.99 11271.93,2352.2 11253.88,2355.81 "/>
   <polygon class="fil7" points="11372.98,2114.02 11123.97,2034.63 11142.01,1984.1 11391.02,2063.49 "/>
   <polygon class="fil7" points="11434.32,1955.23 11235.84,1865.01 11203.36,1933.58 11163.67,1915.54 11250.28,1727.87 11289.97,1749.53 11257.49,1818.09 11455.98,1908.32 "/>
   <path class="fil7" d="M11647.25 1623.22l-36.1 43.31 -61.34 -18.04 -61.35 86.61 36.09 50.52 -32.47 46.91 -155.18 -234.57 36.09 -46.92 274.27 72.18zm-140.75 14.44l-101.04 -28.87 57.74 86.61 43.3 -57.74z"/>
   <polygon class="fil7" points="11607.54,1540.22 11643.63,1500.52 11650.85,1507.74 11661.68,1511.35 11672.5,1514.96 11683.33,1514.96 11690.55,1514.96 11701.38,1511.35 11708.59,1504.13 11719.42,1496.91 11723.03,1493.31 11726.64,1489.7 11733.85,1482.48 11737.46,1471.66 11737.46,1464.43 11737.46,1457.22 11737.46,1450 11733.85,1442.78 11730.24,1435.56 11723.03,1431.95 11715.81,1428.35 11708.59,1428.35 11694.16,1435.56 11658.07,1453.61 11640.02,1464.43 11621.98,1471.66 11607.54,1475.26 11596.72,1475.26 11582.29,1475.26 11567.85,1471.66 11553.41,1464.43 11542.59,1453.61 11535.37,1446.39 11531.76,1435.56 11524.54,1417.52 11524.54,1406.7 11524.54,1395.87 11528.15,1388.65 11531.76,1377.82 11535.37,1367 11542.59,1356.17 11564.24,1334.52 11571.46,1327.3 11578.68,1320.08 11596.72,1309.25 11614.77,1302.04 11632.81,1302.04 11640.02,1302.04 11647.25,1302.04 11665.29,1309.25 11672.5,1312.86 11679.72,1316.48 11694.16,1327.3 11654.46,1363.39 11647.25,1359.78 11640.02,1356.17 11625.59,1352.56 11618.37,1352.56 11607.54,1356.17 11600.33,1363.39 11593.11,1370.61 11578.68,1385.04 11575.06,1392.26 11571.46,1399.47 11575.06,1410.3 11578.68,1417.52 11582.29,1421.13 11585.89,1421.13 11589.5,1424.74 11593.11,1424.74 11603.94,1421.13 11614.77,1417.52 11643.63,1403.09 11672.5,1388.65 11697.76,1377.82 11715.81,1374.21 11737.46,1377.82 11755.51,1385.04 11762.72,1392.26 11769.94,1399.47 11777.16,1410.3 11784.37,1417.52 11787.99,1428.35 11791.6,1439.18 11791.6,1450 11791.6,1464.43 11787.99,1475.26 11784.37,1486.08 11769.94,1507.74 11762.72,1518.56 11748.29,1529.39 11741.07,1540.22 11730.24,1543.83 11712.2,1554.65 11704.98,1561.87 11694.16,1561.87 11679.72,1565.48 11661.68,1565.48 11643.63,1558.27 11625.59,1551.04 11618.37,1543.83 "/>
   <polyline class="fil8" points="13188.53,3131.71 13195.76,3149.75 13195.76,3167.8 13195.76,3182.23 13192.15,3189.44 13188.53,3200.28 13181.32,3211.09 13170.49,3225.53 13163.28,3232.76 13152.44,3236.36 13134.4,3247.19 13112.75,3254.41 13069.45,3272.45 13022.53,3283.27 12979.22,3294.1 12935.92,3304.93 12889,3319.36 12813.22,3348.23 12777.13,3362.67 12737.43,3377.11 12694.13,3398.76 12672.48,3405.97 12654.43,3416.8 "/>
   <polygon class="fil7" points="12658.04,2529.03 12409.04,2529.03 12390.99,2399.12 12430.69,2363.03 12517.3,2442.42 12618.35,2381.07 12661.65,2384.68 12708.56,2381.07 12813.22,2442.42 12896.22,2363.03 12935.92,2399.12 12921.48,2529.03 "/>
   <path class="fil7" d="M12654.44 2355.81l-54.13 3.61 -83 50.52 -21.65 -50.52 93.82 -595.46 -68.57 -64.95 18.04 -57.75 39.69 7.22 21.66 32.48 10.82 -32.48 46.92 -3.62 57.74 3.62 14.43 32.48 21.66 -32.48 36.08 -7.22 18.04 57.75 -68.57 64.95 97.44 595.46 -21.65 50.52 -83.01 -50.52 -75.78 -3.61zm8.66 -603.84l13.81 29.08 13.81 29.08 -13.81 29.07 -0.82 1.73 0 127.39 0.82 1.73 13.81 29.07 -13.81 29.08 -0.82 1.73 0 162.28 0.82 1.73 13.81 29.08 -13.81 29.08 -13.81 29.07 -13.81 -29.07 -13.81 -29.08 13.81 -29.08 5.15 -10.85 0 -144.04 -5.15 -10.84 -13.81 -29.08 13.81 -29.07 5.15 -10.85 0 -109.15 -5.15 -10.84 -13.81 -29.07 13.81 -29.08 13.81 -29.08z"/>
   <path class="fil7" d="M12668.87 3077.57l0 274.26 -25.27 0 0 -274.26c-52.03,-39.03 -42.78,-122.7 14.44,-122.7 55.96,0 63.96,87.13 10.83,122.7z"/>
   <path class="fil9" d="M12766.3 1623.22l-97.43 7.22 -25.27 -151.57 7.22 -28.87 36.09 104.66 64.95 10.83 14.44 57.74zm-129.91 -259.83l-72.18 256.23 79.39 14.44 -28.87 -90.22 21.66 -180.44zm21.65 -169.61l-14.44 137.13 57.74 205.7 50.52 14.43 -75.78 -216.52 -18.04 -140.74z"/>
   <path class="fil7" d="M12658.04 2557.91l-194.87 10.82 0 270.67 -10.83 0c-34.66,0 -55.06,30.56 -32.49,54.13 19.81,20.68 60.8,0.72 77.59,-21.66l333.82 0c18.04,18.05 60.08,44.25 79.39,14.44 10.3,-15.89 -2.45,-46.91 -32.47,-46.91l-14.44 0 0 -270.67 -205.7 -10.82zm-148.69 270.66l-2.89 -14.43 0 -216.54 151.57 0 162.4 0 0 216.54 0 14.43 -311.09 0z"/>
   <polygon class="fil10" points="12654.43,1796.44 12676.08,1796.44 12676.08,2247.55 12654.43,2247.55 "/>
   <polygon class="fil11" points="12663.09,1751.97 12676.91,1781.05 12690.72,1810.13 12676.91,1839.2 12663.09,1868.28 12649.28,1839.2 12635.47,1810.13 12649.28,1781.05 "/>
   <polygon class="fil11" points="12663.09,1940.96 12676.91,1970.04 12690.72,1999.12 12676.91,2028.19 12663.09,2057.27 12649.28,2028.19 12635.47,1999.12 12649.28,1970.04 "/>
   <polygon class="fil11" points="12663.09,2164.85 12676.91,2193.93 12690.72,2223 12676.91,2252.08 12663.09,2281.15 12649.28,2252.08 12635.47,2223 12649.28,2193.93 "/>
   <path class="fil7" d="M12647.93 3384.32c-150.72,-113.02 -268.03,-120.38 -440.28,-169.62 -65.43,-16.35 -57.62,-126.3 14.44,-126.3 228.34,38.04 320.76,85.82 425.84,295.93zm-205.7 -382.54c-19.63,-8.91 -126.08,-45.55 -133.53,-50.52 -11.26,-14.99 -17.94,-32.54 -3.61,-46.91 47.07,-47.14 137.14,18.55 137.14,97.43zm32.48 126.31c-55.98,-14 -154.75,-41.25 -209.31,-54.14 -36.03,-8.51 -42.08,-59.76 -7.22,-83 107.97,-27.01 178.22,41.35 216.54,137.13z"/>
   <path class="fil7" d="M12660.94 3384.32c150.72,-113.02 268.03,-120.38 440.28,-169.62 65.43,-16.35 57.61,-126.3 -14.44,-126.3 -228.33,38.04 -320.76,85.82 -425.84,295.93zm205.7 -382.54c19.63,-8.91 126.08,-45.55 133.53,-50.52 11.26,-14.99 17.95,-32.54 3.61,-46.91 -47.07,-47.14 -137.14,18.55 -137.14,97.43zm-32.48 126.31c55.98,-14 154.74,-41.25 209.31,-54.14 36.03,-8.51 42.08,-59.76 7.22,-83 -107.97,-27.01 -178.22,41.35 -216.54,137.13z"/>
   <path class="fil8" d="M12262.54 3889.56c0,28.87 -25.26,54.13 -54.13,54.13 -32.48,0 -57.74,-25.26 -57.74,-54.13 0,-32.48 25.26,-57.74 57.74,-57.74 28.87,0 54.13,25.26 54.13,57.74z"/>
   <path class="fil8" d="M13208.05 3889.56c0,28.87 -25.26,54.13 -54.13,54.13 -32.47,0 -57.74,-25.26 -57.74,-54.13 0,-32.48 25.27,-57.74 57.74,-57.74 28.87,0 54.13,25.26 54.13,57.74z"/>
   <path class="fil7" d="M12258.94 3889.56c0,25.26 -25.26,50.52 -50.52,50.52 -28.87,0 -54.13,-25.26 -54.13,-50.52 0,-28.87 25.27,-54.13 54.13,-54.13 25.26,0 50.52,25.27 50.52,54.13z"/>
   <path class="fil7" d="M13204.44 3889.56c0,25.26 -25.26,50.52 -50.52,50.52 -28.87,0 -54.13,-25.26 -54.13,-50.52 0,-28.87 25.27,-54.13 54.13,-54.13 25.26,0 50.52,25.27 50.52,54.13z"/>
  </g>
  <path class="fil1 str0" d="M5580.76 1838.99c-22.66,0 -44.37,-3.7 -65.14,-11.11 -20.77,-7.41 -36.82,-16.92 -48.15,-28.54l12.64 -24.83c10.75,10.46 25.2,19.24 43.35,26.36 18.16,7.11 37.26,10.67 57.3,10.67 19.17,0 34.79,-2.39 46.84,-7.19 12.06,-4.79 20.92,-11.26 26.58,-19.39 5.67,-8.13 8.5,-17.14 8.5,-27.02 0,-11.91 -3.41,-21.5 -10.24,-28.76 -6.83,-7.26 -15.76,-13 -26.8,-17.21 -11.04,-4.21 -23.24,-7.91 -36.6,-11.11 -13.36,-3.19 -26.72,-6.61 -40.09,-10.24 -13.36,-3.63 -25.64,-8.5 -36.82,-14.6 -11.18,-6.1 -20.19,-14.16 -27.02,-24.18 -6.83,-10.02 -10.24,-23.17 -10.24,-39.43 0,-15.11 4,-28.98 11.98,-41.61 7.99,-12.64 20.26,-22.8 36.82,-30.5 16.56,-7.7 37.76,-11.55 63.62,-11.55 17.14,0 34.13,2.4 50.98,7.19 16.85,4.79 31.37,11.4 43.57,19.82l-10.89 25.71c-13.07,-8.71 -26.94,-15.1 -41.61,-19.17 -14.67,-4.07 -28.83,-6.1 -42.48,-6.1 -18.3,0 -33.41,2.47 -45.32,7.41 -11.91,4.94 -20.7,11.55 -26.36,19.82 -5.67,8.28 -8.5,17.65 -8.5,28.11 0,11.91 3.41,21.5 10.24,28.76 6.83,7.26 15.83,12.93 27.02,16.99 11.19,4.07 23.46,7.7 36.82,10.89 13.36,3.2 26.65,6.68 39.87,10.46 13.22,3.78 25.42,8.64 36.6,14.59 11.19,5.96 20.19,13.87 27.02,23.75 6.83,9.88 10.24,22.8 10.24,38.78 0,14.81 -4.07,28.54 -12.2,41.18 -8.13,12.63 -20.55,22.8 -37.26,30.5 -16.7,7.7 -38.13,11.55 -64.27,11.55z"/>
  <path id="_1_0" class="fil1 str0" d="M5793.4 1667.75l161.22 0 0 27.45 -161.22 0 0 -27.45zm3.05 140.74l183.88 0 -0.44 27.89 -215.26 0 0.44 -305.02 208.72 0 0 27.89 -176.91 0 -0.43 249.24z"/>
  <polygon id="_2_1" class="fil1 str0" points="6056.59,1836.38 6056.15,1531.36 6087.96,1531.36 6088.4,1808.49 6258.78,1808.49 6259.21,1836.38 "/>
  <path id="_3_2" class="fil1 str0" d="M6264 1836.38l139.44 -305.02 31.81 0 139.44 305.02 -33.99 0 -128.11 -286.28 13.07 0 -128.11 286.28 -33.56 0zm54.91 -81.48l9.59 -26.14 177.35 0 9.59 26.14 -196.52 0z"/>
  <polygon id="_4_3" class="fil1 str0" points="6625.23,1836.38 6625.23,1531.36 6651.81,1531.36 6791.25,1769.28 6777.3,1769.28 6915.43,1531.36 6942.01,1531.36 6942.01,1836.38 6911.07,1836.38 6911.07,1579.73 6918.48,1579.73 6791.25,1797.6 6776,1797.6 6647.89,1579.73 6656.17,1579.73 6656.17,1836.38 "/>
  <path id="_5_4" class="fil1 str0" d="M6992.56 1836.38l139.44 -305.02 31.81 0 139.44 305.02 -33.99 0 -128.11 -286.28 13.07 0 -128.11 286.28 -33.56 0zm54.91 -81.48l9.59 -26.14 177.35 0 9.59 26.14 -196.52 0z"/>
  <polygon id="_6_5" class="fil1 str0" points="7398.23,1836.38 7397.8,1559.25 7290.6,1559.25 7290.6,1531.36 7537.23,1531.36 7537.23,1559.25 7429.6,1559.25 7430.04,1836.38 "/>
  <path id="_7_6" class="fil1 str0" d="M7702.81 1836.38l0 -305.02 124.19 0c32.53,0 61.07,6.46 85.62,19.39 24.55,12.93 43.65,30.86 57.3,53.81 13.65,22.95 20.48,49.39 20.48,79.31 0,29.92 -6.83,56.35 -20.48,79.3 -13.65,22.95 -32.75,40.89 -57.3,53.81 -24.55,12.93 -53.09,19.39 -85.62,19.39l-124.19 0zm32.24 -27.89l90.2 0c27.02,0 50.47,-5.3 70.37,-15.91 19.9,-10.6 35.37,-25.27 46.41,-44.01 11.04,-18.74 16.56,-40.3 16.56,-64.7 0,-24.69 -5.52,-46.33 -16.56,-64.93 -11.04,-18.59 -26.51,-33.19 -46.41,-43.79 -19.9,-10.61 -43.35,-15.91 -70.37,-15.91l-90.2 0 0 249.24z"/>
  <path id="_8_7" class="fil1 str0" d="M8009.57 1836.38l139.44 -305.02 31.81 0 139.44 305.02 -33.99 0 -128.11 -286.28 13.07 0 -128.11 286.28 -33.56 0zm54.91 -81.48l9.59 -26.14 177.35 0 9.59 26.14 -196.52 0z"/>
  <polygon id="_9_8" class="fil1 str0" points="8415.24,1836.38 8414.81,1559.25 8307.62,1559.25 8307.62,1531.36 8554.24,1531.36 8554.24,1559.25 8446.62,1559.25 8447.06,1836.38 "/>
  <path id="_10_9" class="fil1 str0" d="M8541.61 1836.38l139.44 -305.02 31.81 0 139.44 305.02 -33.99 0 -128.11 -286.28 13.07 0 -128.11 286.28 -33.56 0zm54.91 -81.48l9.59 -26.14 177.35 0 9.59 26.14 -196.52 0z"/>
  <polygon id="_11_10" class="fil1 str0" points="8902.83,1836.38 8902.83,1531.36 8929.42,1531.36 9139.88,1796.29 9125.93,1796.29 9125.93,1531.36 9157.74,1531.36 9157.74,1836.38 9131.17,1836.38 8921.14,1571.45 8935.08,1571.45 8935.08,1836.38 "/>
  <path id="_12_11" class="fil1 str0" d="M9390.86 1838.99c-23.24,0 -44.66,-3.85 -64.27,-11.55 -19.61,-7.7 -36.6,-18.52 -50.98,-32.46 -14.38,-13.94 -25.56,-30.36 -33.55,-49.24 -7.99,-18.88 -11.98,-39.51 -11.98,-61.87 0,-22.37 4,-43 11.98,-61.88 7.99,-18.88 19.24,-35.29 33.77,-49.24 14.53,-13.94 31.59,-24.76 51.2,-32.46 19.61,-7.7 41.03,-11.55 64.27,-11.55 23.24,0 44.52,3.63 63.83,10.89 19.32,7.26 35.8,18.3 49.46,33.12l-20.04 20.48c-12.78,-12.78 -26.87,-21.93 -42.27,-27.45 -15.39,-5.52 -31.95,-8.28 -49.67,-8.28 -18.88,0 -36.24,3.12 -52.07,9.37 -15.83,6.24 -29.63,15.1 -41.39,26.58 -11.77,11.48 -20.92,24.84 -27.45,40.09 -6.54,15.25 -9.8,32.03 -9.8,50.33 0,18.01 3.27,34.71 9.8,50.11 6.54,15.39 15.69,28.83 27.45,40.3 11.76,11.48 25.56,20.33 41.39,26.58 15.83,6.24 33.04,9.37 51.63,9.37 17.43,0 33.92,-2.61 49.46,-7.84 15.54,-5.23 29.85,-14.09 42.92,-26.58l18.3 24.4c-14.53,12.78 -31.52,22.44 -50.98,28.98 -19.46,6.54 -39.8,9.8 -61,9.8zm81.05 -42.7l0 -112.42 30.94 0 0 116.34 -30.94 -3.92z"/>
  <path id="_13_12" class="fil1 str0" d="M9708.08 1836.38l0 -305.02 124.19 0c32.53,0 61.07,6.46 85.62,19.39 24.55,12.93 43.65,30.86 57.3,53.81 13.65,22.95 20.48,49.39 20.48,79.31 0,29.92 -6.83,56.35 -20.48,79.3 -13.65,22.95 -32.75,40.89 -57.3,53.81 -24.55,12.93 -53.09,19.39 -85.62,19.39l-124.19 0zm32.24 -27.89l90.2 0c27.02,0 50.47,-5.3 70.37,-15.91 19.9,-10.6 35.37,-25.27 46.41,-44.01 11.04,-18.74 16.56,-40.3 16.56,-64.7 0,-24.69 -5.52,-46.33 -16.56,-64.93 -11.04,-18.59 -26.51,-33.19 -46.41,-43.79 -19.9,-10.61 -43.35,-15.91 -70.37,-15.91l-90.2 0 0 249.24z"/>
  <polygon id="_14_13" class="fil1 str0" points="10068,1836.38 10068,1531.36 10100.25,1531.36 10100.25,1836.38 "/>
 </g>
</svg>
